<?xml version="1.0" standalone="no"?>
<!DOCTYPE svg PUBLIC "-//W3C//DTD SVG 1.1//EN" "http://www.w3.org/Graphics/SVG/1.1/DTD/svg11.dtd" >
<svg xmlns="http://www.w3.org/2000/svg" xmlns:xlink="http://www.w3.org/1999/xlink" version="1.1">
<metadata>
Created by FontForge 20170731 at Tue Feb 27 20:56:44 2018
 By Aleksey,,,
Copyright (c) 2014 by Fontfabric. All rights reserved.
</metadata>
<defs>
<font id="NexaScriptSemiBold-Regular" horiz-adv-x="505" >
  <font-face 
    font-family="Nexa Script Semi Bold"
    font-weight="400"
    font-stretch="normal"
    units-per-em="1000"
    panose-1="0 0 0 0 0 0 0 0 0 0"
    ascent="800"
    descent="-200"
    x-height="426"
    cap-height="705"
    bbox="-541.378 -535 1932.58 910"
    underline-thickness="50"
    underline-position="-300"
    unicode-range="U+000D-25CA"
  />
<missing-glyph horiz-adv-x="548" 
d="M102 800h347v-1096h-347v1096zM365 266v110h-36v-72h-146v-38h182zM365 118v124h-110v-61h38v25h36v-52h-110v88h-36v-124h182zM365 690v37h-181v-37h71v-40h-72v-36h182v36h-72v40h72zM293 508v77h-110v-114h182v37h-72zM365 405v37h-182v-37h72v-40h-72v-36h110v76h72z
M365 -71v124h-182v-124h182zM365 -133v36h-182v-36h77l-77 -51v-36h182v36h-112l77 51h35zM219 548h36v-40h-36v40zM219 16h110v-51h-110v51z" />
    <glyph glyph-name="f_f" unicode="ff" horiz-adv-x="744" 
d="M577 -222q-52 -73 -149 -73q-69 1 -95.5 42t-20.5 121q7 108 52 282q-106 -48 -196 -58q60 -59 69.5 -158t-32.5 -156q-50 -73 -149 -73q-69 1 -95 42.5t-20 120.5q7 139 80 391t142 351q58 81 139 81q61 0 95 -49t15 -129q-20 -91 -97.5 -167t-172.5 -113
q-3 -10 -11.5 -41.5t-13.5 -51.5q130 10 265 81q78 283 152 389q59 81 140 81q60 0 94.5 -49t15.5 -129q-19 -84 -95.5 -164t-177.5 -121q-15 -57 -23 -92q66 -22 116 -22q106 0 150 100q1 4 7 4q9 0 21.5 -9.5t9.5 -16.5q-33 -73 -79.5 -101t-108.5 -28q-13 0 -39 2
q50 -63 51.5 -147t-39.5 -140zM161 313q54 37 95.5 101.5t56.5 127.5q6 28 1.5 44t-17.5 16q-18 0 -40.5 -37.5t-43.5 -95t-32.5 -93t-19.5 -63.5zM531 310q51 31 95 99t58 133q6 28 1.5 44t-17.5 16q-17 0 -40 -38.5t-44 -95t-33.5 -94.5t-19.5 -64zM55 -161q-1 -50 24 -50
q11 0 23.5 14t21.5 38q20 45 14 112.5t-44 103.5q-35 -147 -39 -218zM427 -161q-1 -50 23 -50q12 0 24.5 13.5t21.5 38.5q20 45 14.5 112.5t-43.5 103.5q-36 -139 -40 -218z" />
    <glyph glyph-name="f_f_i" unicode="ffi" horiz-adv-x="1010" 
d="M1020 213q1 4 7 4q10 0 22.5 -9.5t8.5 -16.5q-97 -199 -233 -199q-110 0 -90 119q-55 -48 -136 -48q-12 0 -34 2q50 -63 51.5 -147t-39.5 -140q-51 -73 -148 -73q-69 1 -96 42.5t-21 120.5q7 108 52 282q-107 -50 -196 -58q40 -40 58.5 -100t12 -117.5t-33.5 -96.5
q-50 -73 -149 -73q-69 2 -95 43t-20 120q7 139 80 391t142 351q59 82 139 82q61 0 95 -49t15 -129q-20 -91 -97.5 -167.5t-172.5 -113.5q-2 -8 -10.5 -38.5t-14.5 -54.5q124 10 265 80q78 286 152 390q59 81 140 81q61 0 95 -49t15 -129q-19 -85 -95 -164.5t-178 -120.5
q-11 -40 -23 -92q57 -19 108 -19q117 0 165 103q5 20 55 196q10 12 46 12q27 0 51.5 -7.5t30.5 -20.5q-71 -247 -75 -267q-6 -29 -3.5 -46t15.5 -16q31 0 72.5 42t66.5 100zM161 313q55 38 96 101.5t56 127.5q6 28 1.5 44t-17.5 16q-18 0 -40.5 -37.5t-43.5 -95t-32.5 -93
t-19.5 -63.5zM531 309q53 34 96.5 102t56.5 131q6 28 1.5 44t-17.5 16q-17 0 -40 -38.5t-44 -95.5t-33.5 -95t-19.5 -64zM124 -159q20 45 14 112.5t-44 103.5q-35 -147 -39 -218q-1 -50 24 -50q11 0 23.5 14t21.5 38zM495 -161q13 34 16 73.5t-7.5 80t-36.5 64.5
q-36 -139 -40 -218q-1 -51 24 -51t44 51zM906 483q-29 0 -46 21t-12 49q5 31 28 51t55 20q32 -1 49 -21t12 -50q-5 -31 -28 -50.5t-58 -19.5z" />
    <glyph glyph-name="f_f_l" unicode="ffl" horiz-adv-x="1108" 
d="M421 -296q-52 3 -84.5 38.5t-26.5 98.5q9 127 54 309q-106 -48 -196 -58q60 -59 69.5 -158t-32.5 -156q-50 -73 -153 -73q-67 3 -92 44t-19 119q7 139 80 391t142 351q58 81 139 81q61 0 95 -49t15 -129q-20 -91 -97.5 -167t-172.5 -113q-3 -10 -11.5 -41.5t-13.5 -51.5
q130 10 267 81q25 99 68.5 220t78.5 169q61 79 142 79q62 0 95.5 -48.5t10.5 -127.5q-26 -93 -96.5 -166t-174.5 -120q-3 -12 -10.5 -43t-12.5 -48q90 0 154.5 19t119.5 73q7 60 25.5 130.5t50 149.5t84 131t114.5 52t97 -52t13 -136q-23 -91 -90 -160.5t-171 -105.5
q-36 -162 56 -168q58 0 104.5 42.5t76.5 102.5q1 3 6 3q9 0 21.5 -9.5t9.5 -15.5q-48 -96 -102.5 -148.5t-138.5 -52.5q-81 0 -119.5 41.5t-40.5 125.5q-54 -38 -103.5 -51t-114.5 -15q60 -65 73.5 -149t-22.5 -146q-25 -45 -69.5 -69t-97.5 -24zM161 313q54 37 95.5 101.5
t56.5 127.5q6 28 1.5 44t-17.5 16q-18 0 -40.5 -37.5t-43.5 -95t-32.5 -93t-19.5 -63.5zM530 310q52 33 96.5 103t55.5 134q9 55 -17 55q-18 0 -40.5 -37.5t-43.5 -97t-31.5 -92.5t-19.5 -65zM898 315q36 21 69 64t53 90q22 54 25.5 92t-15.5 40q-22 1 -53.5 -65.5
t-50.5 -125.5t-28 -95zM55 -161q-1 -50 24 -50q11 0 23.5 14t21.5 38q20 45 14 112.5t-44 103.5q-35 -147 -39 -218zM424 -166q0 -45 23 -45q12 0 24 13t21 36q21 46 16 115.5t-43 105.5q-41 -160 -41 -225z" />
    <glyph glyph-name=".notdef" horiz-adv-x="548" 
d="M102 800h347v-1096h-347v1096zM365 266v110h-36v-72h-146v-38h182zM365 118v124h-110v-61h38v25h36v-52h-110v88h-36v-124h182zM365 690v37h-181v-37h71v-40h-72v-36h182v36h-72v40h72zM293 508v77h-110v-114h182v37h-72zM365 405v37h-182v-37h72v-40h-72v-36h110v76h72z
M365 -71v124h-182v-124h182zM365 -133v36h-182v-36h77l-77 -51v-36h182v36h-112l77 51h35zM219 548h36v-40h-36v40zM219 16h110v-51h-110v51z" />
    <glyph glyph-name=".null" horiz-adv-x="0" 
 />
    <glyph glyph-name="nonmarkingreturn" horiz-adv-x="333" 
 />
    <glyph glyph-name="NULL" horiz-adv-x="0" 
 />
    <glyph glyph-name="NULL" horiz-adv-x="0" 
 />
    <glyph glyph-name="CR" unicode="&#xd;" horiz-adv-x="250" 
 />
    <glyph glyph-name="space" unicode=" " horiz-adv-x="233" 
 />
    <glyph glyph-name="exclam" unicode="!" horiz-adv-x="378" 
d="M107 -10q-26 0 -43 18t-15 44q2 25 21.5 43t44.5 18q28 0 43.5 -18t13.5 -43q-3 -26 -21.5 -44t-43.5 -18zM96 206q14 51 61.5 228.5t63.5 234.5q7 24 51 24q30 0 55 -11t20 -24q-18 -55 -69 -216.5t-78 -239.5q-8 -24 -47 -24q-23 0 -41.5 8.5t-15.5 19.5z" />
    <glyph glyph-name="quotedbl" unicode="&#x22;" horiz-adv-x="385" 
d="M187 660l-37 -136q-6 -19 -38 -19q-16 0 -26 6.5t-7 18.5l29 134q7 25 45 25q17 0 27.5 -8t6.5 -21zM333 660l-38 -136q-6 -19 -38 -19q-16 0 -26 6.5t-7 18.5l30 134q7 25 45 25q17 0 27.5 -8t6.5 -21z" />
    <glyph glyph-name="numbersign" unicode="#" horiz-adv-x="629" 
d="M234 226l-40 -142q-7 -24 -47 -24q-20 0 -34.5 7t-11.5 17l40 142h-64q-19 0 -15 29q4 31 24 39q4 2 9 2h65l27 96h-71q-24 0 -20.5 28.5t22.5 39.5q6 3 11 3h78l38 136q7 23 48 23q20 0 34.5 -6.5t11.5 -16.5l-38 -136h84l38 135q7 24 47 24q20 0 34.5 -7t11.5 -16
l-38 -136h64q19 0 15 -29q-3 -32 -24 -40q-5 -2 -9 -2h-66l-26 -96h71q24 0 20.5 -29t-23.5 -39l-10 -2h-78l-40 -143q-7 -23 -47 -23q-20 0 -35 7t-12 17l40 142h-84zM281 392l-27 -96h84l27 96h-84z" />
    <glyph glyph-name="dollar" unicode="$" horiz-adv-x="596" 
d="M452 698l-11 -44q57 -19 91 -60t34 -84q1 -16 -17.5 -28t-40.5 -12q-35 0 -39 26q-3 50 -51 67q-18 -71 -44 -183q67 -59 88 -86q40 -52 39 -110q-1 -97 -60.5 -142.5t-159.5 -45.5l-16 -61q-4 -17 -33 -17q-16 0 -26.5 7t-7.5 20q12 44 16 58q-94 19 -133.5 82.5
t-19.5 133.5q7 27 45 27q23 0 42 -12t17 -28q-4 -38 15 -67.5t56 -40.5q27 112 52 213q-30 24 -45.5 38.5t-37 40t-30.5 53.5t-8 60q3 82 58 122t131 40q3 0 9 -0.5t9 -0.5q3 15 9 38q4 20 34 20q15 0 26 -7t9 -17zM345 263q-25 -109 -43 -178h6q48 0 71 33.5t13 76.5
t-47 68zM354 582q-10 2 -15 2q-23 0 -39.5 -14t-21.5 -37q-15 -61 38 -100q5 18 18 71t20 78z" />
    <glyph glyph-name="percent" unicode="%" horiz-adv-x="650" 
d="M444 24q-51 0 -81.5 32.5t-22.5 77.5q7 42 46 72.5t88 30.5q54 0 83 -32t21 -77q-6 -43 -45 -73.5t-89 -30.5zM450 94q17 0 30.5 10t17.5 25q6 16 -3 28t-28 12q-20 0 -34 -13t-16 -29q-2 -13 7 -23t26 -10zM167 423q-54 0 -83 32.5t-21 77.5q7 43 45.5 73t88.5 30
q51 0 82 -32t23 -77q-8 -43 -47 -73.5t-88 -30.5zM174 491q20 0 34 12.5t16 29.5q2 13 -7 23t-26 10t-30.5 -10t-17.5 -25q-5 -16 3.5 -28t27.5 -12zM546 606l-358 -592q-8 -12 -33 -12q-28 0 -50 13.5t-11 30.5l359 596q10 13 31 13q27 0 50 -16.5t12 -32.5z" />
    <glyph glyph-name="ampersand" unicode="&#x26;" horiz-adv-x="592" 
d="M193 542q16 54 61 82.5t99 28.5q64 0 105 -40.5t26 -109.5q-11 -49 -58.5 -93t-106.5 -73q33 -73 98 -159q36 44 45 113q3 20 28 20q15 0 28 -8t13 -19q-1 -86 -60 -167q24 -31 59 -69q11 -12 4.5 -23.5t-24 -20.5t-34.5 -9q-16 0 -27 9q-28 27 -44 46q-73 -57 -175 -58
q-95 0 -141 51.5t-37 124.5q7 59 46.5 111t109.5 87q-39 96 -15 176zM243 289q-75 -43 -82 -120q-4 -38 16 -65.5t62 -28.5q68 0 111 43q-50 67 -107 171zM294 525q-22 -52 -4 -117q82 45 92 113q4 24 -5.5 37.5t-26.5 13.5q-37 0 -56 -47z" />
    <glyph glyph-name="quotesingle" unicode="'" horiz-adv-x="220" 
d="M191 660l-38 -136q-6 -19 -38 -19q-16 0 -26 6.5t-7 18.5l30 134q7 25 45 25q17 0 27.5 -8t6.5 -21z" />
    <glyph glyph-name="parenleft" unicode="(" horiz-adv-x="465" 
d="M210 -158q-74 81 -97 197t-2 244q22 130 93.5 245t160.5 157q6 2 10 2q15 0 33.5 -11t26 -24.5t-3.5 -24.5q-60 -49 -114 -138.5t-76 -203.5q-16 -80 -11.5 -155t21.5 -132.5t43 -101.5q11 -18 -16.5 -38.5t-52.5 -20.5q-11 0 -15 5z" />
    <glyph glyph-name="parenright" unicode=")" horiz-adv-x="441" 
d="M91 -160q-6 -2 -10 -2q-15 0 -33.5 11t-26 24.5t2.5 24.5q62 50 116 141.5t76 207.5q19 127 3 221t-57 161q-11 18 16.5 38.5t52.5 20.5q11 0 15 -5q74 -82 97 -198t1 -243q-21 -130 -92.5 -245t-160.5 -157z" />
    <glyph glyph-name="asterisk" unicode="*" horiz-adv-x="320" 
d="M227 541l52 -38q12 -9 0 -28t-27 -19q-4 0 -9 3l-40 30l-2 -53q-1 -19 -32 -19q-12 0 -20 4.5t-7 13.5l6 54l-47 -30q-5 -3 -9 -3q-15 0 -24.5 19.5t4.5 27.5l62 39l-54 37q-14 11 -3.5 29.5t27.5 18.5q7 0 11 -4l40 -30l3 50q0 11 9 17t21 6t20 -6t7 -17l-5 -50l45 30
q5 4 12 4q16 0 24 -19.5t-7 -30.5z" />
    <glyph glyph-name="plus" unicode="+" horiz-adv-x="502" 
d="M280 252l-42 -148q-5 -17 -43 -17q-20 0 -33.5 6.5t-10.5 17.5l39 141h-93q-16 0 -21 21t4 41.5t27 20.5l106 -1l38 136q7 21 41 21q20 0 35.5 -8t11.5 -20l-36 -129h94q18 0 24 -20.5t-2.5 -41t-26.5 -20.5h-112z" />
    <glyph glyph-name="comma" unicode="," horiz-adv-x="317" 
d="M107 -144q-8 -5 -15 -5q-18 0 -30.5 16.5t-0.5 26.5q49 45 66 100q-17 6 -27.5 21.5t-9.5 35.5q1 26 21 43.5t46 18.5q27 0 43 -18t15 -48q-1 -53 -31.5 -106t-76.5 -85z" />
    <glyph glyph-name="hyphen" unicode="-" horiz-adv-x="451" 
d="M323 223h-194q-16 0 -20 20.5t6 41.5t28 21h190q17 0 22 -21t-4.5 -41.5t-27.5 -20.5z" />
    <glyph glyph-name="period" unicode="." horiz-adv-x="265" 
d="M96 -10q-25 0 -42 18t-16 44q2 25 21.5 43t45.5 18q27 0 42.5 -18t13.5 -43q-2 -26 -21 -44t-44 -18z" />
    <glyph glyph-name="slash" unicode="/" horiz-adv-x="485" 
d="M73 29q26 47 132.5 303.5t149.5 330.5q10 17 41 17q28 0 50 -13t13 -28q-45 -73 -148.5 -323.5t-135.5 -308.5q-10 -16 -45 -16q-28 0 -47 10.5t-10 27.5z" />
    <glyph glyph-name="zero" unicode="0" horiz-adv-x="545" 
d="M351 664q204 -2 159 -299q-15 -95 -52 -176.5t-103 -139t-148 -57.5q-97 0 -137 77.5t-18 226.5q14 95 52 176.5t103 136.5t144 55zM344 581q-39 1 -75.5 -53.5t-58.5 -122t-33 -133.5q-31 -196 39 -196q29 0 57 29.5t49.5 77t37 100t24.5 103.5q34 195 -40 195z" />
    <glyph glyph-name="one" unicode="1" horiz-adv-x="432" 
d="M292 646q13 22 56 22q27 0 47 -9t16 -21q-70 -214 -166 -625q-9 -25 -69 -25q-26 0 -42.5 7.5t-12.5 21.5q83 352 134 477q-22 -35 -64 -73t-72 -51q-9 -3 -16 -3q-9 0 -17 3.5t-14 9.5t-10.5 13t-7 14.5t-3.5 14.5t1 12t6 8q156 95 234 204z" />
    <glyph glyph-name="two" unicode="2" horiz-adv-x="496" 
d="M383 -5q-116 4 -195 4q-67 0 -122 -3h-3q-23 0 -35 19t-7.5 42.5t25.5 35.5q89 54 174 157.5t110 197.5q17 64 0.5 98t-56.5 35q-36 0 -62.5 -31t-23.5 -85q1 -12 -17 -20t-41 -8q-40 0 -41 20q-11 95 51 150t147 55q92 1 140 -54t26 -175q-16 -89 -94.5 -184.5
t-176.5 -165.5q45 4 118 4q43 0 101 -2q20 -1 21.5 -23.5t-11.5 -44.5t-28 -22z" />
    <glyph glyph-name="three" unicode="3" horiz-adv-x="495" 
d="M213 372q61 0 94.5 33.5t39.5 89.5q5 40 -14 63t-48 23q-34 0 -60.5 -28.5t-27.5 -79.5q0 -12 -20 -21t-42 -9q-35 0 -36 24q-3 94 55.5 146t139.5 52t135.5 -50.5t41.5 -136.5q-9 -55 -49.5 -96t-94.5 -47q63 -12 91.5 -62.5t15.5 -118.5q-16 -79 -77.5 -122t-137.5 -43
q-87 0 -144.5 54.5t-39.5 148.5q4 28 47 28q23 0 40 -11t14 -30q-6 -48 17.5 -76t59.5 -28q31 0 57.5 22.5t35.5 63.5q13 60 -6.5 95.5t-87.5 37.5q-18 1 -23 21t3 39t21 18z" />
    <glyph glyph-name="four" unicode="4" horiz-adv-x="567" 
d="M375 646q14 19 59 19q29 0 52 -9t20 -21q-41 -173 -79 -411q49 0 72 -2q15 -1 22 -21t0 -39t-27 -19q-10 1 -41 1t-42 -1q-14 -94 -19 -119q-2 -13 -22.5 -20.5t-45.5 -7.5q-49 0 -45 25q11 59 21 118q-112 -6 -224 -6q-28 1 -42.5 26t3.5 51q37 49 167 212t171 224z
M373 499q-35 -53 -208 -282q13 1 64.5 2.5t82.5 3.5q40 195 61 276z" />
    <glyph glyph-name="five" unicode="5" horiz-adv-x="506" 
d="M430 662h3q32 -1 31.5 -40t-21.5 -45q-36 -9 -90 -9q-44 0 -101 5q-5 -20 -16.5 -72t-16.5 -71q43 12 79 12q97 0 137 -73t20 -171q-17 -86 -83 -146.5t-158 -60.5q-103 -1 -149 62.5t-27 147.5q4 23 43 23q24 0 41 -10t15 -26q-8 -50 13 -80t65 -31q47 0 74.5 35
t38.5 87q6 38 4.5 72.5t-23.5 58t-62 23.5q-31 0 -66 -12q-14 -4 -29 -4q-24 0 -40 10.5t-11 33.5q5 20 13.5 56.5t19 87t16.5 77.5q7 35 23 44.5t60 9.5h28q104 0 169 6z" />
    <glyph glyph-name="six" unicode="6" horiz-adv-x="541" 
d="M218 -8q-65 0 -105.5 34t-53.5 84t-8 115q5 68 23.5 138.5t51.5 141t90.5 115t129.5 45.5q74 1 117 -39t45 -98q1 -14 -17.5 -22.5t-40.5 -8.5q-36 0 -39 17q-7 33 -22.5 50t-46.5 17q-47 -1 -86 -61.5t-62 -146.5q56 61 132 63q83 1 119.5 -63.5t21.5 -153.5
q-17 -102 -82.5 -164.5t-166.5 -62.5zM226 75q43 -1 75.5 41t44.5 111q6 35 4.5 63.5t-15.5 46.5t-39 18q-42 -1 -74 -35.5t-51 -91.5q-15 -150 55 -153z" />
    <glyph glyph-name="seven" unicode="7" horiz-adv-x="421" 
d="M384 661q4 1 12 1q27 0 47 -15t10 -30q-21 -35 -48 -89.5t-49 -103t-53 -120t-46.5 -108.5t-43.5 -104.5t-31 -74.5q-6 -24 -55 -24q-28 0 -48.5 10t-16.5 28q38 102 106.5 261.5t125.5 266.5q-52 -11 -108 -11q-73 0 -122 22q-14 10 -11.5 30.5t15 40.5t22.5 20h2
q69 -19 139 -19q58 0 153 19z" />
    <glyph glyph-name="eight" unicode="8" horiz-adv-x="508" 
d="M127 534q10 64 61.5 98t117.5 34q79 0 133 -45.5t38 -122.5q-17 -80 -129 -141q127 -87 112 -192q-12 -88 -81 -131t-164 -43q-96 2 -144 52t-41 128q11 115 167 198q-85 78 -70 165zM264 315q-44 -21 -74 -59t-35 -81q-5 -40 15 -69.5t58 -30.5q49 0 76.5 27.5
t31.5 75.5q2 38 -18 75.5t-54 61.5zM244 522q-10 -60 39 -110q69 49 79 99q8 33 -8.5 52.5t-43.5 19.5q-24 0 -42.5 -15.5t-23.5 -45.5z" />
    <glyph glyph-name="nine" unicode="9" horiz-adv-x="536" 
d="M191 -8q-71 -1 -111 34.5t-43 82.5q0 16 21.5 28.5t42.5 12.5q18 0 21 -11q18 -64 74 -64q50 1 90.5 59.5t56.5 138.5q-40 -54 -115 -54q-94 0 -136 66.5t-27 154.5q16 98 82 162t165 63q101 0 142 -65.5t34 -168.5q-3 -44 -11.5 -89.5t-23 -96.5t-38.5 -95t-54.5 -80
t-74.5 -57t-95 -21zM245 302q88 0 123 132q17 140 -58 147q-97 0 -124 -149q-10 -54 5 -92t54 -38z" />
    <glyph glyph-name="colon" unicode=":" horiz-adv-x="347" 
d="M136 -10q-26 0 -43.5 18t-15.5 44q1 25 20.5 43t45.5 19q27 0 43 -18t14 -44t-20.5 -44t-43.5 -18zM185 291q-26 0 -43.5 18.5t-15.5 44.5q2 25 21 42.5t45 18.5q27 0 43.5 -18t14.5 -44t-21 -44t-44 -18z" />
    <glyph glyph-name="semicolon" unicode=";" horiz-adv-x="347" 
d="M180 291q-26 0 -43 18t-16 44q2 25 21 43t45 18q27 0 43.5 -18t14.5 -43q-3 -26 -21.5 -44t-43.5 -18zM89 -144q-6 -5 -16 -5q-18 0 -29.5 16.5t0.5 26.5q18 16 38 43.5t28 55.5q-17 7 -27.5 22.5t-9.5 35.5q1 26 21.5 43.5t46.5 17.5t41.5 -18t14.5 -48
q-1 -52 -31.5 -105t-76.5 -85z" />
    <glyph glyph-name="less" unicode="&#x3c;" horiz-adv-x="404" 
d="M177 96l-105 166q-29 46 16 82l177 142q12 9 24 9q25 0 38.5 -26.5t-5.5 -43.5l-159 -134l96 -154q9 -16 -10.5 -37t-42.5 -21q-18 0 -29 17z" />
    <glyph glyph-name="equal" unicode="=" horiz-adv-x="557" 
d="M418 178l-295 -1q-16 0 -21 20.5t4 41.5t27 21h290q18 0 24 -20.5t-2.5 -41t-26.5 -20.5zM442 326l-295 -1q-16 0 -21 20.5t4 41.5t27 21h291q18 0 24 -20.5t-3 -41t-27 -20.5z" />
    <glyph glyph-name="greater" unicode="&#x3e;" horiz-adv-x="404" 
d="M218 478l105 -167q28 -46 -16 -81l-178 -143q-9 -8 -23 -8q-26 0 -40 25.5t6 43.5l162 136l-96 153q-10 16 9 36.5t42 20.5q20 0 29 -16z" />
    <glyph glyph-name="question" unicode="?" horiz-adv-x="507" 
d="M156 -10q-25 0 -42 18t-15 44q2 25 21.5 43t44.5 18q27 0 43 -18t14 -43q-3 -26 -22 -44t-44 -18zM141 203q1 47 21 83.5t58 77.5q5 6 36 38.5t41 45t24.5 40t16.5 53.5q8 62 -45 70q-1 0 -4 0.5t-5 0.5q-32 0 -58 -29t-32 -84q-3 -28 -46 -28q-21 0 -37 9t-15 25
q7 187 204 187q74 -3 118.5 -43.5t39.5 -108.5q-2 -29 -10.5 -54.5t-27.5 -51t-30 -38t-41 -41t-37 -35.5q-22 -22 -35 -37t-24.5 -37t-13.5 -45q-3 -25 -48 -25q-20 0 -35 7.5t-15 19.5z" />
    <glyph glyph-name="at" unicode="@" horiz-adv-x="829" 
d="M458 535q127 -1 211 -59.5t85 -167.5q2 -120 -73.5 -201t-160.5 -82h-2q-36 0 -60 25t-23 79q-25 -45 -53 -69.5t-71 -24.5q-53 0 -74 40t-8 95.5t53 102.5q72 87 176 87q84 0 129 -44q9 -9 -2 -27.5t-23 -18.5q-47 31 -109 31q-57 -6 -96 -63q-23 -34 -32.5 -81t8.5 -59
q5 -3 11 -3q26 0 62 55t51 111q5 15 30 15q19 0 36 -8.5t14 -18.5q-25 -91 -28 -115q-6 -43 19 -43q40 0 69.5 37.5t41 81.5t12.5 82q1 82 -56 121t-143 39q-113 -1 -196 -79.5t-101 -196.5q-17 -114 36.5 -176t146.5 -62q52 0 105 19q18 1 24 -32t-10 -40q-69 -31 -142 -31
q-125 0 -205.5 88t-61.5 231q10 72 42 137t83 115.5t125 80t160 29.5z" />
    <glyph glyph-name="A" unicode="A" horiz-adv-x="867" 
d="M228 -9q-86 0 -125.5 41.5t-27.5 112.5q15 82 92 128t185 46q22 0 34 -1q36 85 54 124.5t50 93t66 91.5q59 63 135 63q43 0 72.5 -23.5t32.5 -64.5q8 -102 -49 -316q103 3 148 47q7 5 11 5q12 0 19 -16t1 -24q-60 -68 -189 -78q-33 -133 -43 -201q-17 -23 -69 -23
q-54 0 -68 23q10 70 44 199q-24 2 -118 11q-22 -54 -41 -89t-49 -73t-71 -57t-94 -19zM235 71q34 1 59.5 40t60.5 126q-54 0 -95 -22t-56 -70q-10 -26 -2.5 -50.5t33.5 -23.5zM617 291q57 203 68 280q5 31 -14 31q-17 0 -42.5 -38t-51 -99t-39 -95.5t-25.5 -67.5
q43 -6 104 -11z" />
    <glyph glyph-name="B" unicode="B" horiz-adv-x="872" 
d="M563 694q128 -1 208 -58.5t63 -148.5q-11 -57 -61.5 -92t-107.5 -36q77 -10 117.5 -73t23.5 -135q-19 -77 -77.5 -118t-140.5 -41q-106 0 -191 68q-56 -68 -162 -68q-71 0 -117 28t-43 85q2 53 41 82.5t97 29.5q64 0 125 -35q13 33 40.5 135.5t56 163t69.5 80.5
q10 5 28 5q22 0 41 -8.5t20 -18.5q-26 -23 -68 -149q66 2 115.5 29t62.5 76q15 55 -25.5 85.5t-120.5 31.5h-5q-76 0 -136.5 -27t-86 -74.5t1.5 -111.5q-3 -20 -24.5 -36.5t-44.5 -16.5q-4 0 -12 2q-68 46 -65 120t62 128q109 98 316 98zM249 145q-2 0 -5.5 0.5t-4.5 0.5
q-40 0 -50 -29q-9 -26 15 -40q11 -6 27 -6q52 0 80 50q-39 22 -62 24zM503 324q-55 -173 -67 -200q63 -53 129 -53q44 0 75 27.5t42 84.5q9 52 -15 86t-69 47q-31 9 -66 9q-19 0 -29 -1z" />
    <glyph glyph-name="C" unicode="C" horiz-adv-x="646" 
d="M540 693q85 -4 125 -54t21 -122q-15 -59 -70.5 -95.5t-128.5 -36.5q-96 0 -179 59q-38 -86 -36 -173q1 -101 45.5 -150.5t116.5 -49.5t130 38.5t91 104.5q1 4 7 4q10 0 22.5 -9.5t8.5 -16.5q-49 -102 -123 -152t-184 -50q-116 0 -186 78t-60 215q11 145 93 254
q-43 71 -48 135q-1 9 8.5 14.5t22.5 5.5q25 0 28 -14q8 -47 34 -91q107 107 242 107q4 0 10 -0.5t10 -0.5zM519 611q-57 0 -97.5 -24.5t-76.5 -75.5q48 -35 111 -35q41 0 71 18t37 52q8 25 -4.5 44.5t-40.5 20.5z" />
    <glyph glyph-name="D" unicode="D" horiz-adv-x="916" 
d="M539 694q142 -4 236 -92t90 -247q-4 -166 -84 -265.5t-201 -97.5q-97 0 -186 66q-58 -67 -161 -67q-78 0 -121.5 31.5t-39.5 85.5q4 53 43.5 80.5t96.5 27.5q67 0 123 -35q15 37 41 128.5t52.5 154t62.5 92.5q13 10 38 10q23 0 43.5 -8.5t19.5 -18.5
q-43 -56 -91.5 -213.5t-71.5 -199.5q68 -52 140 -52q47 0 81.5 29t52 74.5t25.5 90t8 87.5q4 258 -220 258q-60 0 -113.5 -29.5t-76 -77t3.5 -106.5q2 -14 -19.5 -33.5t-46.5 -19.5q-9 0 -18 3q-58 39 -60 110t49 126q95 108 304 108zM236 146q-40 -1 -49 -30q-9 -27 15 -41
q10 -6 24 -6q51 0 84 52q-44 25 -74 25z" />
    <glyph glyph-name="E" unicode="E" horiz-adv-x="582" 
d="M280 706q2 -36 12 -60q59 50 153 50q73 0 124.5 -34t48.5 -94q-3 -63 -47 -91t-111 -28q-34 1 -68 16t-55 37q-4 -44 28.5 -80.5t92.5 -44.5q14 -11 6.5 -41.5t-25.5 -33.5q-20 2 -33 2q-63 0 -113.5 -29t-58.5 -87q-7 -41 13.5 -68.5t50 -37t64.5 -10.5q160 0 230 142
q1 4 7 4q10 0 22 -10t9 -16q-45 -97 -123 -149t-183 -52q-99 0 -168.5 50.5t-55.5 149.5q11 80 70.5 128t134.5 52q-42 17 -63.5 59.5t-18.5 90t25 81.5q-20 43 -20 102q0 8 9 13t20 5q22 0 23 -16zM357 568q42 -42 97 -42q47 0 49 43q1 19 -16.5 30.5t-43.5 11.5
q-59 0 -86 -43z" />
    <glyph glyph-name="F" unicode="F" horiz-adv-x="669" 
d="M553 678q15 18 61 18q30 0 53.5 -8.5t19.5 -20.5q-34 -94 -106 -326q18 0 56 2q13 -9 11.5 -36t-18.5 -39q-13 0 -37 -0.5t-36 -1.5q-15 -47 -23.5 -72.5t-22.5 -59.5t-26 -52t-30 -38t-39.5 -29.5t-49.5 -16.5t-63 -7q-46 0 -81.5 14.5t-54.5 38.5t-25.5 53.5t0.5 58.5
t28.5 55t53.5 42q6 2 11 2q24 0 48.5 -22t11.5 -38q-35 -42 -28 -83t47 -41q13 0 24 5.5t21 20t17 27.5t16.5 40.5t15 46l16.5 55.5h-60q-16 8 -11 38t21 36q51 0 72 1q49 169 83 248q-38 -34 -94 -34q-17 0 -49.5 3.5t-48.5 3.5q-40 0 -66 -18q-20 -13 -26.5 -32.5
t2.5 -32.5q8 -20 37 -20q20 0 39 13q6 4 11 4q16 0 29.5 -20t6.5 -29q-36 -47 -110 -47q-37 0 -70.5 13t-50.5 35q-24 29 -26 68t21.5 76t69.5 56q49 20 100 20q28 0 76 -8t69 -8q58 0 104 46z" />
    <glyph glyph-name="G" unicode="G" horiz-adv-x="718" 
d="M493 693q99 -1 148.5 -59t15.5 -137q-26 -60 -78 -90.5t-116 -30.5q-106 0 -193 70q-24 -46 -38.5 -105t-16 -116t25.5 -96t81 -40q118 0 187 188q6 15 52 15q29 0 48.5 -7.5t15.5 -21.5q-54 -188 -71 -253q104 53 174 204q1 4 7 4q10 0 22.5 -9.5t9.5 -16.5
q-52 -103 -103.5 -160t-128.5 -89q-12 -46 -21 -74.5t-27 -63.5t-39.5 -54.5t-56 -33t-78.5 -13.5q-57 0 -91.5 26.5t-28.5 78.5q3 29 17 53t34 40t51 31t58 24t65 19l27 94q-60 -61 -150 -61q-93 3 -145.5 60t-58.5 138t20.5 171.5t81.5 158.5q-45 69 -50 142q-1 8 7 12.5
t20 4.5q31 0 33 -17q7 -50 35 -93q110 107 255 107zM487 612q-103 0 -179 -103q55 -43 118 -43q40 0 71 18.5t43 54.5q11 31 -4 52t-49 21zM404 -90q-38 -15 -67 -37.5t-36 -44.5q-7 -21 -2 -31.5t18 -10.5q12 0 25 10t20 27q24 18 42 87z" />
    <glyph glyph-name="H" unicode="H" horiz-adv-x="910" 
d="M542 679q15 16 54 16q27 0 49.5 -8t27.5 -20q-26 -75 -115 -363q8 -1 52 -9t67 -11q5 17 21.5 75.5t25 86t22.5 73t26 79.5t25 63q9 9 41 9q28 0 53.5 -8t33.5 -22q-46 -113 -113 -364q77 5 133 46q5 3 9 3q13 0 19 -17.5t-4 -27.5q-72 -58 -175 -67q-49 -174 -55 -197
q-17 -19 -69 -19q-58 0 -67 26l56 194q-24 3 -66.5 9t-57.5 8q-18 -54 -30.5 -86t-33 -66t-43.5 -51t-57.5 -28.5t-80.5 -11.5q-97 0 -133 47.5t-22 111.5q15 77 86.5 124.5t180.5 47.5q4 0 12 -0.5t12 -0.5q59 186 88 267q-34 -34 -91 -34q-16 0 -47 3t-46 3q-28 0 -49 -8
q-53 -15 -52 -57q1 -16 13 -26.5t30 -10.5q19 0 39 14h2q15 0 27 -19t5 -34q-40 -46 -106 -46q-35 0 -66 14.5t-47 39.5q-35 51 -21 109q18 78 115 98q39 12 80 12q26 0 70.5 -6.5t63.5 -6.5q61 0 108 46zM404 238q-111 -4 -139 -91q-11 -26 -2 -51t36 -25q34 -1 58 41
t47 126z" />
    <glyph glyph-name="I" unicode="I" horiz-adv-x="558" 
d="M475 670q18 20 67 20q24 0 44.5 -6.5t24.5 -16.5q-22 -62 -125 -389q-14 -44 -20 -63.5t-19 -54t-22 -50.5t-24.5 -40t-31 -35t-37 -23.5t-47.5 -17t-58 -4.5q-54 0 -93.5 21.5t-54.5 55t-15 69.5t22.5 68t61.5 46q1 0 3 0.5t4 0.5q22 0 44 -18t20 -38
q-23 -26 -27.5 -55.5t9 -49t39.5 -19.5q10 0 18.5 4t16.5 13t14.5 18t14 25.5t12.5 29t12 35.5t11.5 37.5t12.5 42t13 42.5q71 241 75 253q-23 -26 -58 -43.5t-63 -25t-52 -23.5t-30 -40q-15 -55 32 -65q10 -11 2 -35t-25 -28q-2 0 -7 -0.5t-8 -0.5q-63 0 -99.5 40t-25.5 95
q8 41 38 66t72.5 38.5t87.5 25t92.5 35t78.5 60.5z" />
    <glyph glyph-name="J" unicode="J" horiz-adv-x="596" 
d="M164 -295q-45 0 -76 17.5t-42.5 45t-6 60.5t28.5 62q43 67 214 107q96 351 164 574q-28 -33 -75.5 -52t-83 -34t-43.5 -44q-15 -55 30 -67q7 -4 7 -18t-10 -29.5t-23 -15.5h-10q-64 0 -101 41t-23 96q10 40 41 64.5t73 37t86.5 24t91.5 36t77 62.5q20 19 66 19
q61 0 66 -25q-108 -322 -197 -641q115 43 189 189q1 3 7 3q10 0 22.5 -9.5t8.5 -16.5q-48 -98 -107.5 -149.5t-138.5 -82.5q-9 -33 -14 -49t-15 -45t-19 -44t-22.5 -37t-28.5 -33.5t-35.5 -23.5t-45.5 -17t-55 -5zM168 -215q67 0 94 139q-97 -31 -118 -81q-9 -26 -1.5 -41.5
t25.5 -16.5z" />
    <glyph glyph-name="K" unicode="K" horiz-adv-x="862" 
d="M752 674q15 16 52 16q26 0 49.5 -8t26.5 -19q-36 -117 -102.5 -206.5t-157.5 -122.5q50 -24 68 -100q6 -23 12.5 -60t12 -64.5t15 -57t26.5 -50.5t42 -32q14 -21 -10 -56.5t-64 -35.5h-6q-36 9 -61.5 33.5t-38.5 64t-19.5 72t-12 81t-9.5 67.5q-9 46 -26.5 69t-50.5 25
q-19 -68 -32.5 -107.5t-34.5 -81t-45.5 -62.5t-61 -34.5t-85.5 -13.5q-54 -1 -93 20.5t-54 54.5t-15 68.5t22 67.5t60 48q1 0 3 0.5t4 0.5q22 0 44.5 -17t21.5 -38q-23 -26 -28 -56t9 -50t41 -20q31 1 51.5 38t43.5 113t53.5 182t49.5 168q-23 -25 -58.5 -43t-63.5 -26.5
t-51.5 -24.5t-29.5 -40q-13 -51 31 -65q5 -4 6 -16.5t-7 -27t-21 -17.5q-3 0 -7.5 -0.5t-6.5 -0.5q-63 0 -101 42t-24 96q10 40 41 65t73.5 38t87 24.5t91.5 35.5t77 60q14 20 66 20q26 0 46 -6.5t21 -17.5q-36 -98 -92 -280q27 10 51 26t41.5 31t35 38.5t27.5 39.5t22.5 43
t17.5 39t15 38.5t12 31.5z" />
    <glyph glyph-name="L" unicode="L" horiz-adv-x="610" 
d="M484 665q15 25 65 25q26 0 47 -7.5t25 -17.5q-18 -50 -83.5 -269.5t-98.5 -282.5q13 -15 41.5 -47t40.5 -45t34.5 -34t36.5 -29.5t33.5 -16t38.5 -7.5q24 0 45 8q23 -2 30.5 -43t-14.5 -63q-36 -12 -69 -12q-36 0 -72.5 15t-62 33t-58.5 54t-48 55.5t-46 60.5
q-70 -51 -153 -51q-65 0 -104.5 30t-35.5 86q2 52 46.5 80.5t105.5 28.5q63 0 110 -28q29 82 66 213.5t51 173.5q-22 -27 -57.5 -46t-64.5 -27t-54 -23.5t-31 -39.5q-14 -52 31 -65q8 -11 1 -34.5t-22 -28.5q-2 0 -7 -0.5t-8 -0.5q-63 0 -100 40.5t-25 96.5q8 40 38 64.5
t72 37t86.5 24t92 34t77.5 58.5zM195 122q-12 -17 -1.5 -34.5t39.5 -17.5q43 0 75 45q-27 27 -68 27q-34 0 -45 -20z" />
    <glyph glyph-name="M" unicode="M" horiz-adv-x="1192" 
d="M1015 -82q-31 10 -51 32.5t-29.5 50t-9 69.5t5 79.5t18 93t25.5 96.5t31 102q3 10 9.5 29t10 32t8 30.5t5 29t-1 22.5t-8.5 16.5t-19 5.5q-41 -1 -98.5 -65.5t-95.5 -145.5q-30 -89 -55 -176t-39 -139t-21 -70q-13 -19 -70 -19q-60 0 -63 28q21 64 62 211t64 225
q7 23 9.5 33.5t8 32t5.5 33t-0.5 25.5t-7.5 20.5t-18 6.5q-45 2 -111 -90t-110 -190q-22 -67 -55.5 -185t-37.5 -130q-20 -20 -68 -20q-59 0 -66 28q17 51 86 287q32 113 79 263q-23 -25 -58 -42t-63.5 -25t-52 -23.5t-29.5 -39.5q-12 -53 33 -66q7 -4 7.5 -17.5t-8 -28.5
t-21.5 -16q-3 0 -7 -0.5t-7 -0.5q-64 0 -101.5 40t-25.5 97q9 40 39 64.5t72 38t87 25.5t93.5 37t80.5 63q13 16 51 16q23 0 42.5 -7t22.5 -18q-7 -21 -20 -63t-20 -63q45 65 107 109.5t123 44.5q61 -1 83.5 -39.5t11.5 -103.5q109 144 217 143q31 0 53 -9.5t33.5 -23
t16 -36t4.5 -41.5t-5 -47.5t-9.5 -45t-12.5 -43.5t-10 -34q-9 -32 -22.5 -77.5t-22.5 -75.5t-18.5 -67.5t-12.5 -63t-1 -51t12.5 -43t30.5 -27.5q15 -20 -10 -56t-63 -36q-8 0 -12 1z" />
    <glyph glyph-name="N" unicode="N" horiz-adv-x="889" 
d="M755 694q26 0 45.5 -6.5t32.5 -15.5t21 -24.5t12 -30t3.5 -35.5t-2 -36t-6.5 -37.5t-8.5 -35t-9 -33t-7.5 -26.5q-9 -32 -22.5 -77t-22.5 -75.5t-18.5 -68t-12.5 -63.5t-1.5 -51t12.5 -42.5t30 -27.5q17 -17 -8.5 -55t-59.5 -38q-1 0 -3.5 0.5t-3.5 0.5q-25 5 -43.5 16
t-29.5 29t-18.5 38t-8 49.5t0.5 54.5t8 62.5t13 65t18 69.5t20 69.5t21 70.5q33 105 29 137q-4 28 -29 28q-55 0 -127 -88.5t-113 -202.5q-22 -70 -43 -142t-31.5 -108.5t-17.5 -52.5q-9 -22 -63 -22q-27 0 -48 8t-22 22q25 76 80.5 266t85.5 285q-23 -26 -58.5 -44
t-64 -25.5t-52.5 -23t-29 -38.5q-12 -53 33 -67q7 -4 7.5 -17.5t-8.5 -28.5t-22 -16q-2 0 -7 -0.5t-8 -0.5q-62 0 -99 41t-26 96q11 49 56.5 77.5t98.5 39t117 38t101 73.5q15 16 52 16q23 0 41.5 -7t21.5 -19l-44 -141q45 70 108 120.5t129 49.5z" />
    <glyph glyph-name="O" unicode="O" horiz-adv-x="754" 
d="M471 693q73 -3 121 -35.5t67.5 -78t23 -103t-4.5 -105.5t-22 -92q33 3 72.5 16t65.5 30q7 0 9 -10.5t-1 -22.5t-9 -16q-71 -49 -158 -59q-40 -99 -117.5 -162t-181.5 -64q-135 0 -187 89q-33 55 -27 139.5t49 137.5q6 5 18 5q24 0 48.5 -19.5t19.5 -35.5
q-25 -42 -26.5 -96.5t26.5 -97t81 -43.5q109 -1 167 154q-130 17 -212.5 105t-62.5 204q15 84 82 122t159 38zM461 611q-91 0 -105 -90q-11 -71 36 -140t135 -88q9 36 15 81.5t6 102t-21.5 95t-65.5 39.5z" />
    <glyph glyph-name="P" unicode="P" horiz-adv-x="793" 
d="M432 561q14 6 31 6q23 0 44 -9t19 -19q-41 -29 -100 -241q27 -6 52 -6q65 0 110.5 37.5t58.5 107.5q15 81 -35 127t-129 48h-9q-116 0 -187 -63.5t-28 -149.5q2 -15 -20.5 -34t-45.5 -19q-4 0 -12 2q-66 36 -66 112q0 64 37 112t96 73t119 37t118 12q63 -1 119.5 -18
t100.5 -49t65 -83.5t9 -115.5q-17 -97 -89 -157.5t-181 -60.5q-52 0 -104 14q-51 -190 -59 -210q-12 -17 -60 -17q-28 0 -46.5 8t-17.5 23q14 33 47 164.5t73.5 235t89.5 133.5z" />
    <glyph glyph-name="Q" unicode="Q" horiz-adv-x="699" 
d="M623 -151q-114 26 -244 190q-69 -47 -144 -47q-78 0 -120 29.5t-41 82.5q3 57 48 85.5t106 28.5q85 -3 158 -58q129 137 137 313q2 67 -29.5 103.5t-91.5 36.5q-71 0 -116.5 -38.5t-53.5 -98.5q-14 -104 58 -147q9 -10 2 -23t-25.5 -24.5t-34.5 -11.5q-9 0 -16 4
q-63 26 -92 79t-24 119q8 95 90.5 159t223.5 63q115 -1 183 -61t62 -157q-10 -197 -192 -379q8 -8 27 -26.5t27.5 -27t25 -23t26.5 -22t23 -17t25 -14.5t23 -8q19 -7 37 -7q17 0 33 6q22 -4 28 -45t-16 -62q-27 -9 -53 -9t-50 7zM239 68q39 0 85 36q-40 38 -79 38
q-21 0 -34.5 -11.5t-15.5 -26.5q-2 -14 9.5 -25t34.5 -11z" />
    <glyph glyph-name="R" unicode="R" horiz-adv-x="790" 
d="M677 -104h-5q-28 3 -52 15.5t-42.5 38t-31.5 46t-26.5 59.5t-18.5 56t-16 57q-12 55 -39 75h-50q-51 -172 -70 -228q-12 -17 -60 -17q-27 0 -46.5 8t-17.5 23q13 30 60.5 193t62.5 201q38 101 82 135q15 11 42 11q25 0 45.5 -8.5t16.5 -18.5q-42 -44 -95 -227
q88 0 149.5 39t68.5 121q4 62 -44.5 99t-126.5 38q-65 0 -120 -25t-78 -65q-53 -54 -21 -122q2 -15 -20.5 -34.5t-45.5 -19.5q-3 0 -11 2q-33 17 -51.5 50t-16.5 69q6 109 115.5 168.5t258.5 58.5q129 -1 213 -61t77 -157q-12 -163 -200 -216q24 -21 39 -83q10 -34 19 -57.5
t24.5 -52t36.5 -46t47 -22.5q13 -15 11 -38t-20.5 -44t-42.5 -21z" />
    <glyph glyph-name="S" unicode="S" horiz-adv-x="603" 
d="M588 517q-9 -23 -51 -23q-20 0 -36.5 7t-19.5 19q9 92 -68 94q-27 -1 -48.5 -20t-24.5 -62q-3 -34 17 -68t50 -64t60 -62t50 -73.5t17 -86.5q-6 -92 -72.5 -140t-175.5 -47q-71 1 -118.5 27t-66 68t-19 90.5t16.5 98.5q12 14 43 14q24 0 44 -8.5t21 -22.5q-21 -84 7 -135
t82 -53q48 0 75 27t30 76q2 37 -18.5 73.5t-51.5 66.5t-61 62t-49.5 74.5t-14.5 89.5q8 74 62 115.5t146 40.5q96 -2 142 -50t32 -128z" />
    <glyph glyph-name="T" unicode="T" horiz-adv-x="716" 
d="M506 224q-51 -190 -59 -210q-12 -17 -60 -17q-64 0 -64 31q11 28 27 91t32 123t37.5 119t53.5 95.5t70 36.5q23 0 43 -8.5t20 -18.5v-1q-41 -29 -100 -241zM533 550q-36 4 -66.5 8t-45.5 6t-26.5 3.5t-17 2t-9.5 0.5q-101 0 -101 -66q0 -20 12 -37t32 -21q9 -3 9 -24
q0 -29 -12.5 -38t-40.5 -9q-57 0 -93 35t-36 92q0 46 21.5 80t57 52t74.5 26.5t81 8.5q44 0 128 -12.5t124 -12.5q66 0 99 22t33 61q0 9 -4 33q0 12 15.5 20.5t34.5 8.5q18 0 30.5 -20t17 -40.5t4.5 -36.5q0 -68 -57 -111.5t-143 -43.5q-32 0 -121 13z" />
    <glyph glyph-name="U" unicode="U" horiz-adv-x="918" 
d="M464 673q19 17 63 17q27 0 47 -7t21 -19q-78 -238 -138 -444q-43 -148 33 -148q48 0 96.5 53t72.5 130q20 64 62.5 208t57.5 194q17 15 51 15q30 0 54 -11t25 -27q-50 -135 -138 -459q-25 -101 13 -102q42 0 81 45.5t63 95.5q2 3 6 3q10 0 22.5 -9.5t9.5 -15.5
q-35 -75 -95.5 -137.5t-132.5 -62.5q-41 0 -67 28.5t-25 79.5q-33 -47 -86 -78t-107 -31q-193 0 -123 265q0 1 97 314q-22 -26 -57.5 -43.5t-63.5 -25t-52.5 -23t-29.5 -39.5q-12 -51 31 -65q12 -7 3.5 -34t-25.5 -28q-3 0 -8 -0.5t-7 -0.5q-63 0 -100.5 40.5t-23.5 95.5
q10 40 40.5 64.5t72.5 38t86.5 25.5t92 36.5t78.5 61.5z" />
    <glyph glyph-name="V" unicode="V" horiz-adv-x="877" 
d="M810 819q75 -78 80 -201q3 -80 -30 -160.5t-93 -143.5q-31 -31 -100.5 -89t-118.5 -109t-75 -104q-16 -19 -58 -19q-57 0 -61 34q14 86 23.5 257t36.5 300q-20 -23 -54.5 -41t-63.5 -27t-54.5 -25.5t-31.5 -39.5q-14 -55 32 -67q7 -4 7.5 -17.5t-8.5 -29t-22 -16.5
q-3 0 -8 -0.5t-7 -0.5q-61 0 -100.5 40.5t-25.5 98.5q10 38 38.5 62t68 36.5t80.5 23.5t85.5 31.5t74.5 51.5q23 24 67 24q23 0 40 -7t19 -17q-16 -50 -27.5 -118t-15.5 -110t-10.5 -134t-8.5 -115q26 35 57 68t73.5 74t63.5 62q90 90 87 219q0 81 -52 145q-4 21 24 43
t56 22q8 0 12 -1z" />
    <glyph glyph-name="W" unicode="W" horiz-adv-x="1196" 
d="M1174 732q3 1 9 1q32 0 58 -34.5t12 -54.5q-28 -17 -53.5 -56t-48.5 -101t-37.5 -109.5t-35.5 -123.5q-36 -128 -101.5 -195.5t-179.5 -67.5q-71 0 -106 39.5t-36 95.5q-33 -65 -85 -100t-116 -35q-195 1 -124 271q15 53 52 169t44 139q-22 -26 -57.5 -43.5t-64 -25
t-53 -23t-30.5 -39.5q-12 -52 33 -66q11 -6 3 -32.5t-24 -28.5h-13q-67 0 -102 38t-26 95q7 38 36.5 63t72.5 39t88.5 26.5t93.5 37t78 59.5q16 19 66 19q27 0 47 -7.5t19 -19.5q-90 -282 -137 -442q-19 -54 -13.5 -101.5t46.5 -46.5q38 0 81.5 55t69.5 143q16 55 40 129.5
t51 156.5t37 113q9 17 50 17q29 0 53.5 -10.5t25.5 -28.5q-88 -260 -141 -457q-15 -44 -4 -81.5t52 -37.5t77.5 47t57.5 119q75 254 94 306q52 141 116 178q12 7 25 11z" />
    <glyph glyph-name="X" unicode="X" horiz-adv-x="861" 
d="M856 713q2 1 8 1q28 0 53 -31.5t11 -55.5q-45 -27 -102.5 -92.5t-98 -123.5t-98.5 -148q25 -75 48.5 -126.5t65 -103.5t93.5 -76q13 -16 10 -40t-20 -45.5t-36 -21.5q-38 8 -71.5 30t-59 50t-49.5 68t-40.5 75.5t-33.5 80.5q-110 -163 -263 -163q-81 1 -122 43.5
t-39 101.5q1 36 23.5 69.5t58.5 42.5q3 1 11 1q24 0 45 -18.5t17 -36.5q-28 -25 -28 -68q-1 -25 11.5 -40.5t40.5 -15.5q37 0 91.5 58t108.5 152q-40 155 -23 301q-32 -38 -82.5 -58.5t-85.5 -35.5t-43 -43q-15 -52 30 -67q7 -2 8 -16t-7 -28.5t-21 -17.5q-6 -1 -18 -1
q-61 0 -98 38t-25 96q8 38 36.5 62.5t69 37.5t83.5 24.5t91 34t80 55.5q18 22 65 22q54 0 60 -24q-36 -129 -17 -258q35 62 62 104t62.5 91t70.5 78.5t67 37.5z" />
    <glyph glyph-name="Y" unicode="Y" horiz-adv-x="901" 
d="M911 213q1 4 7 4q10 0 22.5 -9.5t8.5 -16.5q-52 -102 -110.5 -159t-139.5 -89q-11 -47 -20.5 -77t-27.5 -64t-40.5 -53t-58 -32t-81.5 -13q-57 0 -88.5 31t-24.5 79q5 30 21 54t35.5 39.5t51.5 29.5t55.5 21t60.5 17q6 18 20.5 67t18.5 61q-72 -96 -167 -96
q-93 0 -122.5 70.5t4.5 194.5q6 24 91 298q-22 -26 -57.5 -43.5t-64 -25t-52.5 -23t-30 -39.5q-12 -52 30 -65q8 -3 8.5 -18t-8 -29t-21.5 -15h-12q-65 0 -102 39t-25 94q9 41 39.5 66t73 38t87.5 25t93 37t79 63q23 16 62 16q27 0 48 -8t20 -18q-92 -284 -133 -428
q-43 -149 29 -150q50 0 97.5 51t77.5 134q72 246 116 389q13 14 48 14q30 0 56 -10t27 -24q-28 -77 -92.5 -289t-101.5 -341q118 49 192 203zM569 -90q-34 -12 -64 -35t-39 -44q-8 -21 -3 -34t22 -13q54 2 84 126z" />
    <glyph glyph-name="Z" unicode="Z" horiz-adv-x="713" 
d="M643 681q19 8 41 8q32 0 54 -18t23 -41q-54 -73 -156.5 -257.5t-168.5 -269.5q9 -9 31.5 -32t33 -33t30 -28t32.5 -26.5t30.5 -18.5t33.5 -14t32 -4q22 0 46 9q23 -6 29 -46t-16 -59q-33 -11 -70 -11q-36 0 -72 13t-64 31t-60 48.5t-52 53t-48 56.5q-37 -28 -69.5 -39
t-79.5 -11q-70 0 -113 27.5t-40 84.5q3 55 48.5 84.5t103.5 29.5q81 -1 153 -52q38 53 118.5 208.5t127.5 225.5q-30 -15 -68 -15q-32 0 -93 14t-88 14q-24 0 -42 -7q-30 -10 -42 -33t-2 -42t36 -19q18 0 47 15q6 2 8 2q15 0 27 -23.5t3 -32.5q-47 -46 -113 -46
q-42 0 -77 20t-50 54q-23 55 6.5 114.5t107.5 78.5q32 7 65 7q45 0 120.5 -19t112.5 -19q44 0 84 18zM221 141q-29 0 -43.5 -18.5t-3.5 -36.5t45 -18q44 2 78 40q-31 33 -76 33z" />
    <glyph glyph-name="bracketleft" unicode="[" horiz-adv-x="492" 
d="M237 -164h-135q-37 0 -49.5 16t-0.5 58l197 721q10 35 25.5 45t44.5 10h142q13 0 14 -22.5t-8.5 -45t-22.5 -22.5h-82l-185 -670h77q12 0 12.5 -22.5t-8.5 -45t-21 -22.5z" />
    <glyph glyph-name="backslash" unicode="\" horiz-adv-x="603" 
d="M443 3q-42 55 -179.5 301t-189.5 310q-14 16 11.5 34t55.5 18q23 0 32 -12q53 -67 195 -320.5t176 -298.5q13 -17 -11 -30t-55 -13q-27 0 -35 11z" />
    <glyph glyph-name="bracketright" unicode="]" horiz-adv-x="491" 
d="M245 687h136q37 0 49 -16t1 -58l-187 -722q-10 -35 -25.5 -44.5t-44.5 -9.5h-142q-13 0 -14.5 22.5t8 44.5t22.5 22h82l176 671h-76q-12 0 -13 22.5t7.5 45t20.5 22.5z" />
    <glyph glyph-name="asciicircum" unicode="^" horiz-adv-x="500" 
d="M315 645l102 -175q2 -18 -16.5 -35.5t-40.5 -17.5q-12 0 -22 7l-80 132l-117 -130q-11 -9 -25 -9q-24 0 -42.5 19t-6.5 36l153 174q18 20 49 20q33 0 46 -21z" />
    <glyph glyph-name="underscore" unicode="_" horiz-adv-x="483" 
d="M370 -77h-247q-16 0 -21.5 19.5t3.5 38.5t27 19l242 -1q17 0 23.5 -19t-1.5 -38t-26 -19z" />
    <glyph glyph-name="grave" unicode="`" horiz-adv-x="249" 
d="M144 849q5 -8 28 -40t34 -49q11 -15 -3 -25t-35 -10q-22 0 -31 10l-82 96q-14 16 17 28q14 5 32 5q29 0 40 -15z" />
    <glyph glyph-name="a" unicode="a" horiz-adv-x="523" 
d="M301 428q121 0 185 -64q6 -13 -13.5 -38t-33.5 -25q-61 44 -131 44q-13 0 -19 -1q-44 -4 -83 -38.5t-60 -86.5q-21 -46 -24 -85.5t12 -52.5q8 -8 19 -8q35 0 79.5 72.5t67.5 148.5q10 10 33 10q25 0 51 -10.5t30 -21.5q-28 -100 -33 -124q-17 -75 17 -75q27 1 68.5 42.5
t65.5 97.5q1 4 7 4q10 0 23 -9.5t9 -15.5q-45 -90 -105 -144t-129 -54q-37 0 -54.5 32.5t-9.5 87.5q-35 -59 -72 -90.5t-95 -31.5q-57 0 -91.5 40t-21.5 122q16 111 106.5 192.5t201.5 81.5z" />
    <glyph glyph-name="b" unicode="b" horiz-adv-x="513" 
d="M163 -8q-130 1 -144 133q-32 146 119 554q13 9 45 9q30 0 56.5 -8.5t28.5 -22.5q-38 -109 -86 -274q56 38 120 38q8 0 26 -2q65 -11 90.5 -66t12.5 -123.5t-55 -128.5q98 0 147 113q1 4 7 4q10 0 23 -10t9 -16q-67 -142 -190 -142q-16 0 -42 4q-71 -62 -167 -62zM163 70
q5 -1 14 -1q33 0 59 31q-11 21 1 42.5t34 21.5h3q10 24 18 52t11 58t-7.5 51t-35.5 23q-48 0 -101 -47q-83 -216 4 -231z" />
    <glyph glyph-name="c" unicode="c" horiz-adv-x="426" 
d="M264 425q64 -1 95.5 -29t29.5 -64t-26 -68q-18 -21 -66 -21q-47 0 -51 21q7 9 13 21.5t9.5 25.5t0 22.5t-15.5 10.5q-48 0 -78 -52.5t-35 -106.5q-4 -54 24 -84t78 -30q58 0 109.5 35t84.5 108q1 4 7 4q9 0 22 -10t10 -16q-50 -103 -120.5 -151.5t-179.5 -48.5
q-78 4 -126 58t-46 130q4 99 78.5 172.5t182.5 72.5z" />
    <glyph glyph-name="d" unicode="d" horiz-adv-x="529" 
d="M411 678q9 10 42 10q31 0 58 -8.5t28 -22.5q-7 -22 -26 -80t-33.5 -104.5t-33.5 -110t-30 -110.5t-18.5 -90.5t-3 -66.5t20.5 -22q25 1 62 43t62 98q1 4 7 4q10 0 22.5 -9.5t8.5 -16.5q-43 -88 -101 -142.5t-124 -55.5q-41 0 -63 32t-16 88q-61 -121 -163 -123
q-76 -1 -103.5 56.5t-5.5 136.5t76 141q84 99 216 99q20 0 38 -3q17 65 80 257zM307 340q-5 1 -15 1q-77 0 -127 -83q-17 -27 -29.5 -64.5t-14.5 -71.5t18 -45q5 -4 14 -4q22 0 50 30t53 83q22 44 51 154z" />
    <glyph glyph-name="e" unicode="e" horiz-adv-x="456" 
d="M266 424q57 -1 92.5 -29t39 -65t-13.5 -77q-22 -44 -68.5 -68.5t-108.5 -24.5q-35 0 -67 7q-1 -44 27 -69t81 -28q2 0 6.5 -0.5t6.5 -0.5q55 0 112 34.5t93 110.5q1 4 7 4q10 0 22.5 -9.5t9.5 -16.5q-49 -100 -119.5 -151t-176.5 -51q-114 3 -165 65t-36 151
q16 100 86.5 159t171.5 59zM253 343q-40 0 -68.5 -38t-38.5 -82q6 -1 18 -1q41 0 69 18.5t39 46.5q10 20 5.5 37.5t-24.5 18.5z" />
    <glyph glyph-name="f" unicode="f" horiz-adv-x="372" 
d="M163 610q59 82 139 82q60 0 94.5 -49t15.5 -129q-19 -91 -96.5 -167.5t-173.5 -113.5q-11 -38 -26 -97q64 -23 113 -23q108 0 152 101q1 3 7 3q9 0 21.5 -9t10.5 -15q-57 -130 -189 -130q-13 0 -37 2q50 -63 51.5 -146.5t-40.5 -140.5q-52 -73 -149 -73q-70 1 -95.5 42
t-19.5 121q7 139 80 391t142 351zM161 314q52 34 94.5 99t57.5 129q6 28 1.5 44t-17.5 16q-18 0 -41 -37.5t-43.5 -94.5t-32 -92.5t-19.5 -63.5zM95 57q-36 -139 -40 -218q-1 -50 24 -50q11 0 23.5 14t21.5 38q20 45 14 112.5t-43 103.5z" />
    <glyph glyph-name="g" unicode="g" horiz-adv-x="517" 
d="M302 427q118 0 189 -63q5 -12 -14.5 -37.5t-33.5 -25.5q-57 44 -149 44q-45 -3 -83.5 -37t-63.5 -88q-22 -49 -24.5 -89t13.5 -52q8 -6 17 -6q24 0 49.5 25t46 65t33.5 71t23 61q7 9 30 9q26 0 53.5 -10t30.5 -22q-16 -53 -37.5 -137.5t-32.5 -123.5q53 22 95 70t84 133
q2 3 6 3q11 0 23 -9.5t8 -16.5q-54 -107 -105.5 -162t-129.5 -87q-37 -129 -80 -183.5t-135 -54.5h-3q-55 0 -87 29t-26 79q4 30 20 54t35 39.5t52 30t56.5 21.5t62.5 18q7 19 43 128q-67 -111 -163 -111q-68 0 -96.5 50t-15 121t60.5 133q44 61 109 96t139 35zM207 -94
q-77 -28 -96 -72q-10 -22 -3.5 -35t22.5 -13t33.5 15.5t27.5 45.5q5 15 16 59z" />
    <glyph glyph-name="h" unicode="h" horiz-adv-x="503" 
d="M148 679q13 10 44 10q32 0 59.5 -10t25.5 -23q-38 -100 -97 -316q89 87 159 87q61 0 80.5 -38.5t-0.5 -98.5q-6 -22 -19 -62t-19.5 -62.5t-11.5 -47.5t-0.5 -36.5t18.5 -10.5q27 1 64.5 44t60.5 99q1 4 7 4q10 0 23 -10t9 -16q-97 -194 -218 -201h-11q-102 0 -87 110
q5 34 47 178q18 54 -18 54q-47 0 -106 -75q-39 -144 -63 -248q-2 -8 -25.5 -13.5t-50.5 -5.5q-29 0 -47 7t-14 21q99 393 190 660z" />
    <glyph glyph-name="i" unicode="i" horiz-adv-x="260" 
d="M74 -8q-118 0 -88 128q20 86 81 296q10 12 46 12q27 0 51 -7.5t30 -20.5q-71 -247 -75 -267q-6 -29 -3 -46t16 -16q31 0 71.5 42t66.5 100q1 4 7 4q10 0 22.5 -9.5t9.5 -16.5q-101 -199 -235 -199zM157 483q-29 0 -46.5 21t-12.5 49q5 31 28 51t56 20q31 -1 48.5 -21
t12.5 -50q-5 -31 -28 -50.5t-58 -19.5z" />
    <glyph glyph-name="j" unicode="j" horiz-adv-x="256" 
d="M-156 -296q-55 -1 -84.5 26.5t-28 67t31.5 75.5q22 35 67.5 57.5t117.5 43.5q10 40 51.5 199t62.5 242q9 12 44 12q29 0 55 -8t28 -20q-21 -67 -109 -389q110 48 186 204q2 3 6 3q9 0 22 -10t10 -15q-52 -104 -107.5 -160.5t-134.5 -89.5q-36 -131 -81 -184t-137 -54z
M-140 -214q15 -1 33.5 15t28.5 46q9 27 17 59q-35 -14 -61.5 -33.5t-35.5 -38.5q-9 -22 -3.5 -35t21.5 -13zM154 483q-29 0 -46.5 21t-12.5 49q5 31 28 51t56 20q32 -1 49 -21t12 -50q-5 -31 -28 -50.5t-58 -19.5z" />
    <glyph glyph-name="k" unicode="k" horiz-adv-x="482" 
d="M493 214q1 3 6 3q10 0 22.5 -9.5t9.5 -15.5q-40 -82 -101.5 -141.5t-136.5 -59.5q-136 0 -118 208q89 30 118 82q21 35 -6 49q-3 2 -7 3q-4 2 -14 2q-33 0 -71 -35t-50 -80q-40 -147 -53 -209q-10 -20 -74 -20q-26 0 -44 6.5t-17 19.5q78 309 187 661q7 10 42 10
q31 0 57.5 -8.5t27.5 -23.5q-80 -267 -92 -312q35 40 79.5 61t84.5 21q37 0 60 -18q25 -20 28 -53.5t-12.5 -67.5t-52.5 -64.5t-87 -43.5q-2 -108 55 -109q29 0 54.5 12.5t45 36t32.5 45t27 50.5z" />
    <glyph glyph-name="l" unicode="l" horiz-adv-x="361" 
d="M286 691q62 0 97 -52t13 -136q-24 -91 -91.5 -161t-170.5 -105q-36 -162 57 -168q58 0 104 42t76 103q1 3 6 3q9 0 22 -9.5t10 -15.5q-48 -96 -103 -148.5t-139 -52.5q-18 0 -27 1q-69 7 -101.5 54.5t-30 121t21.5 168.5q12 52 31 105.5t49.5 113.5t76.5 98t99 38z
M283 601q-17 1 -39 -36t-42 -91.5t-32.5 -93t-19.5 -65.5q37 22 70 65t52 89q14 34 21.5 64.5t5 49t-15.5 18.5z" />
    <glyph glyph-name="m" unicode="m" horiz-adv-x="735" 
d="M557 -9q-115 0 -90 119q3 16 10.5 46.5t17.5 68.5t14 55q7 20 3 37.5t-24 16.5q-21 -1 -49 -25.5t-46 -55.5q-3 -13 -59 -242q-9 -18 -68 -18q-58 0 -64 22q22 96 66 271q5 17 1 32t-21 14q-42 -2 -97 -80q-31 -109 -61 -241q-10 -18 -66 -18q-28 0 -48 7t-19 21
q61 229 109 395q12 12 47 12q27 0 50 -8t27 -21q-4 -11 -10.5 -34t-9.5 -31q33 37 76.5 65t82.5 28t59 -23.5t15 -64.5q76 88 159 88q117 0 84 -132q-3 -13 -9.5 -35t-12.5 -41.5t-12.5 -42t-10 -41t-4 -33.5t4.5 -23t16 -8q25 0 62.5 41.5t64.5 101.5q1 4 7 4
q10 0 22.5 -9.5t8.5 -16.5q-99 -201 -226 -201z" />
    <glyph glyph-name="n" unicode="n" 
d="M337 427q56 -1 74.5 -37.5t3.5 -99.5q-5 -20 -21 -72t-22 -77q-15 -70 14 -70t65.5 42t62.5 101q1 4 7 4q10 0 22.5 -9.5t9.5 -16.5q-99 -201 -225 -201q-117 0 -90 119q4 19 21 90.5t19 78.5q13 53 -19 53h-3q-43 -3 -102 -73q-20 -68 -64 -249q-9 -17 -66 -17
q-61 0 -67 24q32 131 110 399q15 13 49 13q60 0 74 -29q-16 -56 -19 -66q94 94 166 93z" />
    <glyph glyph-name="o" unicode="o" horiz-adv-x="511" 
d="M267 427q86 0 127 -51.5t34 -125.5t-52 -148q2 0 5.5 -0.5t5.5 -0.5q85 0 134 113q1 3 7 3q10 0 23 -9t9 -16q-67 -140 -184 -140q-15 0 -43 4q-72 -66 -173 -66q-87 0 -132.5 51.5t-21.5 161.5q22 103 95 163t166 61zM143 204q-31 -134 37 -134q30 0 54 27
q-12 21 -0.5 43t34.5 22h3q28 65 26.5 124.5t-44.5 59.5q-41 0 -70 -46t-40 -96z" />
    <glyph glyph-name="p" unicode="p" horiz-adv-x="515" 
d="M336 424q51 -2 76.5 -39t24.5 -88t-17.5 -104.5t-43.5 -90.5q2 0 6 -0.5t7 -0.5q86 0 136 113q1 3 7 3q10 0 22.5 -9.5t9.5 -15.5q-65 -140 -183 -140q-23 0 -40 4q-63 -64 -147 -64q-60 0 -105 36q-19 -74 -74 -305q-10 -16 -61 -16q-27 0 -47 6t-21 17q90 367 179 685
q5 13 47 13q67 0 77 -30l-16 -44q75 70 163 70zM262 334q-51 0 -105 -52q-10 -34 -26 -94t-23 -85q26 -31 69 -31q35 0 57 21q-15 20 -3.5 44t29.5 24q4 0 8 -2q20 43 27.5 82t-0.5 65t-33 28z" />
    <glyph glyph-name="q" unicode="q" horiz-adv-x="517" 
d="M285 428q55 0 111.5 -18.5t90.5 -54.5q4 -16 -15.5 -40t-34.5 -22q-60 54 -141 54q-103 -4 -158 -150q-14 -39 -17 -68t4.5 -42.5t21.5 -13.5q23 0 48 26t45 64.5t33.5 71t21.5 58.5q5 11 31 11q27 0 54.5 -10.5t28.5 -22.5q-65 -226 -80 -282q9 9 60 54.5t83 83.5t55 87
q1 3 7 3q10 0 22.5 -9t9.5 -16q-10 -22 -23 -43.5t-23 -35.5t-27.5 -34.5t-24 -28t-26.5 -28t-23 -23.5q-37 -40 -54.5 -60t-41 -60t-35.5 -83l-15 -71q-11 -18 -63 -18q-27 0 -47 6t-21 17q7 28 22 93.5t23 98t26 83t41 93.5q-28 -46 -68.5 -77t-86.5 -31q-56 0 -86.5 43.5
t-18.5 113.5q17 111 99.5 196t191.5 85z" />
    <glyph glyph-name="r" unicode="r" horiz-adv-x="402" 
d="M33 162q-3 -5 -10 -5q-11 0 -22 9t-6 17q60 119 86 215q-26 41 -21.5 70.5t24 46.5t43.5 17q26 0 39 -21.5t3 -64.5q12 -11 33 -29.5t35.5 -31t30 -30t22 -32.5t4.5 -33t-15 -35q-66 -87 -72 -136q-7 -47 35 -47q53 0 98 42.5t73 99.5q1 3 6 3q10 0 22.5 -9.5t9.5 -15.5
q-94 -200 -258 -200q-60 0 -91 29t-30 78q0 29 14 65t28 60t39 62q5 7 6.5 14t-0.5 14.5t-3.5 12.5t-8 13t-9 11t-10.5 11l-9 9q-28 -103 -86 -209z" />
    <glyph glyph-name="s" unicode="s" horiz-adv-x="465" 
d="M168 -12q-46 0 -83 27.5t-43 77.5q5 16 22.5 26.5t34.5 10.5q11 0 16 -4q-1 -24 13.5 -40.5t36.5 -16.5q24 0 38 18q-19 18 -12.5 43.5t29.5 27.5q-1 41 -20 119t-23 105q-64 -64 -144 -220q-3 -5 -9 -5q-11 0 -22 9t-7 17q77 162 166 247q43 43 97 43q38 0 51.5 -22.5
t-11.5 -60.5q6 -31 15.5 -67.5t16.5 -59.5t13.5 -54.5t6 -52.5t-5.5 -55q81 4 131 113q1 3 6 3q9 0 22 -9.5t10 -15.5q-69 -141 -192 -141q-48 -63 -153 -63z" />
    <glyph glyph-name="t" unicode="t" horiz-adv-x="321" 
d="M142 -9q-44 0 -74 14t-43.5 43t-18.5 60.5t1 79t14 86t22 93.5h-28q-14 8 -8.5 39.5t20.5 35.5h37q46 148 74 226q9 12 45 12q30 0 56 -9t28 -24q-30 -87 -65 -205h75q15 -13 10 -41t-18 -34h-87q-31 -105 -39 -143q-36 -151 23 -155q39 -1 85 35.5t80 109.5q1 4 7 4
q10 0 22.5 -10t8.5 -17q-90 -199 -227 -200z" />
    <glyph glyph-name="u" unicode="u" 
d="M320 414q9 13 47 13q66 0 78 -28q-4 -17 -13.5 -49t-17.5 -59.5t-17 -61.5t-14.5 -60.5t-8 -49.5t0.5 -35.5t13 -12.5q25 0 63 42t64 100q3 4 8 4q10 0 22 -9t8 -16q-103 -201 -219 -199q-40 1 -57.5 37.5t-5.5 85.5q-37 -61 -81.5 -93t-108.5 -32t-84.5 40t-7.5 100
q11 57 43 166t34 116q9 15 50 15q28 0 50.5 -7.5t23.5 -20.5q-3 -10 -24 -88.5t-31 -122.5q-20 -82 -15 -100q4 -15 20 -15q28 1 64.5 43t56.5 98q30 96 59 199z" />
    <glyph glyph-name="v" unicode="v" horiz-adv-x="492" 
d="M69 411q13 16 56 16q25 0 45 -7.5t24 -21.5q-7 -25 -23.5 -78.5t-26.5 -89t-19 -75t-5.5 -60.5t18.5 -22q29 0 55 26q-13 22 -1.5 43t33.5 21q9 0 13 -2q30 52 51 122.5t24 129.5q11 15 56 15q62 0 70 -29q-14 -180 -113 -296q16 -3 33 -3q89 0 143 113q1 4 8 4
q10 0 22 -9t8 -16q-71 -142 -193 -142q-24 0 -68 8q-81 -67 -181 -67q-64 1 -89 34t-15 106q5 34 14.5 74t17 66.5t22.5 74t21 65.5z" />
    <glyph glyph-name="w" unicode="w" horiz-adv-x="738" 
d="M357 -8q-45 0 -72 29t-21 84q-72 -113 -185 -113q-65 1 -83 39t-5 108q13 69 76 271q17 17 56 17q28 0 49.5 -9t20.5 -23q-57 -188 -68 -239q-9 -34 -7 -57.5t22 -24.5q36 0 68 43t49 88q35 98 67 205q12 17 55 17q27 0 47.5 -8t22.5 -22q-57 -161 -69 -214
q-28 -110 7 -110q27 0 52 28q-12 22 -1 42t32 20q7 0 14 -3q28 46 51 119.5t24 132.5q8 16 56 16q64 0 70 -28q-2 -76 -35 -161t-77 -136q17 -3 33 -3q89 0 143 114q1 3 7 3q10 0 22 -9.5t9 -16.5q-69 -141 -193 -141q-33 0 -68 8q-67 -66 -169 -66z" />
    <glyph glyph-name="x" unicode="x" horiz-adv-x="526" 
d="M536 213q2 3 7 3q9 0 21.5 -9.5t9.5 -14.5q-38 -79 -97 -140t-130 -61q-25 0 -44 9t-34 28.5t-23.5 34.5t-20.5 42l-81 -97q-17 -18 -69 -18q-53 0 -57 15q-1 4 4 9l158 188l-27 77q-14 39 -27 39q-7 0 -14 -11q-6 -10 -17 -30t-28.5 -53t-34.5 -63q-2 -3 -7 -3
q-11 0 -22.5 8.5t-7.5 16.5q15 28 40.5 80t40.5 80t39 53.5t49 28.5q6 1 17 1q21 0 35.5 -7t27 -28.5t18 -35.5t19.5 -53l78 95q15 18 60 18q51 0 63 -15q4 -5 0 -9l-158 -190l10 -30t13 -34q27 -66 53 -66h2q32 3 67 39.5t67 102.5z" />
    <glyph glyph-name="y" unicode="y" 
d="M103 -296h-3q-55 0 -87.5 29t-25.5 79q4 30 19.5 54t34.5 39.5t51.5 30t56.5 21.5t63 18q17 44 41 124q-73 -107 -177 -107q-66 2 -84.5 43t-2.5 104q12 50 39 142.5t37 131.5q10 14 51 14q27 0 48.5 -7t23.5 -20q-39 -147 -63 -247q-20 -79 12 -79h2q28 2 62 44.5
t56 98.5q30 79 61 197q11 14 46 14q28 0 52 -8.5t27 -21.5q-1 -4 -107 -387q54 23 96 71t83 132q1 3 7 3q10 0 22.5 -9t8.5 -16q-53 -106 -105.5 -161.5t-129.5 -88.5q-41 -139 -83.5 -188.5t-131.5 -49.5zM116 -214h6q36 8 56 61q4 11 10 32.5t7 26.5q-59 -23 -86 -56
q-12 -14 -15.5 -29t2.5 -25t20 -10z" />
    <glyph glyph-name="z" unicode="z" horiz-adv-x="482" 
d="M170 436q30 -44 99 -44q28 0 48 5q24 7 45 7q41 0 60 -22.5t2 -47.5q-101 -155 -194 -250q11 -1 42 -9t51 -8h10q91 6 159 147q2 3 6 3q9 0 21.5 -9.5t10.5 -15.5q-40 -86 -104 -147.5t-144 -61.5q-29 0 -66.5 11.5t-60.5 11.5h-11q-38 -27 -70 -27t-47.5 23t-1.5 51
t56 41q128 129 183 220q-14 -2 -22 -2q-33 0 -66.5 15.5t-51.5 41.5q-30 -93 -91 -207q-3 -5 -10 -5q-10 0 -21.5 9t-7.5 17q68 137 94 225q-29 53 -11 87t53 34q25 0 38 -23.5t2 -69.5z" />
    <glyph glyph-name="braceleft" unicode="{" horiz-adv-x="476" 
d="M300 -146q-32 -16 -83 -16q-92 0 -107 59q-17 60 2 144q8 37 40 138q6 20 -9 32.5t-42 14.5q-14 1 -16.5 19t5 35.5t19.5 18.5q66 2 81 39q11 24 33 135t37 144q34 75 127 75q40 0 72 -14q13 -8 12 -25.5t-11.5 -34t-21.5 -15.5q-5 1 -15 1q-22 0 -36.5 -11.5
t-25.5 -38.5q-10 -24 -27.5 -120t-28.5 -121q-10 -23 -30 -39t-41 -17q55 -28 35 -96q-4 -16 -17.5 -57.5t-18.5 -64.5q-22 -88 7 -110q10 -7 26 -7q11 0 29 5q18 0 19.5 -31.5t-14.5 -41.5z" />
    <glyph glyph-name="bar" unicode="|" horiz-adv-x="477" 
d="M404 669l-232 -938q-8 -26 -64 -26q-25 0 -40.5 8t-11.5 23l234 940q6 24 55 24q26 0 44.5 -8.5t14.5 -22.5z" />
    <glyph glyph-name="braceright" unicode="}" horiz-adv-x="503" 
d="M49 -154q-13 8 -12 25.5t11.5 34t21.5 15.5q6 -1 16 -1q42 0 61 50q10 24 27.5 120t28.5 121q10 23 30.5 39t41.5 17q-55 27 -36 96q5 18 18.5 59t18.5 63q20 87 -8 110q-10 7 -26 7q-11 0 -29 -5q-18 0 -19 31.5t14 41.5q32 16 83 16q92 0 108 -59q16 -61 -3 -145
q-7 -30 -40 -138q-6 -19 9.5 -31.5t41.5 -14.5q14 -1 17 -19t-5 -35.5t-20 -18.5q-66 -2 -81 -39q-10 -23 -32 -134t-38 -146q-17 -36 -51 -55.5t-76 -19.5q-37 0 -72 15z" />
    <glyph glyph-name="asciitilde" unicode="~" horiz-adv-x="521" 
d="M333 237q-29 0 -68 22t-58 22q-35 0 -60 -34q-3 -3 -7 -3q-13 0 -28.5 15t-10.5 27q11 28 39.5 52t66.5 25q30 0 68 -22t58 -22q35 0 60 34q3 3 8 3q12 0 26.5 -14.5t9.5 -26.5q-12 -28 -39 -52.5t-65 -25.5z" />
    <glyph glyph-name="exclamdown" unicode="&#xa1;" horiz-adv-x="369" 
d="M251 408q26 0 43 -18t15 -44q-2 -25 -21.5 -43t-45.5 -18q-27 0 -42.5 18t-13.5 43q3 26 21.5 44t43.5 18zM262 192q-11 -39 -59.5 -221.5t-66.5 -241.5q-7 -24 -51 -24q-30 0 -55 11t-20 24q25 71 74.5 229t73.5 227q9 23 48 23q23 0 41 -8t15 -19z" />
    <glyph glyph-name="cent" unicode="&#xa2;" horiz-adv-x="530" 
d="M476 188q-88 -75 -189 -80q-6 -23 -14.5 -61t-10.5 -45q-4 -18 -38 -18q-17 0 -28.5 7t-7.5 20q3 15 12.5 52.5t12.5 49.5q-94 16 -130 87t-12 151q21 76 91 134t153 62q12 52 22 89q6 25 43 25q16 0 26 -7.5t6 -20.5l-21 -88q53 -7 79 -36t25 -63t-20 -64
q-15 -25 -52 -25q-18 0 -28.5 7.5t-4.5 19.5q8 14 12 29t-2.5 31t-28.5 20q-6 -25 -29.5 -125t-34.5 -152q83 0 140 46q2 2 7 2q14 0 24 -18.5t-2 -28.5zM180 307q-8 -93 53 -111q1 6 26 112.5t37 156.5q-45 -5 -77.5 -50.5t-38.5 -107.5z" />
    <glyph glyph-name="sterling" unicode="&#xa3;" horiz-adv-x="604" 
d="M139 -5q-15 -12 -32 -12q-28 0 -41 25t9 50q39 41 57.5 95.5t26.5 135.5h-48q-15 0 -20 17.5t2 35t21 17.5q33 0 49 -1q7 149 54.5 228.5t157.5 79.5q87 0 133 -55.5t17 -151.5q-4 -12 -19.5 -19t-33.5 -7q-16 0 -26.5 7.5t-7.5 20.5q14 56 -0.5 88.5t-54.5 32.5h-8
q-54 -3 -75 -59t-24 -166q55 0 83 1q13 0 16.5 -17t-5 -34.5t-23.5 -18.5q-20 -1 -75 -1q-12 -107 -55 -191q19 6 40 6q18 0 33 -4q11 -2 33.5 -8.5t38.5 -9.5t31 -3q42 0 73 31q5 5 12 5q16 0 28.5 -20t4.5 -33q-39 -64 -122 -64q-8 0 -23 0.5t-22 0.5h-4q-28 0 -73 10.5
t-64 10.5q-36 0 -64 -23z" />
    <glyph glyph-name="currency" unicode="&#xa4;" horiz-adv-x="648" 
d="M242 535q48 21 101 21q56 0 100 -25q17 17 30 33q20 24 47 24t45.5 -21t7.5 -40q-14 -14 -62 -68q27 -61 13 -134t-62 -128q44 -58 55 -76q14 -20 -7 -43t-48 -23q-21 0 -32 16q-18 27 -48 64q-56 -30 -120 -30q-40 0 -73 12q-8 -10 -22.5 -27t-19.5 -22q-15 -16 -33 -16
q-28 0 -45 26t2 50l37 46q-47 67 -31.5 156t79.5 150q-20 32 -31 48q-12 18 6.5 40t45.5 22q33 0 65 -55zM341 467q-64 0 -102.5 -39t-50.5 -105q-10 -60 12 -94t64 -35q60 -1 98.5 39t50.5 105q10 60 -10.5 94t-61.5 35z" />
    <glyph glyph-name="yen" unicode="&#xa5;" horiz-adv-x="548" 
d="M462 653q9 13 27 13q26 0 49 -20t12 -37q-103 -167 -208 -294h47q12 0 15 -17t-5.5 -34t-24.5 -17q-11 0 -35 0.5t-36 0.5q-1 -5 -3.5 -14.5t-4 -16.5t-3.5 -13h72q17 0 15 -28q-2 -31 -23 -39l-8 -1h-72q-6 -22 -15.5 -62t-13.5 -58q-8 -29 -54 -29q-23 0 -39.5 8.5
t-13.5 21.5q8 32 28 120q-10 0 -31 0.5t-32 0.5q-14 0 -18 17t3.5 33.5t22.5 16.5q12 0 35 -0.5t34 -0.5l10 44q-42 2 -66 2q-14 0 -17.5 17t4.5 33.5t23 16.5q18 -1 53 -1q-48 160 -77 313q-1 15 19 25.5t45 10.5q41 0 44 -26q26 -161 57 -267q57 74 185 281z" />
    <glyph glyph-name="brokenbar" unicode="&#xa6;" horiz-adv-x="469" 
d="M402 668l-95 -377q-7 -28 -59 -28q-25 0 -43 8.5t-14 21.5l97 384q6 23 55 23q26 0 44.5 -8.5t14.5 -23.5zM263 119l-97 -388q-3 -12 -21.5 -19t-41.5 -7q-25 0 -41 8t-12 23l97 385q7 28 58 28q25 0 43 -8.5t15 -21.5z" />
    <glyph glyph-name="section" unicode="&#xa7;" horiz-adv-x="523" 
d="M286 696q135 0 165 -124q1 -13 -14.5 -22.5t-33.5 -9.5q-22 0 -29 13q-6 28 -28 44.5t-47 16.5q-19 0 -32.5 -11t-14.5 -32q-1 -22 18 -44.5t46.5 -43.5t54.5 -44.5t46 -57t18 -71.5q-1 -39 -23 -75t-62 -58q25 -65 -18.5 -126.5t-123.5 -60.5q-75 0 -114.5 36.5
t-41.5 103.5q5 24 41 24q33 0 40 -22q3 -29 19.5 -44.5t41.5 -15.5q28 0 44.5 19t16.5 52q0 24 -16.5 47.5t-40.5 44t-47.5 43t-39.5 54t-14 67.5q2 33 22.5 61.5t52.5 38.5q-26 36 -22 83q4 53 42.5 83.5t93.5 30.5zM230 446q-33 -11 -33 -48q0 -22 18 -45.5t50 -53.5
t45 -47q23 23 24 63q0 27 -18.5 54t-35 40t-50.5 37z" />
    <glyph glyph-name="dieresis" unicode="&#xa8;" horiz-adv-x="380" 
d="M105 734q-30 0 -45 18t-13 42q3 23 21.5 41t47.5 19q28 0 43.5 -18.5t12.5 -42.5q-2 -23 -20.5 -41t-46.5 -18zM268 734q-30 0 -44.5 18t-11.5 42q2 23 20 41t46 19q31 0 45.5 -17.5t14.5 -42.5q-2 -24 -21 -42t-49 -18z" />
    <glyph glyph-name="copyright" unicode="&#xa9;" horiz-adv-x="891" 
d="M386 -172q-160 -2 -250.5 96t-71.5 256q19 164 141.5 269t288.5 105q161 0 251 -100t72 -254q-8 -73 -39.5 -138t-83.5 -117.5t-131.5 -84t-176.5 -32.5zM384 -90q136 0 219 82t99 214q14 124 -42 194.5t-164 71.5q-134 1 -215.5 -83.5t-98.5 -214.5q-16 -120 43 -191.5
t159 -72.5zM424 28q-65 2 -104.5 43t-34.5 110q6 80 64.5 135.5t140.5 54.5q47 -1 69.5 -25t21.5 -52.5t-17 -50.5q-10 -12 -34 -12q-18 0 -29.5 7t-6.5 18q11 14 9 32t-21 18q-30 0 -58 -35.5t-33 -91.5q-4 -42 17.5 -65.5t59.5 -23.5q43 0 78 25q8 3 17.5 -13t4.5 -23
q-59 -51 -144 -51z" />
    <glyph glyph-name="guillemotleft" unicode="&#xab;" horiz-adv-x="646" 
d="M225 130q-20 20 -64.5 62t-59.5 57q-19 19 -21 38t7.5 31.5t24.5 21.5q70 43 156 105q11 8 24 8q27 0 41 -27.5t-8 -44.5q-25 -18 -134 -91q15 -16 55.5 -56.5t55.5 -57.5q12 -14 -6.5 -35.5t-43.5 -21.5q-16 0 -27 11zM467 130q-22 22 -69 67t-55 52q-18 19 -20 38
t7 31.5t24 21.5q60 37 157 105q11 8 23 8q28 0 42 -27.5t-9 -44.5q-25 -18 -134 -91q16 -17 56.5 -57t55.5 -57q12 -14 -7 -35.5t-44 -21.5q-16 0 -27 11z" />
    <glyph glyph-name="logicalnot" unicode="&#xac;" horiz-adv-x="539" 
d="M455 291l-27 -123q-3 -15 -37 -15q-18 0 -31.5 6t-11.5 15l17 78h-243q-16 0 -21 20.5t4 41t27 20.5h291q18 0 27.5 -11.5t4.5 -31.5z" />
    <glyph glyph-name="registered" unicode="&#xae;" horiz-adv-x="901" 
d="M388 -172q-162 -2 -252.5 96t-71.5 256q19 165 143 269.5t292 104.5q165 0 255.5 -99.5t72.5 -254.5q-8 -73 -40 -138t-85 -117.5t-134 -84t-180 -32.5zM386 -90q140 0 225 82t101 214q14 125 -42.5 195t-168.5 71q-136 1 -219 -84t-100 -214q-16 -121 43 -192t161 -72z
M466 20q-21 21 -25 64t1 73q0 28 -32 28q-6 -20 -14.5 -54.5t-15.5 -59t-11 -35.5q-4 -13 -29 -13q-21 0 -40 10t-14 23q15 39 36 121.5t42 125.5q42 89 139 89q55 -1 79 -31.5t14 -71.5q-8 -32 -35 -57.5t-56 -33.5q4 -10 9.5 -65t23.5 -78q4 -16 -15 -28t-39 -12
q-10 0 -18 5zM421 229q38 3 62 20.5t31 40.5q6 13 1.5 24t-20.5 12q-47 0 -74 -97z" />
    <glyph glyph-name="macron" unicode="&#xaf;" horiz-adv-x="328" 
d="M272 744h-213q-15 0 -19 18.5t4.5 36t23.5 17.5q48 -1 150 -1h63q15 0 17.5 -17.5t-5.5 -35.5t-21 -18z" />
    <glyph glyph-name="degree" unicode="&#xb0;" horiz-adv-x="448" 
d="M237 670q68 0 107.5 -41.5t30.5 -101.5q-7 -57 -57 -98t-116 -41q-70 0 -109 42t-30 102q8 57 56.5 97.5t117.5 40.5zM230 593q-28 0 -48 -17t-25 -43q-7 -26 7 -46.5t44 -20.5q33 0 54 21.5t22 50.5q2 23 -13 39t-41 16z" />
    <glyph glyph-name="plusminus" unicode="&#xb1;" horiz-adv-x="533" 
d="M94 170h290q18 0 24 -20.5t-2.5 -41t-26.5 -20.5l-296 -1q-16 0 -20.5 20.5t4.5 41.5t27 21zM344 386h92q18 0 24 -21t-2.5 -41.5t-26.5 -20.5h-111l-21 -74q-5 -17 -44 -17q-19 0 -32.5 6t-10.5 17l19 68h-95q-16 0 -21 20.5t4 41.5t27 21h108l24 84q6 21 41 21
q20 0 35 -8t11 -20z" />
    <glyph glyph-name="uni00B2" unicode="&#xb2;" horiz-adv-x="330" 
d="M248 394l-161 -2h-3q-15 0 -19.5 24.5t6.5 31.5q91 58 110 124q8 35 -18 35q-11 1 -18.5 -8t-9.5 -23q-3 -14 -28 -14q-16 0 -28 7t-11 18q4 37 35.5 57.5t70.5 20.5q44 0 70.5 -26t20.5 -72q-5 -34 -35.5 -67.5t-64.5 -49.5h84q12 0 15.5 -14t-1.5 -28t-15 -14z" />
    <glyph glyph-name="uni00B3" unicode="&#xb3;" horiz-adv-x="336" 
d="M178 666q44 0 70.5 -18.5t24.5 -50.5q-1 -46 -44 -66q42 -20 37 -67q-4 -34 -33 -53t-75 -19q-43 0 -72.5 25.5t-21.5 64.5q3 14 33 14q28 0 28 -15q1 -14 10 -22t23 -8q28 0 32 25q2 14 -6 21.5t-26 8.5q-11 1 -14.5 14t3 25.5t18.5 12.5q40 0 40 24q0 25 -30 25
q-27 -4 -37 -26q-4 -10 -22 -10q-16 0 -27.5 7.5t-8.5 20.5q8 32 35.5 49t62.5 18z" />
    <glyph glyph-name="acute" unicode="&#xb4;" horiz-adv-x="250" 
d="M52 760l62 89q11 15 40 15q38 0 51 -17q5 -8 -2 -16l-82 -96q-9 -10 -30 -10q-22 0 -35.5 10t-3.5 25z" />
    <glyph glyph-name="paragraph" unicode="&#xb6;" horiz-adv-x="691" 
d="M318 680h360q21 0 19 -32q-2 -33 -23 -43q-5 -3 -11 -3h-76l-94 -343q-19 -70 -38 -115t-47.5 -81.5t-68.5 -53.5t-96 -18q-55 -1 -93 15.5t-53.5 42t-18.5 56t6.5 59.5t26.5 52q11 12 36 12q27 0 47.5 -13.5t11.5 -30.5q-23 -45 -12 -79.5t52 -33.5q37 0 61 43t46 124
l101 364h-76l-63 -217q-24 -84 -95 -84q-2 0 -6 0.5t-6 0.5q-63 4 -89.5 66.5t-5.5 147.5q21 88 69.5 126t135.5 38z" />
    <glyph glyph-name="periodcentered" unicode="&#xb7;" horiz-adv-x="279" 
d="M126 317q-26 0 -43.5 18.5t-15.5 43.5q2 26 21 43.5t45 17.5q27 0 43 -17.5t14 -43.5t-20.5 -44t-43.5 -18z" />
    <glyph glyph-name="cedilla" unicode="&#xb8;" horiz-adv-x="284" 
d="M101 -56l63 99l65 -7l-61 -83q45 -6 62.5 -38t-0.5 -66q-12 -28 -40.5 -45.5t-64.5 -17.5q-47 0 -91 31q-9 6 1 25.5t20 19.5q35 -19 57 -19q28 0 41 24q11 17 3 32t-38 15h-3q-13 0 -17.5 8.5t3.5 21.5z" />
    <glyph glyph-name="uni00B9" unicode="&#xb9;" horiz-adv-x="328" 
d="M178 655q9 12 33 12q21 0 39 -8.5t15 -17.5q-41 -126 -61 -232q-8 -14 -39 -14q-39 0 -40 22q9 59 40 140q-33 -32 -62 -43q-12 0 -23.5 10t-14.5 21t5 18q65 37 108 92z" />
    <glyph glyph-name="guillemotright" unicode="&#xbb;" horiz-adv-x="646" 
d="M149 126q-11 -8 -23 -8q-28 0 -42 28t9 44q25 18 134 91q-16 17 -56.5 57t-55.5 57q-12 14 7 36t44 22q16 0 27 -11q21 -22 66 -64.5t58 -55.5q18 -18 20 -37t-7 -32t-24 -22q-60 -37 -157 -105zM392 126q-11 -8 -24 -8q-27 0 -41 28t8 44q25 18 134 91
q-15 16 -55.5 56.5t-55.5 57.5q-12 14 6.5 36t43.5 22q16 0 27 -11q21 -22 66 -64.5t58 -55.5q14 -14 19 -28t1 -26t-12 -21t-19 -16q-70 -43 -156 -105z" />
    <glyph glyph-name="onequarter" unicode="&#xbc;" horiz-adv-x="727" 
d="M605 71l-10 -64q-2 -14 -41 -14q-41 0 -38 17l12 58h-108q-22 0 -30.5 22.5t4.5 38.5l167 220q11 15 45 15q19 0 32.5 -6t12.5 -15l-37 -220h37q8 0 9 -13t-5.5 -26t-16.5 -13h-33zM563 256l-93 -133h67zM206 306q-3 -15 -43 -15q-48 0 -44 19q4 18 12 53.5t12 52t11 43
t16.5 50t21.5 50.5q-14 -20 -43 -43.5t-48 -23.5q-13 0 -23 12.5t-10.5 24.5t5.5 18q90 47 133 107q12 13 39 13q20 0 36 -6.5t13 -14.5q-14 -41 -30 -101t-36.5 -147.5t-21.5 -91.5zM223 3q-9 -11 -32 -11q-30 0 -54.5 15t-10.5 32q32 43 174.5 294.5t195.5 319.5
q12 13 34 13q29 0 53 -17t11 -34q-52 -64 -190 -310t-181 -302z" />
    <glyph glyph-name="onehalf" unicode="&#xbd;" horiz-adv-x="744" 
d="M221 3q-9 -11 -32 -11q-31 0 -55.5 15t-10.5 32q31 43 174 294t197 320q12 13 33 13q30 0 54 -17.5t10 -33.5q-52 -64 -190 -310t-180 -302zM645 -4l-188 -1q-20 -1 -21.5 28t16.5 40q96 60 137 167q11 31 5.5 47t-21.5 17q-40 0 -40 -53q0 -14 -29 -14q-14 0 -25 6
t-12 17q-3 54 32 84.5t82 30.5h2q40 -1 68.5 -26.5t26.5 -70.5q-1 -57 -36.5 -111.5t-88.5 -93.5l96 -1q13 0 17.5 -16.5t-2 -33t-19.5 -16.5zM204 306q-3 -15 -44 -15q-48 0 -44 19q4 18 12 53.5t12 52t11 43t16.5 50t21.5 50.5q-14 -20 -43 -43.5t-48 -23.5
q-13 0 -23 12.5t-10.5 24.5t5.5 18q92 48 133 107q12 13 39 13q20 0 36 -6.5t13 -14.5q-26 -78 -87 -340z" />
    <glyph glyph-name="threequarters" unicode="&#xbe;" horiz-adv-x="769" 
d="M646 71l-10 -64q-2 -14 -40 -14q-42 0 -38 17l11 58h-108q-22 0 -30 22.5t5 38.5l166 220q10 15 45 15q19 0 32.5 -6t12.5 -15l-37 -220h37q13 0 8 -25q-6 -26 -21 -27h-33zM605 256l-94 -133h67zM162 291q-45 2 -72.5 30.5t-21.5 83.5q2 17 32 17q16 0 27 -6t9 -17
q-2 -21 8 -33t25 -12q33 0 41 35q8 30 -5 46.5t-54 19.5q-11 0 -14 13.5t2.5 26t14.5 12.5q68 0 74 57q1 18 -6.5 28t-20.5 10q-15 1 -27 -11.5t-14 -35.5q0 -12 -33 -12q-34 0 -34 17q-2 52 34.5 79.5t84.5 27.5h3q45 -2 72 -28.5t24 -68.5q-3 -37 -25 -59.5t-52 -26.5
q30 -9 46 -37t10 -64q-7 -47 -42.5 -69.5t-85.5 -22.5zM265 3q-9 -11 -32 -11q-31 0 -55 14.5t-11 32.5q31 43 174 294t197 320q12 13 33 13q29 0 53.5 -17.5t11.5 -33.5q-53 -65 -191 -311t-180 -301z" />
    <glyph glyph-name="questiondown" unicode="&#xbf;" horiz-adv-x="458" 
d="M328 408q25 0 42 -18t15 -44q-2 -24 -21.5 -42t-44.5 -18q-27 0 -43 18t-13 43q2 25 21 43t44 18zM343 195q-1 -46 -21 -82.5t-58 -77.5q-8 -9 -29.5 -31.5t-32.5 -35t-25 -32t-21.5 -39t-9.5 -40.5q-8 -62 45 -69q3 -1 10 -1q32 0 57.5 29.5t31.5 83.5q3 28 46 28
q21 0 37 -9t15 -25q-7 -187 -204 -187q-74 2 -118.5 42.5t-39.5 109.5q2 29 10.5 54.5t27.5 50.5t30.5 38t40.5 40.5t37 35.5q23 24 35 38t24 36.5t14 45.5q3 24 48 24q20 0 35 -7t15 -20z" />
    <glyph glyph-name="Agrave" unicode="&#xc0;" horiz-adv-x="867" 
d="M228 -9q-86 0 -125.5 41.5t-27.5 112.5q15 82 92 128t185 46q22 0 34 -1q36 85 54 124.5t50 93t66 91.5q59 63 135 63q43 0 72.5 -23.5t32.5 -64.5q8 -102 -49 -316q103 3 148 47q7 5 11 5q12 0 19 -16t1 -24q-60 -68 -189 -78q-33 -133 -43 -201q-17 -23 -69 -23
q-54 0 -68 23q10 70 44 199q-24 2 -118 11q-22 -54 -41 -89t-49 -73t-71 -57t-94 -19zM235 71q34 1 59.5 40t60.5 126q-54 0 -95 -22t-56 -70q-10 -26 -2.5 -50.5t33.5 -23.5zM617 291q57 203 68 280q5 31 -14 31q-17 0 -42.5 -38t-51 -99t-39 -95.5t-25.5 -67.5
q43 -6 104 -11zM696 879q5 -8 28 -40t34 -49q11 -15 -3 -25t-35 -10q-22 0 -31 10l-82 96q-14 16 17 28q14 5 32 5q29 0 40 -15z" />
    <glyph glyph-name="Aacute" unicode="&#xc1;" horiz-adv-x="867" 
d="M228 -9q-86 0 -125.5 41.5t-27.5 112.5q15 82 92 128t185 46q22 0 34 -1q36 85 54 124.5t50 93t66 91.5q59 63 135 63q43 0 72.5 -23.5t32.5 -64.5q8 -102 -49 -316q103 3 148 47q7 5 11 5q12 0 19 -16t1 -24q-60 -68 -189 -78q-33 -133 -43 -201q-17 -23 -69 -23
q-54 0 -68 23q10 70 44 199q-24 2 -118 11q-22 -54 -41 -89t-49 -73t-71 -57t-94 -19zM235 71q34 1 59.5 40t60.5 126q-54 0 -95 -22t-56 -70q-10 -26 -2.5 -50.5t33.5 -23.5zM617 291q57 203 68 280q5 31 -14 31q-17 0 -42.5 -38t-51 -99t-39 -95.5t-25.5 -67.5
q43 -6 104 -11zM726 879q11 15 41 15q40 0 52 -17q6 -8 -1 -16l-82 -96q-9 -10 -31 -10q-23 0 -37.5 10t-3.5 25q11 17 34 49t28 40z" />
    <glyph glyph-name="Acircumflex" unicode="&#xc2;" horiz-adv-x="867" 
d="M228 -9q-86 0 -125.5 41.5t-27.5 112.5q15 82 92 128t185 46q22 0 34 -1q36 85 54 124.5t50 93t66 91.5q59 63 135 63q43 0 72.5 -23.5t32.5 -64.5q8 -102 -49 -316q103 3 148 47q7 5 11 5q12 0 19 -16t1 -24q-60 -68 -189 -78q-33 -133 -43 -201q-17 -23 -69 -23
q-54 0 -68 23q10 70 44 199q-24 2 -118 11q-22 -54 -41 -89t-49 -73t-71 -57t-94 -19zM235 71q34 1 59.5 40t60.5 126q-54 0 -95 -22t-56 -70q-10 -26 -2.5 -50.5t33.5 -23.5zM617 291q57 203 68 280q5 31 -14 31q-17 0 -42.5 -38t-51 -99t-39 -95.5t-25.5 -67.5
q43 -6 104 -11zM705 884q15 9 38 9q25 0 37 -9q10 -8 28 -27t38.5 -42t24.5 -27q13 -15 -18 -26q-17 -6 -33 -6q-20 0 -27 8l-57 59l-80 -62q-8 -7 -21 -7q-25 0 -41 16t0 33q30 26 111 81z" />
    <glyph glyph-name="Atilde" unicode="&#xc3;" horiz-adv-x="867" 
d="M228 -9q-86 0 -125.5 41.5t-27.5 112.5q15 82 92 128t185 46q22 0 34 -1q36 85 54 124.5t50 93t66 91.5q59 63 135 63q43 0 72.5 -23.5t32.5 -64.5q8 -102 -49 -316q103 3 148 47q7 5 11 5q12 0 19 -16t1 -24q-60 -68 -189 -78q-33 -133 -43 -201q-17 -23 -69 -23
q-54 0 -68 23q10 70 44 199q-24 2 -118 11q-22 -54 -41 -89t-49 -73t-71 -57t-94 -19zM235 71q34 1 59.5 40t60.5 126q-54 0 -95 -22t-56 -70q-10 -26 -2.5 -50.5t33.5 -23.5zM617 291q57 203 68 280q5 31 -14 31q-17 0 -42.5 -38t-51 -99t-39 -95.5t-25.5 -67.5
q43 -6 104 -11zM764 764q-22 1 -55.5 18t-47.5 17q-26 0 -47 -27q-3 -3 -7 -3q-13 0 -30 15.5t-11 26.5q13 27 38.5 46.5t58.5 19.5q23 -1 55 -18t48 -17q27 0 48 25q3 3 7 3q12 0 26.5 -16t8.5 -27q-29 -63 -92 -63z" />
    <glyph glyph-name="Adieresis" unicode="&#xc4;" horiz-adv-x="867" 
d="M228 -9q-86 0 -125.5 41.5t-27.5 112.5q15 82 92 128t185 46q22 0 34 -1q36 85 54 124.5t50 93t66 91.5q59 63 135 63q43 0 72.5 -23.5t32.5 -64.5q8 -102 -49 -316q103 3 148 47q7 5 11 5q12 0 19 -16t1 -24q-60 -68 -189 -78q-33 -133 -43 -201q-17 -23 -69 -23
q-54 0 -68 23q10 70 44 199q-24 2 -118 11q-22 -54 -41 -89t-49 -73t-71 -57t-94 -19zM235 71q34 1 59.5 40t60.5 126q-54 0 -95 -22t-56 -70q-10 -26 -2.5 -50.5t33.5 -23.5zM617 291q57 203 68 280q5 31 -14 31q-17 0 -42.5 -38t-51 -99t-39 -95.5t-25.5 -67.5
q43 -6 104 -11zM645 756q-30 0 -45 18t-14 42q4 24 22 41.5t47 18.5q29 0 44.5 -18.5t12.5 -42.5q-2 -23 -20.5 -41t-46.5 -18zM808 756q-30 0 -44.5 18.5t-11.5 41.5q2 23 19.5 41t46.5 19q30 0 45 -18t14 -42q-2 -24 -20.5 -42t-48.5 -18z" />
    <glyph glyph-name="Aring" unicode="&#xc5;" horiz-adv-x="867" 
d="M228 -9q-86 0 -125.5 41.5t-27.5 112.5q15 82 92 128t185 46q22 0 34 -1q36 85 54 124.5t50 93t66 91.5q59 63 135 63q43 0 72.5 -23.5t32.5 -64.5q8 -102 -49 -316q103 3 148 47q7 5 11 5q12 0 19 -16t1 -24q-60 -68 -189 -78q-33 -133 -43 -201q-17 -23 -69 -23
q-54 0 -68 23q10 70 44 199q-24 2 -118 11q-22 -54 -41 -89t-49 -73t-71 -57t-94 -19zM235 71q34 1 59.5 40t60.5 126q-54 0 -95 -22t-56 -70q-10 -26 -2.5 -50.5t33.5 -23.5zM617 291q57 203 68 280q5 31 -14 31q-17 0 -42.5 -38t-51 -99t-39 -95.5t-25.5 -67.5
q43 -6 104 -11zM738 910q45 -1 69.5 -25.5t18.5 -63.5q-4 -38 -34 -61t-73 -23q-44 0 -68.5 25t-18.5 64q4 37 34 60.5t72 23.5zM734 856q-30 0 -38 -33q-3 -14 4.5 -23t22.5 -9q33 0 39 32q5 33 -28 33z" />
    <glyph glyph-name="AE" unicode="&#xc6;" horiz-adv-x="1130" 
d="M866 -29q-131 0 -186 64q-11 -41 -14 -59q-11 -15 -50 -15q-26 0 -47 7.5t-25 20.5q12 70 58 229q-19 1 -64.5 5.5t-54.5 5.5q-22 -54 -41 -89t-49 -73t-71 -57t-94 -19q-86 0 -125.5 41.5t-27.5 112.5q15 82 92 128t185 46q22 0 34 -1q50 117 88.5 188.5t88.5 124.5
q57 58 127 58q41 0 69.5 -23t31.5 -64q7 -83 -27 -243q48 25 100 25q-42 40 -43 106.5t33 103.5q-18 45 -12 90q2 15 23 15q22 0 24 -17q0 -31 8 -51q56 42 159 42q60 -4 97.5 -35.5t33.5 -81.5q-4 -49 -42 -81.5t-92 -36.5q-86 0 -126 54q-8 -46 13 -79.5t62 -43.5
q10 -8 2.5 -38t-22.5 -34q-32 5 -64 5q-158 0 -185 -100q-19 -69 25.5 -109.5t120.5 -40.5q84 0 155.5 43t105.5 118q3 5 8 5q9 0 20.5 -10t9.5 -15q-45 -101 -125.5 -161.5t-186.5 -60.5zM235 71q34 1 59.5 40t60.5 126q-54 0 -95 -22t-56 -70q-10 -26 -2.5 -50.5
t33.5 -23.5zM617 291q57 203 68 280q5 31 -14 31q-17 0 -42.5 -38t-51 -99t-39 -95.5t-25.5 -67.5q43 -6 104 -11zM1031 510q52 3 57 45q1 17 -13.5 27.5t-38.5 10.5q-56 0 -84 -39q30 -44 79 -44z" />
    <glyph glyph-name="Ccedilla" unicode="&#xc7;" horiz-adv-x="646" 
d="M655 214q1 4 7 4q10 0 22.5 -9.5t8.5 -16.5q-46 -94 -110.5 -142.5t-160.5 -57.5l-33 -45q45 -6 62.5 -38t-0.5 -66q-12 -28 -40.5 -45.5t-64.5 -17.5q-47 0 -91 31q-9 6 0.5 25.5t20.5 19.5q35 -19 57 -19q29 0 40 24q12 17 4 32t-38 15h-3q-14 0 -18 8.5t4 21.5l34 54
q-103 10 -164 87t-52 204q11 145 93 254q-43 71 -48 135q-1 9 8.5 14.5t22.5 5.5q25 0 28 -14q8 -47 34 -91q107 107 242 107q4 0 10 -0.5t10 -0.5q85 -4 125 -54t21 -122q-15 -59 -70.5 -95.5t-128.5 -36.5q-96 0 -179 59q-38 -86 -36 -173q1 -101 45.5 -150.5t116.5 -49.5
t130 38.5t91 104.5zM519 611q-57 0 -97.5 -24.5t-76.5 -75.5q48 -35 111 -35q41 0 71 18t37 52q8 25 -4.5 44.5t-40.5 20.5z" />
    <glyph glyph-name="Egrave" unicode="&#xc8;" horiz-adv-x="582" 
d="M280 706q2 -36 12 -60q59 50 153 50q73 0 124.5 -34t48.5 -94q-3 -63 -47 -91t-111 -28q-34 1 -68 16t-55 37q-4 -44 28.5 -80.5t92.5 -44.5q14 -11 6.5 -41.5t-25.5 -33.5q-20 2 -33 2q-63 0 -113.5 -29t-58.5 -87q-7 -41 13.5 -68.5t50 -37t64.5 -10.5q160 0 230 142
q1 4 7 4q10 0 22 -10t9 -16q-45 -97 -123 -149t-183 -52q-99 0 -168.5 50.5t-55.5 149.5q11 80 70.5 128t134.5 52q-42 17 -63.5 59.5t-18.5 90t25 81.5q-20 43 -20 102q0 8 9 13t20 5q22 0 23 -16zM357 568q42 -42 97 -42q47 0 49 43q1 19 -16.5 30.5t-43.5 11.5
q-59 0 -86 -43zM429 879q5 -8 28 -40t34 -49q11 -15 -3 -25t-35 -10q-22 0 -31 10l-82 96q-14 16 17 28q14 5 32 5q29 0 40 -15z" />
    <glyph glyph-name="Eacute" unicode="&#xc9;" horiz-adv-x="582" 
d="M280 706q2 -36 12 -60q59 50 153 50q73 0 124.5 -34t48.5 -94q-3 -63 -47 -91t-111 -28q-34 1 -68 16t-55 37q-4 -44 28.5 -80.5t92.5 -44.5q14 -11 6.5 -41.5t-25.5 -33.5q-20 2 -33 2q-63 0 -113.5 -29t-58.5 -87q-7 -41 13.5 -68.5t50 -37t64.5 -10.5q160 0 230 142
q1 4 7 4q10 0 22 -10t9 -16q-45 -97 -123 -149t-183 -52q-99 0 -168.5 50.5t-55.5 149.5q11 80 70.5 128t134.5 52q-42 17 -63.5 59.5t-18.5 90t25 81.5q-20 43 -20 102q0 8 9 13t20 5q22 0 23 -16zM357 568q42 -42 97 -42q47 0 49 43q1 19 -16.5 30.5t-43.5 11.5
q-59 0 -86 -43zM458 879q11 15 41 15q40 0 52 -17q6 -8 -1 -16l-82 -96q-9 -10 -31 -10q-23 0 -37.5 10t-3.5 25q11 17 34 49t28 40z" />
    <glyph glyph-name="Ecircumflex" unicode="&#xca;" horiz-adv-x="582" 
d="M280 706q2 -36 12 -60q59 50 153 50q73 0 124.5 -34t48.5 -94q-3 -63 -47 -91t-111 -28q-34 1 -68 16t-55 37q-4 -44 28.5 -80.5t92.5 -44.5q14 -11 6.5 -41.5t-25.5 -33.5q-20 2 -33 2q-63 0 -113.5 -29t-58.5 -87q-7 -41 13.5 -68.5t50 -37t64.5 -10.5q160 0 230 142
q1 4 7 4q10 0 22 -10t9 -16q-45 -97 -123 -149t-183 -52q-99 0 -168.5 50.5t-55.5 149.5q11 80 70.5 128t134.5 52q-42 17 -63.5 59.5t-18.5 90t25 81.5q-20 43 -20 102q0 8 9 13t20 5q22 0 23 -16zM357 568q42 -42 97 -42q47 0 49 43q1 19 -16.5 30.5t-43.5 11.5
q-59 0 -86 -43zM438 884q15 9 38 9q25 0 37 -9q10 -8 28 -27t38.5 -42t24.5 -27q13 -15 -18 -26q-17 -6 -33 -6q-20 0 -27 8l-57 59l-80 -62q-8 -7 -21 -7q-25 0 -41 16t0 33q30 26 111 81z" />
    <glyph glyph-name="Edieresis" unicode="&#xcb;" horiz-adv-x="582" 
d="M280 706q2 -36 12 -60q59 50 153 50q73 0 124.5 -34t48.5 -94q-3 -63 -47 -91t-111 -28q-34 1 -68 16t-55 37q-4 -44 28.5 -80.5t92.5 -44.5q14 -11 6.5 -41.5t-25.5 -33.5q-20 2 -33 2q-63 0 -113.5 -29t-58.5 -87q-7 -41 13.5 -68.5t50 -37t64.5 -10.5q160 0 230 142
q1 4 7 4q10 0 22 -10t9 -16q-45 -97 -123 -149t-183 -52q-99 0 -168.5 50.5t-55.5 149.5q11 80 70.5 128t134.5 52q-42 17 -63.5 59.5t-18.5 90t25 81.5q-20 43 -20 102q0 8 9 13t20 5q22 0 23 -16zM357 568q42 -42 97 -42q47 0 49 43q1 19 -16.5 30.5t-43.5 11.5
q-59 0 -86 -43zM378 756q-30 0 -45 18t-14 42q4 24 22 41.5t47 18.5q29 0 44.5 -18.5t12.5 -42.5q-2 -23 -20.5 -41t-46.5 -18zM541 756q-30 0 -44.5 18.5t-11.5 41.5q2 23 19.5 41t46.5 19q30 0 45 -18t14 -42q-2 -24 -20.5 -42t-48.5 -18z" />
    <glyph glyph-name="Igrave" unicode="&#xcc;" horiz-adv-x="558" 
d="M475 670q18 20 67 20q24 0 44.5 -6.5t24.5 -16.5q-22 -62 -125 -389q-14 -44 -20 -63.5t-19 -54t-22 -50.5t-24.5 -40t-31 -35t-37 -23.5t-47.5 -17t-58 -4.5q-54 0 -93.5 21.5t-54.5 55t-15 69.5t22.5 68t61.5 46q1 0 3 0.5t4 0.5q22 0 44 -18t20 -38
q-23 -26 -27.5 -55.5t9 -49t39.5 -19.5q10 0 18.5 4t16.5 13t14.5 18t14 25.5t12.5 29t12 35.5t11.5 37.5t12.5 42t13 42.5q71 241 75 253q-23 -26 -58 -43.5t-63 -25t-52 -23.5t-30 -40q-15 -55 32 -65q10 -11 2 -35t-25 -28q-2 0 -7 -0.5t-8 -0.5q-63 0 -99.5 40t-25.5 95
q8 41 38 66t72.5 38.5t87.5 25t92.5 35t78.5 60.5zM539 879q5 -8 28 -40t34 -49q11 -15 -3 -25t-35 -10q-22 0 -31 10l-82 96q-14 16 17 28q14 5 32 5q29 0 40 -15z" />
    <glyph glyph-name="Iacute" unicode="&#xcd;" horiz-adv-x="558" 
d="M475 670q18 20 67 20q24 0 44.5 -6.5t24.5 -16.5q-22 -62 -125 -389q-14 -44 -20 -63.5t-19 -54t-22 -50.5t-24.5 -40t-31 -35t-37 -23.5t-47.5 -17t-58 -4.5q-54 0 -93.5 21.5t-54.5 55t-15 69.5t22.5 68t61.5 46q1 0 3 0.5t4 0.5q22 0 44 -18t20 -38
q-23 -26 -27.5 -55.5t9 -49t39.5 -19.5q10 0 18.5 4t16.5 13t14.5 18t14 25.5t12.5 29t12 35.5t11.5 37.5t12.5 42t13 42.5q71 241 75 253q-23 -26 -58 -43.5t-63 -25t-52 -23.5t-30 -40q-15 -55 32 -65q10 -11 2 -35t-25 -28q-2 0 -7 -0.5t-8 -0.5q-63 0 -99.5 40t-25.5 95
q8 41 38 66t72.5 38.5t87.5 25t92.5 35t78.5 60.5zM568 880q11 15 41 15q40 0 52 -17q6 -8 -1 -16l-82 -96q-9 -10 -31 -10q-23 0 -37.5 10t-3.5 25q11 17 34 49t28 40z" />
    <glyph glyph-name="Icircumflex" unicode="&#xce;" horiz-adv-x="558" 
d="M475 670q18 20 67 20q24 0 44.5 -6.5t24.5 -16.5q-22 -62 -125 -389q-14 -44 -20 -63.5t-19 -54t-22 -50.5t-24.5 -40t-31 -35t-37 -23.5t-47.5 -17t-58 -4.5q-54 0 -93.5 21.5t-54.5 55t-15 69.5t22.5 68t61.5 46q1 0 3 0.5t4 0.5q22 0 44 -18t20 -38
q-23 -26 -27.5 -55.5t9 -49t39.5 -19.5q10 0 18.5 4t16.5 13t14.5 18t14 25.5t12.5 29t12 35.5t11.5 37.5t12.5 42t13 42.5q71 241 75 253q-23 -26 -58 -43.5t-63 -25t-52 -23.5t-30 -40q-15 -55 32 -65q10 -11 2 -35t-25 -28q-2 0 -7 -0.5t-8 -0.5q-63 0 -99.5 40t-25.5 95
q8 41 38 66t72.5 38.5t87.5 25t92.5 35t78.5 60.5zM548 885q15 9 38 9q25 0 37 -9q10 -8 28 -27t38.5 -42t24.5 -27q13 -15 -18 -26q-17 -6 -33 -6q-20 0 -27 8l-57 59l-80 -62q-8 -7 -21 -7q-25 0 -41 16t0 33q30 26 111 81z" />
    <glyph glyph-name="Idieresis" unicode="&#xcf;" horiz-adv-x="558" 
d="M475 670q18 20 67 20q24 0 44.5 -6.5t24.5 -16.5q-22 -62 -125 -389q-14 -44 -20 -63.5t-19 -54t-22 -50.5t-24.5 -40t-31 -35t-37 -23.5t-47.5 -17t-58 -4.5q-54 0 -93.5 21.5t-54.5 55t-15 69.5t22.5 68t61.5 46q1 0 3 0.5t4 0.5q22 0 44 -18t20 -38
q-23 -26 -27.5 -55.5t9 -49t39.5 -19.5q10 0 18.5 4t16.5 13t14.5 18t14 25.5t12.5 29t12 35.5t11.5 37.5t12.5 42t13 42.5q71 241 75 253q-23 -26 -58 -43.5t-63 -25t-52 -23.5t-30 -40q-15 -55 32 -65q10 -11 2 -35t-25 -28q-2 0 -7 -0.5t-8 -0.5q-63 0 -99.5 40t-25.5 95
q8 41 38 66t72.5 38.5t87.5 25t92.5 35t78.5 60.5zM488 756q-30 0 -45 18t-14 42q4 24 22 41.5t47 18.5q29 0 44.5 -18.5t12.5 -42.5q-2 -23 -20.5 -41t-46.5 -18zM651 756q-30 0 -44.5 18.5t-11.5 41.5q2 23 19.5 41t46.5 19q30 0 45 -18t14 -42q-2 -24 -20.5 -42
t-48.5 -18z" />
    <glyph glyph-name="Eth" unicode="&#xd0;" horiz-adv-x="916" 
d="M233 -9q-78 0 -121.5 31.5t-39.5 85.5q4 53 43.5 80.5t96.5 27.5q67 0 123 -35q9 19 25 73h-48q-12 6 -9.5 30.5t19.5 29.5h56q57 196 113 243q13 9 37 9t44.5 -8.5t19.5 -18.5q-46 -57 -95 -226h93q12 -5 7 -30t-17 -30h-102q-27 -89 -49 -127q68 -52 140 -52
q47 0 81.5 29t52 74.5t25.5 90t8 87.5q4 258 -220 258q-60 0 -113.5 -29.5t-76 -77t3.5 -106.5q2 -14 -19.5 -33.5t-46.5 -19.5q-9 0 -18 3q-58 39 -60 110t49 126q95 108 304 108q142 -4 236 -92t90 -247q-4 -166 -84 -265.5t-201 -97.5q-97 0 -186 66q-58 -67 -161 -67z
M226 69q51 0 84 52q-44 25 -74 25q-40 -1 -49 -30q-9 -27 15 -41q10 -6 24 -6z" />
    <glyph glyph-name="Ntilde" unicode="&#xd1;" horiz-adv-x="889" 
d="M755 694q26 0 45.5 -6.5t32.5 -15.5t21 -24.5t12 -30t3.5 -35.5t-2 -36t-6.5 -37.5t-8.5 -35t-9 -33t-7.5 -26.5q-9 -32 -22.5 -77t-22.5 -75.5t-18.5 -68t-12.5 -63.5t-1.5 -51t12.5 -42.5t30 -27.5q17 -17 -8.5 -55t-59.5 -38q-1 0 -3.5 0.5t-3.5 0.5q-25 5 -43.5 16
t-29.5 29t-18.5 38t-8 49.5t0.5 54.5t8 62.5t13 65t18 69.5t20 69.5t21 70.5q33 105 29 137q-4 28 -29 28q-55 0 -127 -88.5t-113 -202.5q-22 -70 -43 -142t-31.5 -108.5t-17.5 -52.5q-9 -22 -63 -22q-27 0 -48 8t-22 22q25 76 80.5 266t85.5 285q-23 -26 -58.5 -44
t-64 -25.5t-52.5 -23t-29 -38.5q-12 -53 33 -67q7 -4 7.5 -17.5t-8.5 -28.5t-22 -16q-2 0 -7 -0.5t-8 -0.5q-62 0 -99 41t-26 96q11 49 56.5 77.5t98.5 39t117 38t101 73.5q15 16 52 16q23 0 41.5 -7t21.5 -19l-44 -141q45 70 108 120.5t129 49.5zM747 764q-22 1 -55.5 18
t-47.5 17q-26 0 -47 -27q-3 -3 -7 -3q-13 0 -30 15.5t-11 26.5q13 27 38.5 46.5t58.5 19.5q23 -1 55 -18t48 -17q27 0 48 25q3 3 7 3q12 0 26.5 -16t8.5 -27q-29 -63 -92 -63z" />
    <glyph glyph-name="Ograve" unicode="&#xd2;" horiz-adv-x="754" 
d="M471 693q73 -3 121 -35.5t67.5 -78t23 -103t-4.5 -105.5t-22 -92q33 3 72.5 16t65.5 30q7 0 9 -10.5t-1 -22.5t-9 -16q-71 -49 -158 -59q-40 -99 -117.5 -162t-181.5 -64q-135 0 -187 89q-33 55 -27 139.5t49 137.5q6 5 18 5q24 0 48.5 -19.5t19.5 -35.5
q-25 -42 -26.5 -96.5t26.5 -97t81 -43.5q109 -1 167 154q-130 17 -212.5 105t-62.5 204q15 84 82 122t159 38zM461 611q-91 0 -105 -90q-11 -71 36 -140t135 -88q9 36 15 81.5t6 102t-21.5 95t-65.5 39.5zM476 879q5 -8 28 -40t34 -49q11 -15 -3 -25t-35 -10q-22 0 -31 10
l-82 96q-14 16 17 28q14 5 32 5q29 0 40 -15z" />
    <glyph glyph-name="Oacute" unicode="&#xd3;" horiz-adv-x="754" 
d="M471 693q73 -3 121 -35.5t67.5 -78t23 -103t-4.5 -105.5t-22 -92q33 3 72.5 16t65.5 30q7 0 9 -10.5t-1 -22.5t-9 -16q-71 -49 -158 -59q-40 -99 -117.5 -162t-181.5 -64q-135 0 -187 89q-33 55 -27 139.5t49 137.5q6 5 18 5q24 0 48.5 -19.5t19.5 -35.5
q-25 -42 -26.5 -96.5t26.5 -97t81 -43.5q109 -1 167 154q-130 17 -212.5 105t-62.5 204q15 84 82 122t159 38zM461 611q-91 0 -105 -90q-11 -71 36 -140t135 -88q9 36 15 81.5t6 102t-21.5 95t-65.5 39.5zM505 880q11 15 41 15q40 0 52 -17q6 -8 -1 -16l-82 -96
q-9 -10 -31 -10q-23 0 -37.5 10t-3.5 25q11 17 34 49t28 40z" />
    <glyph glyph-name="Ocircumflex" unicode="&#xd4;" horiz-adv-x="754" 
d="M471 693q73 -3 121 -35.5t67.5 -78t23 -103t-4.5 -105.5t-22 -92q33 3 72.5 16t65.5 30q7 0 9 -10.5t-1 -22.5t-9 -16q-71 -49 -158 -59q-40 -99 -117.5 -162t-181.5 -64q-135 0 -187 89q-33 55 -27 139.5t49 137.5q6 5 18 5q24 0 48.5 -19.5t19.5 -35.5
q-25 -42 -26.5 -96.5t26.5 -97t81 -43.5q109 -1 167 154q-130 17 -212.5 105t-62.5 204q15 84 82 122t159 38zM461 611q-91 0 -105 -90q-11 -71 36 -140t135 -88q9 36 15 81.5t6 102t-21.5 95t-65.5 39.5zM485 885q15 9 38 9q25 0 37 -9q10 -8 28 -27t38.5 -42t24.5 -27
q13 -15 -18 -26q-17 -6 -33 -6q-20 0 -27 8l-57 59l-80 -62q-8 -7 -21 -7q-25 0 -41 16t0 33q30 26 111 81z" />
    <glyph glyph-name="Otilde" unicode="&#xd5;" horiz-adv-x="754" 
d="M471 693q73 -3 121 -35.5t67.5 -78t23 -103t-4.5 -105.5t-22 -92q33 3 72.5 16t65.5 30q7 0 9 -10.5t-1 -22.5t-9 -16q-71 -49 -158 -59q-40 -99 -117.5 -162t-181.5 -64q-135 0 -187 89q-33 55 -27 139.5t49 137.5q6 5 18 5q24 0 48.5 -19.5t19.5 -35.5
q-25 -42 -26.5 -96.5t26.5 -97t81 -43.5q109 -1 167 154q-130 17 -212.5 105t-62.5 204q15 84 82 122t159 38zM461 611q-91 0 -105 -90q-11 -71 36 -140t135 -88q9 36 15 81.5t6 102t-21.5 95t-65.5 39.5zM544 765q-22 1 -55.5 18t-47.5 17q-26 0 -47 -27q-3 -3 -7 -3
q-13 0 -30 15.5t-11 26.5q13 27 38.5 46.5t58.5 19.5q23 -1 55 -18t48 -17q27 0 48 25q3 3 7 3q12 0 26.5 -16t8.5 -27q-29 -63 -92 -63z" />
    <glyph glyph-name="Odieresis" unicode="&#xd6;" horiz-adv-x="754" 
d="M471 693q73 -3 121 -35.5t67.5 -78t23 -103t-4.5 -105.5t-22 -92q33 3 72.5 16t65.5 30q7 0 9 -10.5t-1 -22.5t-9 -16q-71 -49 -158 -59q-40 -99 -117.5 -162t-181.5 -64q-135 0 -187 89q-33 55 -27 139.5t49 137.5q6 5 18 5q24 0 48.5 -19.5t19.5 -35.5
q-25 -42 -26.5 -96.5t26.5 -97t81 -43.5q109 -1 167 154q-130 17 -212.5 105t-62.5 204q15 84 82 122t159 38zM461 611q-91 0 -105 -90q-11 -71 36 -140t135 -88q9 36 15 81.5t6 102t-21.5 95t-65.5 39.5zM425 756q-30 0 -45 18t-14 42q4 24 22 41.5t47 18.5
q29 0 44.5 -18.5t12.5 -42.5q-2 -23 -20.5 -41t-46.5 -18zM588 756q-30 0 -44.5 18.5t-11.5 41.5q2 23 19.5 41t46.5 19q30 0 45 -18t14 -42q-2 -24 -20.5 -42t-48.5 -18z" />
    <glyph glyph-name="multiply" unicode="&#xd7;" horiz-adv-x="565" 
d="M292 239l-127 -85q-4 -2 -8 -2q-12 0 -29 13.5t-24 27.5t2 23l118 82l-78 67q-15 13 3.5 37.5t40.5 24.5q10 0 17 -6l89 -75l117 78q6 3 13 3q15 0 31.5 -14t22 -28.5t-3.5 -23.5l-113 -74l72 -62q17 -15 0 -39.5t-41 -24.5q-11 0 -17 6z" />
    <glyph glyph-name="Oslash" unicode="&#xd8;" horiz-adv-x="709" 
d="M543 677l24 40q7 12 23 12q22 0 43 -17.5t13 -30.5q-4 -6 -13 -22t-15 -24q36 -37 52.5 -95t14.5 -120t-18 -128q-33 -136 -121 -219t-200 -82q-51 0 -88 15q-8 -11 -32 -52q-8 -12 -22 -12q-22 0 -43 18t-13 31q1 2 12.5 21.5t18.5 28.5q-54 54 -57.5 147.5t47.5 166.5
q8 8 20 8q23 0 47.5 -19.5t21.5 -35.5q-47 -92 -16 -164q40 67 123 220.5t132 235.5q-17 11 -46 13h-6q-71 0 -97.5 -57.5t-3.5 -110.5q3 -19 -15.5 -38.5t-37.5 -19.5q-8 0 -13 4q-27 25 -42.5 62.5t-7.5 79.5q16 84 79.5 122t154.5 38q44 -1 81 -16zM556 529
q-43 -73 -128.5 -227t-127.5 -224q21 -6 41 -6q89 0 154 102q48 75 65.5 170.5t-4.5 184.5z" />
    <glyph glyph-name="Ugrave" unicode="&#xd9;" horiz-adv-x="918" 
d="M464 673q19 17 63 17q27 0 47 -7t21 -19q-78 -238 -138 -444q-43 -148 33 -148q48 0 96.5 53t72.5 130q20 64 62.5 208t57.5 194q17 15 51 15q30 0 54 -11t25 -27q-50 -135 -138 -459q-25 -101 13 -102q42 0 81 45.5t63 95.5q2 3 6 3q10 0 22.5 -9.5t9.5 -15.5
q-35 -75 -95.5 -137.5t-132.5 -62.5q-41 0 -67 28.5t-25 79.5q-33 -47 -86 -78t-107 -31q-193 0 -123 265q0 1 97 314q-22 -26 -57.5 -43.5t-63.5 -25t-52.5 -23t-29.5 -39.5q-12 -51 31 -65q12 -7 3.5 -34t-25.5 -28q-3 0 -8 -0.5t-7 -0.5q-63 0 -100.5 40.5t-23.5 95.5
q10 40 40.5 64.5t72.5 38t86.5 25.5t92 36.5t78.5 61.5zM681 879q5 -8 28 -40t34 -49q11 -15 -3 -25t-35 -10q-22 0 -31 10l-82 96q-14 16 17 28q14 5 32 5q29 0 40 -15z" />
    <glyph glyph-name="Uacute" unicode="&#xda;" horiz-adv-x="918" 
d="M464 673q19 17 63 17q27 0 47 -7t21 -19q-78 -238 -138 -444q-43 -148 33 -148q48 0 96.5 53t72.5 130q20 64 62.5 208t57.5 194q17 15 51 15q30 0 54 -11t25 -27q-50 -135 -138 -459q-25 -101 13 -102q42 0 81 45.5t63 95.5q2 3 6 3q10 0 22.5 -9.5t9.5 -15.5
q-35 -75 -95.5 -137.5t-132.5 -62.5q-41 0 -67 28.5t-25 79.5q-33 -47 -86 -78t-107 -31q-193 0 -123 265q0 1 97 314q-22 -26 -57.5 -43.5t-63.5 -25t-52.5 -23t-29.5 -39.5q-12 -51 31 -65q12 -7 3.5 -34t-25.5 -28q-3 0 -8 -0.5t-7 -0.5q-63 0 -100.5 40.5t-23.5 95.5
q10 40 40.5 64.5t72.5 38t86.5 25.5t92 36.5t78.5 61.5zM710 880q11 15 41 15q40 0 52 -17q6 -8 -1 -16l-82 -96q-9 -10 -31 -10q-23 0 -37.5 10t-3.5 25q11 17 34 49t28 40z" />
    <glyph glyph-name="Ucircumflex" unicode="&#xdb;" horiz-adv-x="918" 
d="M464 673q19 17 63 17q27 0 47 -7t21 -19q-78 -238 -138 -444q-43 -148 33 -148q48 0 96.5 53t72.5 130q20 64 62.5 208t57.5 194q17 15 51 15q30 0 54 -11t25 -27q-50 -135 -138 -459q-25 -101 13 -102q42 0 81 45.5t63 95.5q2 3 6 3q10 0 22.5 -9.5t9.5 -15.5
q-35 -75 -95.5 -137.5t-132.5 -62.5q-41 0 -67 28.5t-25 79.5q-33 -47 -86 -78t-107 -31q-193 0 -123 265q0 1 97 314q-22 -26 -57.5 -43.5t-63.5 -25t-52.5 -23t-29.5 -39.5q-12 -51 31 -65q12 -7 3.5 -34t-25.5 -28q-3 0 -8 -0.5t-7 -0.5q-63 0 -100.5 40.5t-23.5 95.5
q10 40 40.5 64.5t72.5 38t86.5 25.5t92 36.5t78.5 61.5zM690 885q15 9 38 9q25 0 37 -9q10 -8 28 -27t38.5 -42t24.5 -27q13 -15 -18 -26q-17 -6 -33 -6q-20 0 -27 8l-57 59l-80 -62q-8 -7 -21 -7q-25 0 -41 16t0 33q30 26 111 81z" />
    <glyph glyph-name="Udieresis" unicode="&#xdc;" horiz-adv-x="918" 
d="M464 673q19 17 63 17q27 0 47 -7t21 -19q-78 -238 -138 -444q-43 -148 33 -148q48 0 96.5 53t72.5 130q20 64 62.5 208t57.5 194q17 15 51 15q30 0 54 -11t25 -27q-50 -135 -138 -459q-25 -101 13 -102q42 0 81 45.5t63 95.5q2 3 6 3q10 0 22.5 -9.5t9.5 -15.5
q-35 -75 -95.5 -137.5t-132.5 -62.5q-41 0 -67 28.5t-25 79.5q-33 -47 -86 -78t-107 -31q-193 0 -123 265q0 1 97 314q-22 -26 -57.5 -43.5t-63.5 -25t-52.5 -23t-29.5 -39.5q-12 -51 31 -65q12 -7 3.5 -34t-25.5 -28q-3 0 -8 -0.5t-7 -0.5q-63 0 -100.5 40.5t-23.5 95.5
q10 40 40.5 64.5t72.5 38t86.5 25.5t92 36.5t78.5 61.5zM630 756q-30 0 -45 18t-14 42q4 24 22 41.5t47 18.5q29 0 44.5 -18.5t12.5 -42.5q-2 -23 -20.5 -41t-46.5 -18zM793 756q-30 0 -44.5 18.5t-11.5 41.5q2 23 19.5 41t46.5 19q30 0 45 -18t14 -42q-2 -24 -20.5 -42
t-48.5 -18z" />
    <glyph glyph-name="Yacute" unicode="&#xdd;" horiz-adv-x="901" 
d="M911 213q1 4 7 4q10 0 22.5 -9.5t8.5 -16.5q-52 -102 -110.5 -159t-139.5 -89q-11 -47 -20.5 -77t-27.5 -64t-40.5 -53t-58 -32t-81.5 -13q-57 0 -88.5 31t-24.5 79q5 30 21 54t35.5 39.5t51.5 29.5t55.5 21t60.5 17q6 18 20.5 67t18.5 61q-72 -96 -167 -96
q-93 0 -122.5 70.5t4.5 194.5q6 24 91 298q-22 -26 -57.5 -43.5t-64 -25t-52.5 -23t-30 -39.5q-12 -52 30 -65q8 -3 8.5 -18t-8 -29t-21.5 -15h-12q-65 0 -102 39t-25 94q9 41 39.5 66t73 38t87.5 25t93 37t79 63q23 16 62 16q27 0 48 -8t20 -18q-92 -284 -133 -428
q-43 -149 29 -150q50 0 97.5 51t77.5 134q72 246 116 389q13 14 48 14q30 0 56 -10t27 -24q-28 -77 -92.5 -289t-101.5 -341q118 49 192 203zM569 -90q-34 -12 -64 -35t-39 -44q-8 -21 -3 -34t22 -13q54 2 84 126zM716 881q11 15 41 15q40 0 52 -17q6 -8 -1 -16l-82 -96
q-9 -10 -31 -10q-23 0 -37.5 10t-3.5 25q11 17 34 49t28 40z" />
    <glyph glyph-name="Thorn" unicode="&#xde;" horiz-adv-x="756" 
d="M503 704q2 0 4.5 0.5t3.5 0.5q19 0 35.5 -10.5t21 -22t-4.5 -20.5q-18 -14 -39 -68q109 -19 173 -87.5t44 -176.5q-19 -100 -92 -163.5t-184 -63.5q-43 0 -86 10q-22 -76 -26 -89q-8 -22 -61 -22q-29 0 -49.5 9.5t-14.5 25.5t59 203.5t77 260.5q-90 -19 -134.5 -77
t-1.5 -127q8 -13 -17.5 -31t-51.5 -18q-11 0 -18 4q-61 34 -61 103q-1 105 91.5 169t228.5 74q48 107 103 116zM492 496q-13 -40 -30 -97t-35.5 -122.5t-24.5 -87.5q19 -4 42 -4q65 0 110.5 39t58.5 110q13 69 -22.5 110t-98.5 52z" />
    <glyph glyph-name="germandbls" unicode="&#xdf;" horiz-adv-x="586" 
d="M596 214q2 3 6 3q9 0 21.5 -9.5t10.5 -15.5q-62 -141 -182 -141q-2 0 -7 0.5t-8 0.5q-47 -54 -128 -59q-153 0 -157 146q0 10 18 19.5t36 9.5q25 0 30 -19q8 -35 24 -53.5t34 -18.5q16 0 30 15q-14 20 -3.5 46t32.5 28q3 102 -87 154q-20 11 -15 48.5t30 47.5
q42 17 66.5 38.5t33.5 62.5q8 38 -7.5 63t-50.5 24q-32 0 -57.5 -24.5t-56.5 -97.5q-25 -62 -62 -229t-32 -232q1 -13 -18 -20.5t-45 -7.5t-45 7t-19 19q8 139 42.5 290t90.5 258q68 129 201 131q89 1 141.5 -53.5t38.5 -136.5q-9 -49 -48 -86t-89 -53q71 -50 98 -118.5
t5 -147.5q78 4 128 111z" />
    <glyph glyph-name="agrave" unicode="&#xe0;" horiz-adv-x="523" 
d="M301 428q121 0 185 -64q6 -13 -13.5 -38t-33.5 -25q-61 44 -131 44q-13 0 -19 -1q-44 -4 -83 -38.5t-60 -86.5q-21 -46 -24 -85.5t12 -52.5q8 -8 19 -8q35 0 79.5 72.5t67.5 148.5q10 10 33 10q25 0 51 -10.5t30 -21.5q-28 -100 -33 -124q-17 -75 17 -75q27 1 68.5 42.5
t65.5 97.5q1 4 7 4q10 0 23 -9.5t9 -15.5q-45 -90 -105 -144t-129 -54q-37 0 -54.5 32.5t-9.5 87.5q-35 -59 -72 -90.5t-95 -31.5q-57 0 -91.5 40t-21.5 122q16 111 106.5 192.5t201.5 81.5zM296 610q5 -8 28 -40t34 -49q11 -15 -3 -25t-35 -10q-22 0 -31 10l-82 96
q-14 16 17 28q14 5 32 5q29 0 40 -15z" />
    <glyph glyph-name="aacute" unicode="&#xe1;" horiz-adv-x="523" 
d="M301 428q121 0 185 -64q6 -13 -13.5 -38t-33.5 -25q-61 44 -131 44q-13 0 -19 -1q-44 -4 -83 -38.5t-60 -86.5q-21 -46 -24 -85.5t12 -52.5q8 -8 19 -8q35 0 79.5 72.5t67.5 148.5q10 10 33 10q25 0 51 -10.5t30 -21.5q-28 -100 -33 -124q-17 -75 17 -75q27 1 68.5 42.5
t65.5 97.5q1 4 7 4q10 0 23 -9.5t9 -15.5q-45 -90 -105 -144t-129 -54q-37 0 -54.5 32.5t-9.5 87.5q-35 -59 -72 -90.5t-95 -31.5q-57 0 -91.5 40t-21.5 122q16 111 106.5 192.5t201.5 81.5zM325 611q11 15 41 15q40 0 52 -17q6 -8 -1 -16l-82 -96q-9 -10 -31 -10
q-23 0 -37.5 10t-3.5 25q11 17 34 49t28 40z" />
    <glyph glyph-name="acircumflex" unicode="&#xe2;" horiz-adv-x="523" 
d="M301 428q121 0 185 -64q6 -13 -13.5 -38t-33.5 -25q-61 44 -131 44q-13 0 -19 -1q-44 -4 -83 -38.5t-60 -86.5q-21 -46 -24 -85.5t12 -52.5q8 -8 19 -8q35 0 79.5 72.5t67.5 148.5q10 10 33 10q25 0 51 -10.5t30 -21.5q-28 -100 -33 -124q-17 -75 17 -75q27 1 68.5 42.5
t65.5 97.5q1 4 7 4q10 0 23 -9.5t9 -15.5q-45 -90 -105 -144t-129 -54q-37 0 -54.5 32.5t-9.5 87.5q-35 -59 -72 -90.5t-95 -31.5q-57 0 -91.5 40t-21.5 122q16 111 106.5 192.5t201.5 81.5zM305 616q15 9 38 9q25 0 37 -9q10 -8 28 -27t38.5 -42t24.5 -27q13 -15 -18 -26
q-16 -6 -33 -6q-20 0 -27 8l-57 59l-80 -62q-8 -7 -21 -7q-25 0 -41 16t0 33q30 26 111 81z" />
    <glyph glyph-name="atilde" unicode="&#xe3;" horiz-adv-x="523" 
d="M301 428q121 0 185 -64q6 -13 -13.5 -38t-33.5 -25q-61 44 -131 44q-13 0 -19 -1q-44 -4 -83 -38.5t-60 -86.5q-21 -46 -24 -85.5t12 -52.5q8 -8 19 -8q35 0 79.5 72.5t67.5 148.5q10 10 33 10q25 0 51 -10.5t30 -21.5q-28 -100 -33 -124q-17 -75 17 -75q27 1 68.5 42.5
t65.5 97.5q1 4 7 4q10 0 23 -9.5t9 -15.5q-45 -90 -105 -144t-129 -54q-37 0 -54.5 32.5t-9.5 87.5q-35 -59 -72 -90.5t-95 -31.5q-57 0 -91.5 40t-21.5 122q16 111 106.5 192.5t201.5 81.5zM364 496q-22 1 -55.5 18t-47.5 17q-26 0 -47 -27q-3 -3 -7 -3q-13 0 -30 15.5
t-11 26.5q13 27 38.5 46.5t58.5 19.5q23 -1 55 -18t48 -17q27 0 48 25q3 3 7 3q12 0 26.5 -16t8.5 -27q-29 -63 -92 -63z" />
    <glyph glyph-name="adieresis" unicode="&#xe4;" horiz-adv-x="523" 
d="M301 428q121 0 185 -64q6 -13 -13.5 -38t-33.5 -25q-61 44 -131 44q-13 0 -19 -1q-44 -4 -83 -38.5t-60 -86.5q-21 -46 -24 -85.5t12 -52.5q8 -8 19 -8q35 0 79.5 72.5t67.5 148.5q10 10 33 10q25 0 51 -10.5t30 -21.5q-28 -100 -33 -124q-17 -75 17 -75q27 1 68.5 42.5
t65.5 97.5q1 4 7 4q10 0 23 -9.5t9 -15.5q-45 -90 -105 -144t-129 -54q-37 0 -54.5 32.5t-9.5 87.5q-35 -59 -72 -90.5t-95 -31.5q-57 0 -91.5 40t-21.5 122q16 111 106.5 192.5t201.5 81.5zM245 487q-30 0 -45 18t-14 42q4 24 22 41.5t47 18.5q29 0 44.5 -18.5t12.5 -42.5
q-2 -23 -20.5 -41t-46.5 -18zM408 487q-30 0 -44.5 18.5t-11.5 41.5q2 23 19.5 41t46.5 19q30 0 45 -18t14 -42q-2 -24 -20.5 -42t-48.5 -18z" />
    <glyph glyph-name="aring" unicode="&#xe5;" horiz-adv-x="523" 
d="M301 428q121 0 185 -64q6 -13 -13.5 -38t-33.5 -25q-61 44 -131 44q-13 0 -19 -1q-44 -4 -83 -38.5t-60 -86.5q-21 -46 -24 -85.5t12 -52.5q8 -8 19 -8q35 0 79.5 72.5t67.5 148.5q10 10 33 10q25 0 51 -10.5t30 -21.5q-28 -100 -33 -124q-17 -75 17 -75q27 1 68.5 42.5
t65.5 97.5q1 4 7 4q10 0 23 -9.5t9 -15.5q-45 -90 -105 -144t-129 -54q-37 0 -54.5 32.5t-9.5 87.5q-35 -59 -72 -90.5t-95 -31.5q-57 0 -91.5 40t-21.5 122q16 111 106.5 192.5t201.5 81.5zM338 641q45 -1 69.5 -25.5t18.5 -63.5q-4 -38 -34 -61t-73 -23q-44 0 -68.5 25
t-18.5 64q4 37 34 60.5t72 23.5zM334 587q-30 0 -38 -33q-3 -14 4.5 -23t22.5 -9q33 0 39 32q5 33 -28 33z" />
    <glyph glyph-name="ae" unicode="&#xe6;" horiz-adv-x="718" 
d="M250 423q104 0 146 -76q66 77 171 77q66 -1 100.5 -39t27.5 -86q-7 -64 -58 -101t-130 -37q-26 0 -66 7q-1 -44 21 -70t62 -27q74 0 120 35t84 107q3 4 9 4q10 0 21.5 -9.5t7.5 -16.5q-34 -66 -71 -109t-73.5 -61t-62.5 -24t-57 -6q-45 0 -83.5 21t-60.5 58
q-56 -74 -160 -74q-64 1 -97.5 31.5t-31.5 80.5q3 71 54 113.5t128 42.5q28 0 58 -6q2 52 -14.5 76t-55.5 24q-112 0 -206 -196q-1 -4 -9 -4q-11 0 -22 8.5t-7 16.5q55 120 116.5 177.5t138.5 62.5zM244 204q-30 -9 -47.5 -40.5t-9.5 -59.5t40 -28q20 0 35 11t23.5 32
t12.5 39t8 44q-20 5 -36 5q-14 0 -26 -3zM554 343q-40 0 -68.5 -37.5t-38.5 -82.5q6 -1 18 -1q40 0 67.5 18.5t39.5 46.5q10 20 6 37t-24 19z" />
    <glyph glyph-name="ccedilla" unicode="&#xe7;" horiz-adv-x="418" 
d="M427 214q1 4 7 4q9 0 22 -10t10 -16q-81 -171 -230 -195l-32 -44q45 -6 62.5 -38t-0.5 -66q-12 -28 -41 -45.5t-65 -17.5q-46 0 -90 31q-9 6 0.5 25.5t20.5 19.5q35 -19 57 -19q29 0 40 24q12 17 4 32t-38 15h-3q-14 0 -18 8.5t4 21.5l31 49q-77 2 -124.5 56t-39.5 131
q10 101 81.5 173.5t178.5 71.5q65 -1 96.5 -29t29 -64t-26.5 -68q-16 -25 -69 -25q-24 0 -38.5 7t-8.5 18q7 9 12.5 21.5t9 25.5t0 22.5t-15.5 10.5q-47 0 -77 -52.5t-35 -106.5q-4 -53 22 -83t75 -30q64 0 112.5 39.5t76.5 102.5z" />
    <glyph glyph-name="egrave" unicode="&#xe8;" horiz-adv-x="456" 
d="M266 424q57 -1 92.5 -29t39 -65t-13.5 -77q-22 -44 -68.5 -68.5t-108.5 -24.5q-35 0 -67 7q-1 -44 27 -69t81 -28q2 0 6.5 -0.5t6.5 -0.5q55 0 112 34.5t93 110.5q1 4 7 4q10 0 22.5 -9.5t9.5 -16.5q-49 -100 -119.5 -151t-176.5 -51q-114 3 -165 65t-36 151
q16 100 86.5 159t171.5 59zM253 343q-40 0 -68.5 -38t-38.5 -82q6 -1 18 -1q41 0 69 18.5t39 46.5q10 20 5.5 37.5t-24.5 18.5zM252 610q5 -8 28 -40t34 -49q11 -15 -3 -25t-35 -10q-22 0 -31 10l-82 96q-14 16 17 28q14 5 32 5q29 0 40 -15z" />
    <glyph glyph-name="eacute" unicode="&#xe9;" horiz-adv-x="456" 
d="M266 424q57 -1 92.5 -29t39 -65t-13.5 -77q-22 -44 -68.5 -68.5t-108.5 -24.5q-35 0 -67 7q-1 -44 27 -69t81 -28q2 0 6.5 -0.5t6.5 -0.5q55 0 112 34.5t93 110.5q1 4 7 4q10 0 22.5 -9.5t9.5 -16.5q-49 -100 -119.5 -151t-176.5 -51q-114 3 -165 65t-36 151
q16 100 86.5 159t171.5 59zM253 343q-40 0 -68.5 -38t-38.5 -82q6 -1 18 -1q41 0 69 18.5t39 46.5q10 20 5.5 37.5t-24.5 18.5zM281 611q11 15 41 15q40 0 52 -17q6 -8 -1 -16l-82 -96q-9 -10 -31 -10q-23 0 -37.5 10t-3.5 25q11 17 34 49t28 40z" />
    <glyph glyph-name="ecircumflex" unicode="&#xea;" horiz-adv-x="456" 
d="M266 424q57 -1 92.5 -29t39 -65t-13.5 -77q-22 -44 -68.5 -68.5t-108.5 -24.5q-35 0 -67 7q-1 -44 27 -69t81 -28q2 0 6.5 -0.5t6.5 -0.5q55 0 112 34.5t93 110.5q1 4 7 4q10 0 22.5 -9.5t9.5 -16.5q-49 -100 -119.5 -151t-176.5 -51q-114 3 -165 65t-36 151
q16 100 86.5 159t171.5 59zM253 343q-40 0 -68.5 -38t-38.5 -82q6 -1 18 -1q41 0 69 18.5t39 46.5q10 20 5.5 37.5t-24.5 18.5zM261 616q15 9 38 9q25 0 37 -9q10 -8 28 -27t38.5 -42t24.5 -27q13 -15 -18 -26q-16 -6 -33 -6q-20 0 -27 8l-57 59l-80 -62q-8 -7 -21 -7
q-25 0 -41 16t0 33q30 26 111 81z" />
    <glyph glyph-name="edieresis" unicode="&#xeb;" horiz-adv-x="456" 
d="M266 424q57 -1 92.5 -29t39 -65t-13.5 -77q-22 -44 -68.5 -68.5t-108.5 -24.5q-35 0 -67 7q-1 -44 27 -69t81 -28q2 0 6.5 -0.5t6.5 -0.5q55 0 112 34.5t93 110.5q1 4 7 4q10 0 22.5 -9.5t9.5 -16.5q-49 -100 -119.5 -151t-176.5 -51q-114 3 -165 65t-36 151
q16 100 86.5 159t171.5 59zM253 343q-40 0 -68.5 -38t-38.5 -82q6 -1 18 -1q41 0 69 18.5t39 46.5q10 20 5.5 37.5t-24.5 18.5zM201 487q-30 0 -45 18t-14 42q4 24 22 41.5t47 18.5q29 0 44.5 -18.5t12.5 -42.5q-2 -23 -20.5 -41t-46.5 -18zM364 487q-30 0 -44.5 18.5
t-11.5 41.5q2 23 19.5 41t46.5 19q30 0 45 -18t14 -42q-2 -24 -20.5 -42t-48.5 -18z" />
    <glyph glyph-name="igrave" unicode="&#xec;" horiz-adv-x="245" 
d="M73 409q4 16 60 16q31 0 53 -6t18 -17q-10 -30 -40 -122t-43 -135q-11 -32 -10 -53.5t20 -20.5q24 1 61.5 43.5t62.5 98.5q1 4 8 4q10 0 22 -10t8 -16q-102 -199 -224 -199q-113 0 -84 128q20 88 88 289zM136 606q5 -8 28 -40t34 -49q11 -15 -3 -25t-35 -10q-22 0 -31 10
l-82 96q-14 16 17 28q14 5 32 5q29 0 40 -15z" />
    <glyph glyph-name="iacute" unicode="&#xed;" horiz-adv-x="245" 
d="M73 409q4 16 60 16q31 0 53 -6t18 -17q-10 -30 -40 -122t-43 -135q-11 -32 -10 -53.5t20 -20.5q24 1 61.5 43.5t62.5 98.5q1 4 8 4q10 0 22 -10t8 -16q-102 -199 -224 -199q-113 0 -84 128q20 88 88 289zM165 607q11 15 41 15q40 0 52 -17q6 -8 -1 -16l-82 -96
q-9 -10 -31 -10q-23 0 -37.5 10t-3.5 25q11 17 34 49t28 40z" />
    <glyph glyph-name="icircumflex" unicode="&#xee;" horiz-adv-x="245" 
d="M73 409q4 16 60 16q31 0 53 -6t18 -17q-10 -30 -40 -122t-43 -135q-11 -32 -10 -53.5t20 -20.5q24 1 61.5 43.5t62.5 98.5q1 4 8 4q10 0 22 -10t8 -16q-102 -199 -224 -199q-113 0 -84 128q20 88 88 289zM145 612q15 9 38 9q25 0 37 -9q10 -8 28 -27t38.5 -42t24.5 -27
q13 -15 -18 -26q-16 -6 -33 -6q-20 0 -27 8l-57 59l-80 -62q-8 -7 -21 -7q-25 0 -41 16t0 33q30 26 111 81z" />
    <glyph glyph-name="idieresis" unicode="&#xef;" horiz-adv-x="245" 
d="M73 409q4 16 60 16q31 0 53 -6t18 -17q-10 -30 -40 -122t-43 -135q-11 -32 -10 -53.5t20 -20.5q24 1 61.5 43.5t62.5 98.5q1 4 8 4q10 0 22 -10t8 -16q-102 -199 -224 -199q-113 0 -84 128q20 88 88 289zM85 483q-30 0 -45 18t-14 42q4 24 22 41.5t47 18.5
q29 0 44.5 -18.5t12.5 -42.5q-2 -23 -20.5 -41t-46.5 -18zM248 483q-30 0 -44.5 18.5t-11.5 41.5q2 23 19.5 41t46.5 19q30 0 45 -18t14 -42q-2 -24 -20.5 -42t-48.5 -18z" />
    <glyph glyph-name="eth" unicode="&#xf0;" horiz-adv-x="480" 
d="M132 -10q-75 2 -111 64t-13 158q17 69 60.5 120t95.5 74t106 23q38 0 69 -12q15 55 15 98q-11 -4 -23.5 -8t-28 -8.5t-23.5 -7.5q-15 0 -24 12.5t-7.5 27t13.5 17.5l80 26q-9 18 -21 29t-29 15.5t-30.5 5.5t-36.5 1q-22 0 -22.5 32.5t18.5 37.5q16 3 37 3q32 0 61 -7
q85 -13 115 -88q5 2 13.5 5t15.5 5.5t13 4.5q19 1 26.5 -25.5t-10.5 -32.5l-41 -13q9 -89 -15 -190q-43 -170 -95 -250q10 -3 22 -3q79 0 128 110q1 4 6 4q9 0 21.5 -10t9.5 -16q-61 -137 -179 -137q-21 0 -46 5q-75 -70 -170 -70zM151 77q34 0 59 27q-10 20 2 40.5t34 20.5
h6q36 60 71 176q-23 6 -43 6q-51 0 -92 -34.5t-61 -95.5q-19 -56 -12.5 -97.5t36.5 -42.5z" />
    <glyph glyph-name="ntilde" unicode="&#xf1;" 
d="M337 427q56 -1 74.5 -37.5t3.5 -99.5q-5 -20 -21 -72t-22 -77q-15 -70 14 -70t65.5 42t62.5 101q1 4 7 4q10 0 22.5 -9.5t9.5 -16.5q-99 -201 -225 -201q-117 0 -90 119q4 19 21 90.5t19 78.5q13 53 -19 53h-3q-43 -3 -102 -73q-20 -68 -64 -249q-9 -17 -66 -17
q-61 0 -67 24q32 131 110 399q15 13 49 13q60 0 74 -29q-16 -56 -19 -66q94 94 166 93zM319 495q-22 1 -55.5 18t-47.5 17q-26 0 -47 -27q-3 -3 -7 -3q-13 0 -30 15.5t-11 26.5q13 27 38.5 46.5t58.5 19.5q23 -1 55 -18t48 -17q27 0 48 25q3 3 7 3q12 0 26.5 -16t8.5 -27
q-29 -63 -92 -63z" />
    <glyph glyph-name="ograve" unicode="&#xf2;" horiz-adv-x="511" 
d="M267 427q86 0 127 -51.5t34 -125.5t-52 -148q2 0 5.5 -0.5t5.5 -0.5q85 0 134 113q1 3 7 3q10 0 23 -9t9 -16q-67 -140 -184 -140q-15 0 -43 4q-72 -66 -173 -66q-87 0 -132.5 51.5t-21.5 161.5q22 103 95 163t166 61zM143 204q-31 -134 37 -134q30 0 54 27
q-12 21 -0.5 43t34.5 22h3q28 65 26.5 124.5t-44.5 59.5q-41 0 -70 -46t-40 -96zM252 609q5 -8 28 -40t34 -49q11 -15 -3 -25t-35 -10q-22 0 -31 10l-82 96q-14 16 17 28q14 5 32 5q29 0 40 -15z" />
    <glyph glyph-name="oacute" unicode="&#xf3;" horiz-adv-x="511" 
d="M267 427q86 0 127 -51.5t34 -125.5t-52 -148q2 0 5.5 -0.5t5.5 -0.5q85 0 134 113q1 3 7 3q10 0 23 -9t9 -16q-67 -140 -184 -140q-15 0 -43 4q-72 -66 -173 -66q-87 0 -132.5 51.5t-21.5 161.5q22 103 95 163t166 61zM143 204q-31 -134 37 -134q30 0 54 27
q-12 21 -0.5 43t34.5 22h3q28 65 26.5 124.5t-44.5 59.5q-41 0 -70 -46t-40 -96zM281 610q11 15 41 15q40 0 52 -17q6 -8 -1 -16l-82 -96q-9 -10 -31 -10q-23 0 -37.5 10t-3.5 25q11 17 34 49t28 40z" />
    <glyph glyph-name="ocircumflex" unicode="&#xf4;" horiz-adv-x="511" 
d="M267 427q86 0 127 -51.5t34 -125.5t-52 -148q2 0 5.5 -0.5t5.5 -0.5q85 0 134 113q1 3 7 3q10 0 23 -9t9 -16q-67 -140 -184 -140q-15 0 -43 4q-72 -66 -173 -66q-87 0 -132.5 51.5t-21.5 161.5q22 103 95 163t166 61zM143 204q-31 -134 37 -134q30 0 54 27
q-12 21 -0.5 43t34.5 22h3q28 65 26.5 124.5t-44.5 59.5q-41 0 -70 -46t-40 -96zM261 615q15 9 38 9q25 0 37 -9q10 -8 28 -27t38.5 -42t24.5 -27q13 -15 -18 -26q-16 -6 -33 -6q-20 0 -27 8l-57 59l-80 -62q-8 -7 -21 -7q-25 0 -41 16t0 33q30 26 111 81z" />
    <glyph glyph-name="otilde" unicode="&#xf5;" horiz-adv-x="511" 
d="M267 427q86 0 127 -51.5t34 -125.5t-52 -148q2 0 5.5 -0.5t5.5 -0.5q85 0 134 113q1 3 7 3q10 0 23 -9t9 -16q-67 -140 -184 -140q-15 0 -43 4q-72 -66 -173 -66q-87 0 -132.5 51.5t-21.5 161.5q22 103 95 163t166 61zM143 204q-31 -134 37 -134q30 0 54 27
q-12 21 -0.5 43t34.5 22h3q28 65 26.5 124.5t-44.5 59.5q-41 0 -70 -46t-40 -96zM320 495q-22 1 -55.5 18t-47.5 17q-26 0 -47 -27q-3 -3 -7 -3q-13 0 -30 15.5t-11 26.5q13 27 38.5 46.5t58.5 19.5q23 -1 55 -18t48 -17q27 0 48 25q3 3 7 3q12 0 26.5 -16t8.5 -27
q-29 -63 -92 -63z" />
    <glyph glyph-name="odieresis" unicode="&#xf6;" horiz-adv-x="511" 
d="M267 427q86 0 127 -51.5t34 -125.5t-52 -148q2 0 5.5 -0.5t5.5 -0.5q85 0 134 113q1 3 7 3q10 0 23 -9t9 -16q-67 -140 -184 -140q-15 0 -43 4q-72 -66 -173 -66q-87 0 -132.5 51.5t-21.5 161.5q22 103 95 163t166 61zM143 204q-31 -134 37 -134q30 0 54 27
q-12 21 -0.5 43t34.5 22h3q28 65 26.5 124.5t-44.5 59.5q-41 0 -70 -46t-40 -96zM201 486q-30 0 -45 18t-14 42q4 24 22 41.5t47 18.5q29 0 44.5 -18.5t12.5 -42.5q-2 -23 -20.5 -41t-46.5 -18zM364 486q-30 0 -44.5 18.5t-11.5 41.5q2 23 19.5 41t46.5 19q30 0 45 -18
t14 -42q-2 -24 -20.5 -42t-48.5 -18z" />
    <glyph glyph-name="divide" unicode="&#xf7;" horiz-adv-x="532" 
d="M224 70q-26 0 -43.5 18t-15.5 44q2 25 21 43t45 18q27 0 43 -18t14 -44q-1 -25 -20 -43t-44 -18zM418 252h-296q-16 0 -21 20.5t4 41t27 20.5h291q18 0 24 -20.5t-2.5 -41t-26.5 -20.5zM312 391q-26 0 -43.5 18.5t-15.5 44.5q2 25 21 42.5t45 17.5q27 0 43 -17.5
t14 -43.5t-20.5 -44t-43.5 -18z" />
    <glyph glyph-name="oslash" unicode="&#xf8;" horiz-adv-x="532" 
d="M127 -70q-7 -15 -28 -15q-17 0 -27.5 11t-1.5 26q5 7 27 52q-56 18 -83 69.5t-10 129.5q20 98 93 161t167 63q11 0 31 -2q16 30 29 52q8 13 24 13q17 0 28.5 -13t2.5 -28q-12 -18 -21 -37q86 -28 99.5 -122.5t-47.5 -186.5q50 0 79.5 29t52.5 82q2 3 7 3q10 0 22.5 -9
t8.5 -16q-66 -140 -170 -140q-23 0 -43 4q-64 -65 -173 -65q-11 0 -33 2q-23 -43 -34 -63zM140 90q12 27 53 118.5t63 137.5q-46 -1 -81.5 -43t-49.5 -99q-19 -84 15 -114zM197 72q54 0 76 32q-12 22 -0.5 40t33.5 18h4q27 44 30.5 91.5t-21.5 76.5q-83 -177 -122 -258z" />
    <glyph glyph-name="ugrave" unicode="&#xf9;" 
d="M320 414q9 13 47 13q66 0 78 -28q-4 -17 -13.5 -49t-17.5 -59.5t-17 -61.5t-14.5 -60.5t-8 -49.5t0.5 -35.5t13 -12.5q25 0 63 42t64 100q3 4 8 4q10 0 22 -9t8 -16q-103 -201 -219 -199q-40 1 -57.5 37.5t-5.5 85.5q-37 -61 -81.5 -93t-108.5 -32t-84.5 40t-7.5 100
q11 57 43 166t34 116q9 15 50 15q28 0 50.5 -7.5t23.5 -20.5q-3 -10 -24 -88.5t-31 -122.5q-20 -82 -15 -100q4 -15 20 -15q28 1 64.5 43t56.5 98q30 96 59 199zM247 609q5 -8 28 -40t34 -49q11 -15 -3 -25t-35 -10q-22 0 -31 10l-82 96q-14 16 17 28q14 5 32 5q29 0 40 -15
z" />
    <glyph glyph-name="uacute" unicode="&#xfa;" 
d="M320 414q9 13 47 13q66 0 78 -28q-4 -17 -13.5 -49t-17.5 -59.5t-17 -61.5t-14.5 -60.5t-8 -49.5t0.5 -35.5t13 -12.5q25 0 63 42t64 100q3 4 8 4q10 0 22 -9t8 -16q-103 -201 -219 -199q-40 1 -57.5 37.5t-5.5 85.5q-37 -61 -81.5 -93t-108.5 -32t-84.5 40t-7.5 100
q11 57 43 166t34 116q9 15 50 15q28 0 50.5 -7.5t23.5 -20.5q-3 -10 -24 -88.5t-31 -122.5q-20 -82 -15 -100q4 -15 20 -15q28 1 64.5 43t56.5 98q30 96 59 199zM276 610q11 15 41 15q40 0 52 -17q6 -8 -1 -16l-82 -96q-9 -10 -31 -10q-23 0 -37.5 10t-3.5 25q11 17 34 49
t28 40z" />
    <glyph glyph-name="ucircumflex" unicode="&#xfb;" 
d="M320 414q9 13 47 13q66 0 78 -28q-4 -17 -13.5 -49t-17.5 -59.5t-17 -61.5t-14.5 -60.5t-8 -49.5t0.5 -35.5t13 -12.5q25 0 63 42t64 100q3 4 8 4q10 0 22 -9t8 -16q-103 -201 -219 -199q-40 1 -57.5 37.5t-5.5 85.5q-37 -61 -81.5 -93t-108.5 -32t-84.5 40t-7.5 100
q11 57 43 166t34 116q9 15 50 15q28 0 50.5 -7.5t23.5 -20.5q-3 -10 -24 -88.5t-31 -122.5q-20 -82 -15 -100q4 -15 20 -15q28 1 64.5 43t56.5 98q30 96 59 199zM256 615q15 9 38 9q25 0 37 -9q10 -8 28 -27t38.5 -42t24.5 -27q13 -15 -18 -26q-16 -6 -33 -6q-20 0 -27 8
l-57 59l-80 -62q-8 -7 -21 -7q-25 0 -41 16t0 33q30 26 111 81z" />
    <glyph glyph-name="udieresis" unicode="&#xfc;" 
d="M320 414q9 13 47 13q66 0 78 -28q-4 -17 -13.5 -49t-17.5 -59.5t-17 -61.5t-14.5 -60.5t-8 -49.5t0.5 -35.5t13 -12.5q25 0 63 42t64 100q3 4 8 4q10 0 22 -9t8 -16q-103 -201 -219 -199q-40 1 -57.5 37.5t-5.5 85.5q-37 -61 -81.5 -93t-108.5 -32t-84.5 40t-7.5 100
q11 57 43 166t34 116q9 15 50 15q28 0 50.5 -7.5t23.5 -20.5q-3 -10 -24 -88.5t-31 -122.5q-20 -82 -15 -100q4 -15 20 -15q28 1 64.5 43t56.5 98q30 96 59 199zM196 486q-30 0 -45 18t-14 42q4 24 22 41.5t47 18.5q29 0 44.5 -18.5t12.5 -42.5q-2 -23 -20.5 -41t-46.5 -18z
M359 486q-30 0 -44.5 18.5t-11.5 41.5q2 23 19.5 41t46.5 19q30 0 45 -18t14 -42q-2 -24 -20.5 -42t-48.5 -18z" />
    <glyph glyph-name="yacute" unicode="&#xfd;" 
d="M103 -296h-3q-55 0 -87.5 29t-25.5 79q4 30 19.5 54t34.5 39.5t51.5 30t56.5 21.5t63 18q17 44 41 124q-73 -107 -177 -107q-66 2 -84.5 43t-2.5 104q12 50 39 142.5t37 131.5q10 14 51 14q27 0 48.5 -7t23.5 -20q-39 -147 -63 -247q-20 -79 12 -79h2q28 2 62 44.5
t56 98.5q30 79 61 197q11 14 46 14q28 0 52 -8.5t27 -21.5q-1 -4 -107 -387q54 23 96 71t83 132q1 3 7 3q10 0 22.5 -9t8.5 -16q-53 -106 -105.5 -161.5t-129.5 -88.5q-41 -139 -83.5 -188.5t-131.5 -49.5zM116 -214h6q36 8 56 61q4 11 10 32.5t7 26.5q-59 -23 -86 -56
q-12 -14 -15.5 -29t2.5 -25t20 -10zM269 611q11 15 41 15q40 0 52 -17q6 -8 -1 -16l-82 -96q-9 -10 -31 -10q-23 0 -37.5 10t-3.5 25q11 17 34 49t28 40z" />
    <glyph glyph-name="thorn" unicode="&#xfe;" horiz-adv-x="508" 
d="M517 214q1 3 7 3q10 0 23 -9.5t9 -15.5q-66 -140 -179 -140q-13 0 -35 4q-63 -64 -147 -64q-60 0 -105 36q-37 -144 -72 -304q-4 -18 -66 -18q-28 0 -46 6t-15 18q170 703 251 945q6 14 49 14q21 0 41.5 -3.5t34 -10.5t10.5 -15q-4 -13 -38 -118t-54 -169q62 53 145 53
q50 -1 76.5 -38t27 -88.5t-14.5 -106t-42 -91.5q92 0 140 112zM269 159q20 43 27.5 81.5t-0.5 64t-33 27.5q-56 0 -102 -43q-8 -26 -51 -186q26 -31 69 -31q34 0 55 21q-16 20 -4.5 43.5t31.5 23.5q5 0 8 -1z" />
    <glyph glyph-name="ydieresis" unicode="&#xff;" 
d="M103 -296h-3q-55 0 -87.5 29t-25.5 79q4 30 19.5 54t34.5 39.5t51.5 30t56.5 21.5t63 18q17 44 41 124q-73 -107 -177 -107q-66 2 -84.5 43t-2.5 104q12 50 39 142.5t37 131.5q10 14 51 14q27 0 48.5 -7t23.5 -20q-39 -147 -63 -247q-20 -79 12 -79h2q28 2 62 44.5
t56 98.5q30 79 61 197q11 14 46 14q28 0 52 -8.5t27 -21.5q-1 -4 -107 -387q54 23 96 71t83 132q1 3 7 3q10 0 22.5 -9t8.5 -16q-53 -106 -105.5 -161.5t-129.5 -88.5q-41 -139 -83.5 -188.5t-131.5 -49.5zM116 -214h6q36 8 56 61q4 11 10 32.5t7 26.5q-59 -23 -86 -56
q-12 -14 -15.5 -29t2.5 -25t20 -10zM189 487q-30 0 -45 18t-14 42q4 24 22 41.5t47 18.5q29 0 44.5 -18.5t12.5 -42.5q-2 -23 -20.5 -41t-46.5 -18zM352 487q-30 0 -44.5 18.5t-11.5 41.5q2 23 19.5 41t46.5 19q30 0 45 -18t14 -42q-2 -24 -20.5 -42t-48.5 -18z" />
    <glyph glyph-name="Amacron" unicode="&#x100;" horiz-adv-x="867" 
d="M228 -9q-86 0 -125.5 41.5t-27.5 112.5q15 82 92 128t185 46q22 0 34 -1q36 85 54 124.5t50 93t66 91.5q59 63 135 63q43 0 72.5 -23.5t32.5 -64.5q8 -102 -49 -316q103 3 148 47q7 5 11 5q12 0 19 -16t1 -24q-60 -68 -189 -78q-33 -133 -43 -201q-17 -23 -69 -23
q-54 0 -68 23q10 70 44 199q-24 2 -118 11q-22 -54 -41 -89t-49 -73t-71 -57t-94 -19zM235 71q34 1 59.5 40t60.5 126q-54 0 -95 -22t-56 -70q-10 -26 -2.5 -50.5t33.5 -23.5zM617 291q57 203 68 280q5 31 -14 31q-17 0 -42.5 -38t-51 -99t-39 -95.5t-25.5 -67.5
q43 -6 104 -11zM824 774h-213q-15 0 -19 18.5t5 36t24 17.5q47 -1 149 -1h63q15 0 18 -17.5t-5.5 -35.5t-21.5 -18z" />
    <glyph glyph-name="amacron" unicode="&#x101;" horiz-adv-x="523" 
d="M301 428q121 0 185 -64q6 -13 -13.5 -38t-33.5 -25q-61 44 -131 44q-13 0 -19 -1q-44 -4 -83 -38.5t-60 -86.5q-21 -46 -24 -85.5t12 -52.5q8 -8 19 -8q35 0 79.5 72.5t67.5 148.5q10 10 33 10q25 0 51 -10.5t30 -21.5q-28 -100 -33 -124q-17 -75 17 -75q27 1 68.5 42.5
t65.5 97.5q1 4 7 4q10 0 23 -9.5t9 -15.5q-45 -90 -105 -144t-129 -54q-37 0 -54.5 32.5t-9.5 87.5q-35 -59 -72 -90.5t-95 -31.5q-57 0 -91.5 40t-21.5 122q16 111 106.5 192.5t201.5 81.5zM423 506h-213q-15 0 -19 18.5t5 36t24 17.5q47 -1 149 -1h63q15 0 18 -17.5
t-5.5 -35.5t-21.5 -18z" />
    <glyph glyph-name="Abreve" unicode="&#x102;" horiz-adv-x="867" 
d="M228 -9q-86 0 -125.5 41.5t-27.5 112.5q15 82 92 128t185 46q22 0 34 -1q36 85 54 124.5t50 93t66 91.5q59 63 135 63q43 0 72.5 -23.5t32.5 -64.5q8 -102 -49 -316q103 3 148 47q7 5 11 5q12 0 19 -16t1 -24q-60 -68 -189 -78q-33 -133 -43 -201q-17 -23 -69 -23
q-54 0 -68 23q10 70 44 199q-24 2 -118 11q-22 -54 -41 -89t-49 -73t-71 -57t-94 -19zM235 71q34 1 59.5 40t60.5 126q-54 0 -95 -22t-56 -70q-10 -26 -2.5 -50.5t33.5 -23.5zM617 291q57 203 68 280q5 31 -14 31q-17 0 -42.5 -38t-51 -99t-39 -95.5t-25.5 -67.5
q43 -6 104 -11zM717 754q-55 0 -90.5 32t-31.5 87q1 18 34 18q28 0 29 -13q6 -52 62 -52q61 0 84 53q6 13 27 13q16 0 28 -7t9 -18q-12 -54 -53.5 -83.5t-97.5 -29.5z" />
    <glyph glyph-name="abreve" unicode="&#x103;" horiz-adv-x="523" 
d="M301 428q121 0 185 -64q6 -13 -13.5 -38t-33.5 -25q-61 44 -131 44q-13 0 -19 -1q-44 -4 -83 -38.5t-60 -86.5q-21 -46 -24 -85.5t12 -52.5q8 -8 19 -8q35 0 79.5 72.5t67.5 148.5q10 10 33 10q25 0 51 -10.5t30 -21.5q-28 -100 -33 -124q-17 -75 17 -75q27 1 68.5 42.5
t65.5 97.5q1 4 7 4q10 0 23 -9.5t9 -15.5q-45 -90 -105 -144t-129 -54q-37 0 -54.5 32.5t-9.5 87.5q-35 -59 -72 -90.5t-95 -31.5q-57 0 -91.5 40t-21.5 122q16 111 106.5 192.5t201.5 81.5zM316 486q-55 0 -90.5 32t-31.5 87q2 18 34 18q28 0 29 -13q6 -52 62 -52
q61 0 84 53q6 13 27 13q16 0 28 -7t9 -18q-12 -54 -53.5 -83.5t-97.5 -29.5z" />
    <glyph glyph-name="Aogonek" unicode="&#x104;" horiz-adv-x="880" 
d="M726 -156q-19 -33 -50 -50.5t-63 -17.5q-39 0 -63.5 24.5t-20.5 69.5q4 57 67 130q-29 3 -39 19q15 87 44 199q-19 1 -63 5.5t-55 5.5q-22 -54 -41 -89t-49 -73t-71 -57t-94 -19q-86 0 -125.5 41.5t-27.5 112.5q15 82 92 128t185 46q22 0 34 -1q96 225 179 316
q53 57 125 57q43 0 72.5 -23.5t33.5 -65.5q8 -102 -49 -316q103 3 148 47q7 5 11 5q12 0 19 -16t1 -24q-60 -68 -189 -78q-29 -116 -43 -201q-7 -7 -11 -10q-28 -28 -44.5 -63t-16.5 -64q0 -32 22 -32q20 0 50 31q5 5 10 5q11 0 19 -16.5t3 -25.5zM235 71q34 1 59.5 40
t60.5 126q-54 0 -95 -22t-56 -70q-10 -26 -2.5 -50.5t33.5 -23.5zM617 291q57 203 68 280q5 31 -14 31q-17 0 -42.5 -38t-51 -99t-39 -95.5t-25.5 -67.5q43 -6 104 -11z" />
    <glyph glyph-name="aogonek" unicode="&#x105;" horiz-adv-x="513" 
d="M484 -152q-20 -34 -51 -52.5t-63 -18.5q-38 0 -62.5 25t-21.5 70q3 59 54 122q-45 0 -62 32t-5 88q-35 -59 -72 -90.5t-95 -31.5q-57 0 -91.5 40t-21.5 122q16 111 106.5 192.5t201.5 81.5q121 0 185 -64q11 -10 -8.5 -37t-35.5 -27q-5 0 -7 2q-55 43 -127 43
q-13 0 -19 -1q-44 -4 -83 -38.5t-60 -86.5q-21 -46 -24 -85.5t12 -52.5q8 -8 19 -8q35 0 79.5 72.5t67.5 148.5q4 13 31 13q17 0 37.5 -5.5t34 -14t11.5 -15.5q-28 -100 -33 -124q-17 -75 17 -75q26 1 62.5 42t61.5 99q1 4 7 4q10 0 23 -10t9 -16q-33 -71 -104 -152
q-80 -93 -78 -154q2 -34 24 -34q21 0 49 31q4 5 10 5q11 0 19 -15.5t3 -24.5z" />
    <glyph glyph-name="Cacute" unicode="&#x106;" horiz-adv-x="646" 
d="M540 693q85 -4 125 -54t21 -122q-15 -59 -70.5 -95.5t-128.5 -36.5q-96 0 -179 59q-38 -86 -36 -173q1 -101 45.5 -150.5t116.5 -49.5t130 38.5t91 104.5q1 4 7 4q10 0 22.5 -9.5t8.5 -16.5q-49 -102 -123 -152t-184 -50q-116 0 -186 78t-60 215q11 145 93 254
q-43 71 -48 135q-1 9 8.5 14.5t22.5 5.5q25 0 28 -14q8 -47 34 -91q107 107 242 107q4 0 10 -0.5t10 -0.5zM519 611q-57 0 -97.5 -24.5t-76.5 -75.5q48 -35 111 -35q41 0 71 18t37 52q8 25 -4.5 44.5t-40.5 20.5zM524 879q11 15 41 15q40 0 52 -17q6 -8 -1 -16l-82 -96
q-9 -10 -31 -10q-23 0 -37.5 10t-3.5 25q11 17 34 49t28 40z" />
    <glyph glyph-name="cacute" unicode="&#x107;" horiz-adv-x="426" 
d="M264 425q64 -1 95.5 -29t29.5 -64t-26 -68q-18 -21 -66 -21q-47 0 -51 21q7 9 13 21.5t9.5 25.5t0 22.5t-15.5 10.5q-48 0 -78 -52.5t-35 -106.5q-4 -54 24 -84t78 -30q58 0 109.5 35t84.5 108q1 4 7 4q9 0 22 -10t10 -16q-50 -103 -120.5 -151.5t-179.5 -48.5
q-78 4 -126 58t-46 130q4 99 78.5 172.5t182.5 72.5zM270 611q11 15 41 15q40 0 52 -17q6 -8 -1 -16l-82 -96q-9 -10 -31 -10q-23 0 -37.5 10t-3.5 25q11 17 34 49t28 40z" />
    <glyph glyph-name="Cdotaccent" unicode="&#x10a;" horiz-adv-x="646" 
d="M540 693q85 -4 125 -54t21 -122q-15 -59 -70.5 -95.5t-128.5 -36.5q-96 0 -179 59q-38 -86 -36 -173q1 -101 45.5 -150.5t116.5 -49.5t130 38.5t91 104.5q1 4 7 4q10 0 22.5 -9.5t8.5 -16.5q-49 -102 -123 -152t-184 -50q-116 0 -186 78t-60 215q11 145 93 254
q-43 71 -48 135q-1 9 8.5 14.5t22.5 5.5q25 0 28 -14q8 -47 34 -91q107 107 242 107q4 0 10 -0.5t10 -0.5zM519 611q-57 0 -97.5 -24.5t-76.5 -75.5q48 -35 111 -35q41 0 71 18t37 52q8 25 -4.5 44.5t-40.5 20.5zM515 760q-32 0 -46.5 18.5t-11.5 42.5q4 25 23.5 43t49.5 19
q29 1 44.5 -18t12.5 -45q-4 -23 -23.5 -41.5t-48.5 -18.5z" />
    <glyph glyph-name="cdotaccent" unicode="&#x10b;" horiz-adv-x="426" 
d="M264 425q64 -1 95.5 -29t29.5 -64t-26 -68q-18 -21 -66 -21q-47 0 -51 21q7 9 13 21.5t9.5 25.5t0 22.5t-15.5 10.5q-48 0 -78 -52.5t-35 -106.5q-4 -54 24 -84t78 -30q58 0 109.5 35t84.5 108q1 4 7 4q9 0 22 -10t10 -16q-50 -103 -120.5 -151.5t-179.5 -48.5
q-78 4 -126 58t-46 130q4 99 78.5 172.5t182.5 72.5zM262 492q-32 0 -46.5 18.5t-11.5 42.5q4 25 23.5 43t49.5 19q29 1 44.5 -18t12.5 -45q-4 -23 -23.5 -41.5t-48.5 -18.5z" />
    <glyph glyph-name="Ccaron" unicode="&#x10c;" horiz-adv-x="646" 
d="M540 693q85 -4 125 -54t21 -122q-15 -59 -70.5 -95.5t-128.5 -36.5q-96 0 -179 59q-38 -86 -36 -173q1 -101 45.5 -150.5t116.5 -49.5t130 38.5t91 104.5q1 4 7 4q10 0 22.5 -9.5t8.5 -16.5q-49 -102 -123 -152t-184 -50q-116 0 -186 78t-60 215q11 145 93 254
q-43 71 -48 135q-1 9 8.5 14.5t22.5 5.5q25 0 28 -14q8 -47 34 -91q107 107 242 107q4 0 10 -0.5t10 -0.5zM519 611q-57 0 -97.5 -24.5t-76.5 -75.5q48 -35 111 -35q41 0 71 18t37 52q8 25 -4.5 44.5t-40.5 20.5zM546 764q-15 -9 -38 -9q-25 0 -37 9q-15 12 -90 96
q-14 14 16 26q16 6 33 6q20 0 27 -8l54 -61l84 64q9 6 21 6q25 0 41.5 -15.5t-0.5 -32.5q-51 -42 -111 -81z" />
    <glyph glyph-name="ccaron" unicode="&#x10d;" horiz-adv-x="426" 
d="M264 425q64 -1 95.5 -29t29.5 -64t-26 -68q-18 -21 -66 -21q-47 0 -51 21q7 9 13 21.5t9.5 25.5t0 22.5t-15.5 10.5q-48 0 -78 -52.5t-35 -106.5q-4 -54 24 -84t78 -30q58 0 109.5 35t84.5 108q1 4 7 4q9 0 22 -10t10 -16q-50 -103 -120.5 -151.5t-179.5 -48.5
q-78 4 -126 58t-46 130q4 99 78.5 172.5t182.5 72.5zM293 496q-15 -9 -38 -9q-25 0 -37 9q-15 12 -90 96q-14 14 16 26q16 6 33 6q20 0 27 -8l54 -61l84 64q9 6 21 6q25 0 41.5 -15.5t-0.5 -32.5q-51 -42 -111 -81z" />
    <glyph glyph-name="Dcaron" unicode="&#x10e;" horiz-adv-x="916" 
d="M539 694q142 -4 236 -92t90 -247q-4 -166 -84 -265.5t-201 -97.5q-97 0 -186 66q-58 -67 -161 -67q-78 0 -121.5 31.5t-39.5 85.5q4 53 43.5 80.5t96.5 27.5q67 0 123 -35q15 37 41 128.5t52.5 154t62.5 92.5q13 10 38 10q23 0 43.5 -8.5t19.5 -18.5
q-43 -56 -91.5 -213.5t-71.5 -199.5q68 -52 140 -52q47 0 81.5 29t52 74.5t25.5 90t8 87.5q4 258 -220 258q-60 0 -113.5 -29.5t-76 -77t3.5 -106.5q2 -14 -19.5 -33.5t-46.5 -19.5q-9 0 -18 3q-58 39 -60 110t49 126q95 108 304 108zM236 146q-40 -1 -49 -30q-9 -27 15 -41
q10 -6 24 -6q51 0 84 52q-44 25 -74 25zM608 765q-15 -9 -38 -9q-25 0 -37 9q-15 12 -90 96q-14 14 16 26q16 6 33 6q20 0 27 -8l54 -61l84 64q9 6 21 6q25 0 41.5 -16t-0.5 -32q-51 -42 -111 -81z" />
    <glyph glyph-name="dcaron" unicode="&#x10f;" horiz-adv-x="529" 
d="M110 -9q-76 -1 -103.5 56.5t-5.5 136.5t76 141q84 99 217 99q20 0 38 -3q45 141 92 256q4 12 45 12q59 0 78 -18q6 -5 3 -11q-71 -166 -130.5 -377.5t-4.5 -209.5q25 1 62 43t62 98q1 4 7 4q10 0 22.5 -9.5t8.5 -16.5q-43 -88 -101 -142.5t-124 -55.5q-41 0 -63 32
t-16 88q-61 -121 -163 -123zM139 77q5 -4 14 -4q22 0 50 30t53 83q10 20 51 154q-5 1 -15 1q-77 0 -127 -83q-17 -27 -29.5 -64.5t-14.5 -71.5t18 -45zM687 656l-52 -108q-9 -19 -37 -19q-14 0 -22.5 8t-3.5 22q6 18 20 56.5t20 55.5q6 19 36 19q21 0 34 -9.5t5 -24.5z" />
    <glyph glyph-name="Dcroat" unicode="&#x110;" horiz-adv-x="916" 
d="M233 -9q-78 0 -121.5 31.5t-39.5 85.5q4 53 43.5 80.5t96.5 27.5q67 0 123 -35q9 19 25 73h-48q-12 6 -9.5 30.5t19.5 29.5h56q57 196 113 243q13 9 37 9t44.5 -8.5t19.5 -18.5q-46 -57 -95 -226h93q12 -5 7 -30t-17 -30h-102q-27 -89 -49 -127q68 -52 140 -52
q47 0 81.5 29t52 74.5t25.5 90t8 87.5q4 258 -220 258q-60 0 -113.5 -29.5t-76 -77t3.5 -106.5q2 -14 -19.5 -33.5t-46.5 -19.5q-9 0 -18 3q-58 39 -60 110t49 126q95 108 304 108q142 -4 236 -92t90 -247q-4 -166 -84 -265.5t-201 -97.5q-97 0 -186 66q-58 -67 -161 -67z
M226 69q51 0 84 52q-44 25 -74 25q-40 -1 -49 -30q-9 -27 15 -41q10 -6 24 -6z" />
    <glyph glyph-name="dcroat" unicode="&#x111;" horiz-adv-x="529" 
d="M539 214q1 4 7 4q10 0 22.5 -9.5t8.5 -16.5q-43 -88 -101 -142.5t-124 -55.5q-41 0 -63 32t-16 88q-61 -121 -163 -123q-76 -1 -103.5 56.5t-5.5 136.5t76 141q84 99 217 99q20 0 38 -3l37 107q-14 0 -37.5 0.5t-32.5 0.5q-10 0 -12 16.5t4 32.5t17 16q53 0 84 -1
q17 50 32 84q4 12 45 12q59 0 78 -18q6 -5 3 -11q-10 -21 -28 -68q30 -2 46 -2q15 1 10 -28q-9 -31 -26 -34h-54q-28 -78 -51 -152.5t-40.5 -146t-16 -114.5t24.5 -42q25 1 62 43t62 98zM256 186q10 20 51 154q-5 1 -15 1q-77 0 -127 -83q-17 -27 -29.5 -64.5t-14.5 -71.5
t18 -45q5 -4 14 -4q22 0 50 30t53 83z" />
    <glyph glyph-name="Emacron" unicode="&#x112;" horiz-adv-x="582" 
d="M280 706q2 -36 12 -60q59 50 153 50q73 0 124.5 -34t48.5 -94q-3 -63 -47 -91t-111 -28q-34 1 -68 16t-55 37q-4 -44 28.5 -80.5t92.5 -44.5q14 -11 6.5 -41.5t-25.5 -33.5q-20 2 -33 2q-63 0 -113.5 -29t-58.5 -87q-7 -41 13.5 -68.5t50 -37t64.5 -10.5q160 0 230 142
q1 4 7 4q10 0 22 -10t9 -16q-45 -97 -123 -149t-183 -52q-99 0 -168.5 50.5t-55.5 149.5q11 80 70.5 128t134.5 52q-42 17 -63.5 59.5t-18.5 90t25 81.5q-20 43 -20 102q0 8 9 13t20 5q22 0 23 -16zM357 568q42 -42 97 -42q47 0 49 43q1 19 -16.5 30.5t-43.5 11.5
q-59 0 -86 -43zM557 774h-213q-15 0 -19 18.5t5 36t24 17.5q47 -1 149 -1h63q15 0 18 -17.5t-5.5 -35.5t-21.5 -18z" />
    <glyph glyph-name="emacron" unicode="&#x113;" horiz-adv-x="456" 
d="M266 424q57 -1 92.5 -29t39 -65t-13.5 -77q-22 -44 -68.5 -68.5t-108.5 -24.5q-35 0 -67 7q-1 -44 27 -69t81 -28q2 0 6.5 -0.5t6.5 -0.5q55 0 112 34.5t93 110.5q1 4 7 4q10 0 22.5 -9.5t9.5 -16.5q-49 -100 -119.5 -151t-176.5 -51q-114 3 -165 65t-36 151
q16 100 86.5 159t171.5 59zM253 343q-40 0 -68.5 -38t-38.5 -82q6 -1 18 -1q41 0 69 18.5t39 46.5q10 20 5.5 37.5t-24.5 18.5zM380 506h-213q-15 0 -19 18.5t5 36t24 17.5q47 -1 149 -1h63q15 0 18 -17.5t-5.5 -35.5t-21.5 -18z" />
    <glyph glyph-name="Edotaccent" unicode="&#x116;" horiz-adv-x="582" 
d="M280 706q2 -36 12 -60q59 50 153 50q73 0 124.5 -34t48.5 -94q-3 -63 -47 -91t-111 -28q-34 1 -68 16t-55 37q-4 -44 28.5 -80.5t92.5 -44.5q14 -11 6.5 -41.5t-25.5 -33.5q-20 2 -33 2q-63 0 -113.5 -29t-58.5 -87q-7 -41 13.5 -68.5t50 -37t64.5 -10.5q160 0 230 142
q1 4 7 4q10 0 22 -10t9 -16q-45 -97 -123 -149t-183 -52q-99 0 -168.5 50.5t-55.5 149.5q11 80 70.5 128t134.5 52q-42 17 -63.5 59.5t-18.5 90t25 81.5q-20 43 -20 102q0 8 9 13t20 5q22 0 23 -16zM357 568q42 -42 97 -42q47 0 49 43q1 19 -16.5 30.5t-43.5 11.5
q-59 0 -86 -43zM450 760q-32 0 -46.5 18.5t-11.5 42.5q4 25 23.5 43t49.5 19q29 1 44.5 -18t12.5 -45q-4 -23 -23.5 -41.5t-48.5 -18.5z" />
    <glyph glyph-name="edotaccent" unicode="&#x117;" horiz-adv-x="456" 
d="M266 424q57 -1 92.5 -29t39 -65t-13.5 -77q-22 -44 -68.5 -68.5t-108.5 -24.5q-35 0 -67 7q-1 -44 27 -69t81 -28q2 0 6.5 -0.5t6.5 -0.5q55 0 112 34.5t93 110.5q1 4 7 4q10 0 22.5 -9.5t9.5 -16.5q-49 -100 -119.5 -151t-176.5 -51q-114 3 -165 65t-36 151
q16 100 86.5 159t171.5 59zM253 343q-40 0 -68.5 -38t-38.5 -82q6 -1 18 -1q41 0 69 18.5t39 46.5q10 20 5.5 37.5t-24.5 18.5zM273 492q-32 0 -46.5 18.5t-11.5 42.5q4 25 23.5 43t49.5 19q29 1 44.5 -18t12.5 -45q-4 -23 -23.5 -41.5t-48.5 -18.5z" />
    <glyph glyph-name="Eogonek" unicode="&#x118;" horiz-adv-x="581" 
d="M550 -152q-20 -34 -51 -52.5t-63 -18.5q-38 0 -63 25t-22 70q3 60 59 128q-46 -12 -92 -12q-23 0 -44 3q-86 12 -135.5 66t-38.5 134q10 80 69.5 128t134.5 52q-42 17 -63 59.5t-18 90t25 81.5q-20 40 -20 102q0 8 9 13t20 5q22 0 23 -16q0 -34 11 -60q59 50 153 50
q73 0 124.5 -34t48.5 -94q-5 -119 -158 -119q-34 1 -68 16t-55 37q-4 -44 29 -80.5t93 -44.5q13 -11 5 -41.5t-25 -33.5q-20 2 -33 2q-63 0 -113.5 -29t-58.5 -87q-9 -60 30.5 -87t98.5 -29q76 0 135.5 37t93.5 105q3 4 8 4q10 0 21.5 -9.5t8.5 -16.5q-28 -67 -81 -121
q-104 -114 -103 -185q2 -34 24 -34q21 0 49 31q4 5 11 5q11 0 18.5 -15.5t2.5 -24.5zM451 526q49 0 52 43q1 19 -16.5 30.5t-43.5 11.5q-59 0 -86 -43q40 -42 94 -42z" />
    <glyph glyph-name="eogonek" unicode="&#x119;" horiz-adv-x="418" 
d="M387 -152q-20 -34 -51 -52.5t-63 -18.5q-38 0 -63 25t-22 70q3 57 54 125q-21 -5 -63 -5q-97 3 -141.5 65t-28.5 149q16 100 86 159t172 59q43 -1 74 -17.5t44.5 -41t13.5 -54.5t-15 -58q-44 -92 -175 -92q-35 0 -69 7q-1 -44 21.5 -70t61.5 -27q76 0 124 35t81 108
q2 3 7 3q10 0 22.5 -9.5t9.5 -15.5q-18 -37 -35.5 -62.5t-29.5 -38.5t-49 -51q-34 -36 -53 -79.5t-18 -74.5q2 -34 24 -34q21 0 49 31q4 5 10 5q11 0 19 -15.5t3 -24.5zM146 223q6 -1 18 -1q81 0 109 65q10 20 5.5 37.5t-24.5 18.5q-40 0 -68.5 -37.5t-39.5 -82.5z" />
    <glyph glyph-name="Ecaron" unicode="&#x11a;" horiz-adv-x="582" 
d="M280 706q2 -36 12 -60q59 50 153 50q73 0 124.5 -34t48.5 -94q-3 -63 -47 -91t-111 -28q-34 1 -68 16t-55 37q-4 -44 28.5 -80.5t92.5 -44.5q14 -11 6.5 -41.5t-25.5 -33.5q-20 2 -33 2q-63 0 -113.5 -29t-58.5 -87q-7 -41 13.5 -68.5t50 -37t64.5 -10.5q160 0 230 142
q1 4 7 4q10 0 22 -10t9 -16q-45 -97 -123 -149t-183 -52q-99 0 -168.5 50.5t-55.5 149.5q11 80 70.5 128t134.5 52q-42 17 -63.5 59.5t-18.5 90t25 81.5q-20 43 -20 102q0 8 9 13t20 5q22 0 23 -16zM357 568q42 -42 97 -42q47 0 49 43q1 19 -16.5 30.5t-43.5 11.5
q-59 0 -86 -43zM481 764q-15 -9 -38 -9q-25 0 -37 9q-15 12 -90 96q-14 14 16 26q16 6 33 6q20 0 27 -8l54 -61l84 64q9 6 21 6q25 0 41.5 -15.5t-0.5 -32.5q-51 -42 -111 -81z" />
    <glyph glyph-name="ecaron" unicode="&#x11b;" horiz-adv-x="456" 
d="M266 424q57 -1 92.5 -29t39 -65t-13.5 -77q-22 -44 -68.5 -68.5t-108.5 -24.5q-35 0 -67 7q-1 -44 27 -69t81 -28q2 0 6.5 -0.5t6.5 -0.5q55 0 112 34.5t93 110.5q1 4 7 4q10 0 22.5 -9.5t9.5 -16.5q-49 -100 -119.5 -151t-176.5 -51q-114 3 -165 65t-36 151
q16 100 86.5 159t171.5 59zM253 343q-40 0 -68.5 -38t-38.5 -82q6 -1 18 -1q41 0 69 18.5t39 46.5q10 20 5.5 37.5t-24.5 18.5zM304 496q-15 -9 -38 -9q-25 0 -37 9q-15 12 -90 96q-14 14 16 26q16 6 33 6q20 0 27 -8l54 -61l84 64q9 6 21 6q25 0 41.5 -15.5t-0.5 -32.5
q-51 -42 -111 -81z" />
    <glyph glyph-name="Gbreve" unicode="&#x11e;" horiz-adv-x="718" 
d="M493 693q99 -1 148.5 -59t15.5 -137q-26 -60 -78 -90.5t-116 -30.5q-106 0 -193 70q-24 -46 -38.5 -105t-16 -116t25.5 -96t81 -40q118 0 187 188q6 15 52 15q29 0 48.5 -7.5t15.5 -21.5q-54 -188 -71 -253q104 53 174 204q1 4 7 4q10 0 22.5 -9.5t9.5 -16.5
q-52 -103 -103.5 -160t-128.5 -89q-12 -46 -21 -74.5t-27 -63.5t-39.5 -54.5t-56 -33t-78.5 -13.5q-57 0 -91.5 26.5t-28.5 78.5q3 29 17 53t34 40t51 31t58 24t65 19l27 94q-60 -61 -150 -61q-93 3 -145.5 60t-58.5 138t20.5 171.5t81.5 158.5q-45 69 -50 142q-1 8 7 12.5
t20 4.5q31 0 33 -17q7 -50 35 -93q110 107 255 107zM487 612q-103 0 -179 -103q55 -43 118 -43q40 0 71 18.5t43 54.5q11 31 -4 52t-49 21zM404 -90q-38 -15 -67 -37.5t-36 -44.5q-7 -21 -2 -31.5t18 -10.5q12 0 25 10t20 27q24 18 42 87zM483 755q-55 0 -90.5 32t-31.5 87
q1 18 34 18q28 0 29 -13q6 -52 62 -52q61 0 84 53q6 13 27 13q16 0 28 -7t9 -18q-12 -54 -53.5 -83.5t-97.5 -29.5z" />
    <glyph glyph-name="gbreve" unicode="&#x11f;" horiz-adv-x="517" 
d="M302 427q118 0 189 -63q5 -12 -14.5 -37.5t-33.5 -25.5q-57 44 -149 44q-45 -3 -83.5 -37t-63.5 -88q-22 -49 -24.5 -89t13.5 -52q8 -6 17 -6q24 0 49.5 25t46 65t33.5 71t23 61q7 9 30 9q26 0 53.5 -10t30.5 -22q-16 -53 -37.5 -137.5t-32.5 -123.5q53 22 95 70t84 133
q2 3 6 3q11 0 23 -9.5t8 -16.5q-54 -107 -105.5 -162t-129.5 -87q-37 -129 -80 -183.5t-135 -54.5h-3q-55 0 -87 29t-26 79q4 30 20 54t35 39.5t52 30t56.5 21.5t62.5 18q7 19 43 128q-67 -111 -163 -111q-68 0 -96.5 50t-15 121t60.5 133q44 61 109 96t139 35zM207 -94
q-77 -28 -96 -72q-10 -22 -3.5 -35t22.5 -13t33.5 15.5t27.5 45.5q5 15 16 59zM326 485q-55 0 -90.5 32t-31.5 87q2 18 34 18q28 0 29 -13q6 -52 62 -52q61 0 84 53q6 13 27 13q16 0 28 -7t9 -18q-12 -54 -53.5 -83.5t-97.5 -29.5z" />
    <glyph glyph-name="Gdotaccent" unicode="&#x120;" horiz-adv-x="718" 
d="M493 693q99 -1 148.5 -59t15.5 -137q-26 -60 -78 -90.5t-116 -30.5q-106 0 -193 70q-24 -46 -38.5 -105t-16 -116t25.5 -96t81 -40q118 0 187 188q6 15 52 15q29 0 48.5 -7.5t15.5 -21.5q-54 -188 -71 -253q104 53 174 204q1 4 7 4q10 0 22.5 -9.5t9.5 -16.5
q-52 -103 -103.5 -160t-128.5 -89q-12 -46 -21 -74.5t-27 -63.5t-39.5 -54.5t-56 -33t-78.5 -13.5q-57 0 -91.5 26.5t-28.5 78.5q3 29 17 53t34 40t51 31t58 24t65 19l27 94q-60 -61 -150 -61q-93 3 -145.5 60t-58.5 138t20.5 171.5t81.5 158.5q-45 69 -50 142q-1 8 7 12.5
t20 4.5q31 0 33 -17q7 -50 35 -93q110 107 255 107zM487 612q-103 0 -179 -103q55 -43 118 -43q40 0 71 18.5t43 54.5q11 31 -4 52t-49 21zM404 -90q-38 -15 -67 -37.5t-36 -44.5q-7 -21 -2 -31.5t18 -10.5q12 0 25 10t20 27q24 18 42 87zM484 761q-32 0 -46.5 18.5
t-11.5 42.5q4 25 23.5 43t49.5 19q29 1 44.5 -18t12.5 -45q-4 -23 -23.5 -41.5t-48.5 -18.5z" />
    <glyph glyph-name="gdotaccent" unicode="&#x121;" horiz-adv-x="517" 
d="M302 427q118 0 189 -63q5 -12 -14.5 -37.5t-33.5 -25.5q-57 44 -149 44q-45 -3 -83.5 -37t-63.5 -88q-22 -49 -24.5 -89t13.5 -52q8 -6 17 -6q24 0 49.5 25t46 65t33.5 71t23 61q7 9 30 9q26 0 53.5 -10t30.5 -22q-16 -53 -37.5 -137.5t-32.5 -123.5q53 22 95 70t84 133
q2 3 6 3q11 0 23 -9.5t8 -16.5q-54 -107 -105.5 -162t-129.5 -87q-37 -129 -80 -183.5t-135 -54.5h-3q-55 0 -87 29t-26 79q4 30 20 54t35 39.5t52 30t56.5 21.5t62.5 18q7 19 43 128q-67 -111 -163 -111q-68 0 -96.5 50t-15 121t60.5 133q44 61 109 96t139 35zM207 -94
q-77 -28 -96 -72q-10 -22 -3.5 -35t22.5 -13t33.5 15.5t27.5 45.5q5 15 16 59zM326 491q-32 0 -46.5 18.5t-11.5 42.5q4 25 23.5 43t49.5 19q29 1 44.5 -18t12.5 -45q-4 -23 -23.5 -41.5t-48.5 -18.5z" />
    <glyph glyph-name="Gcommaaccent" unicode="&#x122;" horiz-adv-x="718" 
d="M493 693q99 -1 148.5 -59t15.5 -137q-26 -60 -78 -90.5t-116 -30.5q-106 0 -193 70q-24 -46 -38.5 -105t-16 -116t25.5 -96t81 -40q118 0 187 188q6 15 52 15q29 0 48.5 -7.5t15.5 -21.5q-54 -188 -71 -253q104 53 174 204q1 4 7 4q10 0 22.5 -9.5t9.5 -16.5
q-52 -103 -103.5 -160t-128.5 -89q-12 -46 -21 -74.5t-27 -63.5t-39.5 -54.5t-56 -33t-78.5 -13.5q-57 0 -91.5 26.5t-28.5 78.5q3 29 17 53t34 40t51 31t58 24t65 19l27 94q-60 -61 -150 -61q-93 3 -145.5 60t-58.5 138t20.5 171.5t81.5 158.5q-45 69 -50 142q-1 8 7 12.5
t20 4.5q31 0 33 -17q7 -50 35 -93q110 107 255 107zM487 612q-103 0 -179 -103q55 -43 118 -43q40 0 71 18.5t43 54.5q11 31 -4 52t-49 21zM404 -90q-38 -15 -67 -37.5t-36 -44.5q-7 -21 -2 -31.5t18 -10.5q12 0 25 10t20 27q24 18 42 87zM264 -379q7 25 52 25q20 0 32.5 -8
t7.5 -21l-51 -130q-8 -22 -44 -22q-17 0 -27.5 8t-6.5 22q5 18 18.5 63t18.5 63z" />
    <glyph glyph-name="gcommaaccent" unicode="&#x123;" horiz-adv-x="517" 
d="M302 427q118 0 189 -63q11 -10 -9 -37t-36 -27q-5 0 -7 2q-52 43 -145 43q-45 -3 -83.5 -37t-63.5 -88q-22 -49 -24.5 -89t13.5 -52q8 -6 17 -6q24 0 49.5 25t46 65t33.5 71t23 61q6 13 33 13q18 0 38.5 -5.5t33.5 -14t10 -16.5q-16 -54 -38.5 -139.5t-32.5 -121.5
q53 22 95 70t84 133q2 3 6 3q11 0 23 -9.5t8 -16.5q-54 -107 -105.5 -162t-129.5 -87q-37 -129 -80 -183.5t-135 -54.5h-3q-55 0 -87 29t-26 79q4 30 20 54t35 39.5t52 30t56.5 21.5t62.5 18q9 20 22.5 64.5t20.5 63.5q-67 -111 -163 -111q-68 0 -96.5 50t-15 121t60.5 133
q44 61 109 96t139 35zM207 -94q-77 -28 -96 -72q-10 -22 -3.5 -35t22.5 -13t33.5 15.5t27.5 45.5q5 15 16 59zM276 607q8 18 44 18q25 0 43 -9.5t11 -23.5l-46 -91q-8 -15 -41 -15q-21 0 -35 7t-10 20q4 11 16 44.5t18 49.5z" />
    <glyph glyph-name="Hbar" unicode="&#x126;" horiz-adv-x="899" 
d="M868 473l51 -1q13 -11 7 -40.5t-21 -34.5h-59q-16 -54 -34 -125q77 3 122 30q3 2 8 2q13 0 17.5 -19t-7.5 -26q-65 -43 -158 -48q-8 -31 -55 -193q-11 -21 -68 -21q-27 0 -46.5 7.5t-20.5 20.5q16 51 56 192q-20 2 -61.5 8t-61.5 8q-13 -38 -22 -62t-22 -52.5
t-25.5 -45.5t-30 -34.5t-38 -26.5t-47.5 -15t-60 -6q-93 -1 -131 43.5t-27 107.5q14 82 86.5 130.5t184.5 48.5h21q4 12 7.5 24.5t8.5 27.5t8 25q-35 0 -47 1q-15 6 -8 38.5t26 36.5q7 0 26 -0.5t29 -0.5q9 29 39 115q-34 -34 -94 -34q-17 0 -52 3.5t-51 3.5q-40 0 -65 -16
q-20 -12 -24.5 -33t5.5 -34q13 -19 37 -19q21 0 40 13q16 1 28.5 -18.5t5.5 -34.5q-38 -45 -105 -45q-75 0 -111 50q-24 32 -27 71.5t19.5 76.5t67.5 56q46 19 94 19q28 0 76.5 -8t70.5 -8q64 0 115 51q15 12 49 12q30 0 55 -8t24 -20q-49 -146 -63 -192q20 0 61 -0.5
t61 -0.5q44 134 65 186q6 11 40 11q31 0 59 -9t29 -23q-28 -70 -57 -165zM300 71q34 -1 57.5 40t47.5 127q-115 -4 -140 -97q-9 -27 0.5 -48.5t34.5 -21.5zM709 398h-123q-5 -17 -14.5 -48t-13.5 -46l120 -21q25 95 31 115z" />
    <glyph glyph-name="hbar" unicode="&#x127;" horiz-adv-x="503" 
d="M512 214q1 4 8 4q10 0 22.5 -9.5t8.5 -16.5q-99 -194 -218 -201h-11q-102 0 -87 110q5 34 47 178q18 54 -18 54q-47 0 -106 -75q-31 -110 -63 -248q-2 -8 -25.5 -13.5t-51.5 -5.5q-29 0 -46 6.5t-14 21.5q58 239 138 497h-35q-10 0 -11.5 15.5t5.5 31t19 14.5h40
q23 71 34 100q6 11 42 11q21 0 41.5 -3.5t34 -11.5t11.5 -17q-22 -60 -28 -81q12 0 37 0.5t33 1.5q15 1 11 -27q-3 -31 -21 -35h-2q-5 0 -30 -0.5t-47 -0.5q-13 -41 -50 -174q89 87 159 87q61 0 80.5 -38.5t-0.5 -98.5q-6 -22 -19 -62t-19.5 -62.5t-11.5 -47.5t-0.5 -36.5
t18.5 -10.5q26 1 63 43.5t62 99.5z" />
    <glyph glyph-name="Imacron" unicode="&#x12a;" horiz-adv-x="558" 
d="M475 670q18 20 67 20q24 0 44.5 -6.5t24.5 -16.5q-22 -62 -125 -389q-14 -44 -20 -63.5t-19 -54t-22 -50.5t-24.5 -40t-31 -35t-37 -23.5t-47.5 -17t-58 -4.5q-54 0 -93.5 21.5t-54.5 55t-15 69.5t22.5 68t61.5 46q1 0 3 0.5t4 0.5q22 0 44 -18t20 -38
q-23 -26 -27.5 -55.5t9 -49t39.5 -19.5q10 0 18.5 4t16.5 13t14.5 18t14 25.5t12.5 29t12 35.5t11.5 37.5t12.5 42t13 42.5q71 241 75 253q-23 -26 -58 -43.5t-63 -25t-52 -23.5t-30 -40q-15 -55 32 -65q10 -11 2 -35t-25 -28q-2 0 -7 -0.5t-8 -0.5q-63 0 -99.5 40t-25.5 95
q8 41 38 66t72.5 38.5t87.5 25t92.5 35t78.5 60.5zM667 775h-213q-15 0 -19 18.5t5 36t24 17.5q47 -1 149 -1h63q15 0 18 -18t-5.5 -35.5t-21.5 -17.5z" />
    <glyph glyph-name="imacron" unicode="&#x12b;" horiz-adv-x="245" 
d="M73 409q4 16 60 16q31 0 53 -6t18 -17q-10 -30 -40 -122t-43 -135q-11 -32 -10 -53.5t20 -20.5q24 1 61.5 43.5t62.5 98.5q1 4 8 4q10 0 22 -10t8 -16q-102 -199 -224 -199q-113 0 -84 128q20 88 88 289zM263 502h-213q-15 0 -19 18.5t5 36t24 17.5q47 -1 149 -1h63
q15 0 18 -17.5t-5.5 -35.5t-21.5 -18z" />
    <glyph glyph-name="Iogonek" unicode="&#x12e;" horiz-adv-x="558" 
d="M475 670q18 19 66 19q18 0 34 -3t26 -8t9 -11q-29 -82 -124 -389q-29 -97 -59 -155t-72 -98q-32 -31 -46.5 -69.5t-13.5 -64.5q0 -37 25 -37q20 0 48 29q16 1 26.5 -12t4.5 -23q-20 -34 -50.5 -52.5t-62.5 -18.5q-38 0 -62.5 25t-22.5 70q1 54 52 120q-16 -2 -26 -2
q-54 0 -93.5 21.5t-54.5 55t-15 69.5t22.5 68t61.5 46q26 1 49 -17t20 -39q-34 -40 -26 -82t49 -41q10 0 18.5 4t16.5 13t14.5 18t14 25.5t12.5 29t12 35.5t11.5 37.5t12.5 42t13 42.5q71 241 75 253q-23 -26 -58 -43.5t-63.5 -25t-52 -23.5t-29.5 -40q-15 -54 31 -65
q11 -8 3 -34t-25 -29q-2 0 -7 -0.5t-8 -0.5q-63 0 -99.5 40t-25.5 95q8 41 38 66t72.5 38.5t87.5 25t92.5 35t78.5 60.5z" />
    <glyph glyph-name="iogonek" unicode="&#x12f;" horiz-adv-x="246" 
d="M219 -152q-20 -34 -51 -52.5t-63 -18.5q-38 0 -63 25t-22 70q4 61 53 119q-117 0 -87 129q18 79 87 289q6 16 61 16q31 0 53 -6t18 -17q-67 -202 -83 -257q-11 -32 -10 -53.5t20 -20.5q24 1 61 43.5t62 98.5q3 4 8 4q10 0 22.5 -9.5t8.5 -16.5q-39 -77 -95 -140
q-87 -96 -85 -165q2 -34 24 -34q21 0 49 31q4 5 11 5q11 0 18.5 -15.5t2.5 -24.5z" />
    <glyph glyph-name="Idotaccent" unicode="&#x130;" horiz-adv-x="558" 
d="M475 670q18 20 67 20q24 0 44.5 -6.5t24.5 -16.5q-22 -62 -125 -389q-14 -44 -20 -63.5t-19 -54t-22 -50.5t-24.5 -40t-31 -35t-37 -23.5t-47.5 -17t-58 -4.5q-54 0 -93.5 21.5t-54.5 55t-15 69.5t22.5 68t61.5 46q1 0 3 0.5t4 0.5q22 0 44 -18t20 -38
q-23 -26 -27.5 -55.5t9 -49t39.5 -19.5q10 0 18.5 4t16.5 13t14.5 18t14 25.5t12.5 29t12 35.5t11.5 37.5t12.5 42t13 42.5q71 241 75 253q-23 -26 -58 -43.5t-63 -25t-52 -23.5t-30 -40q-15 -55 32 -65q10 -11 2 -35t-25 -28q-2 0 -7 -0.5t-8 -0.5q-63 0 -99.5 40t-25.5 95
q8 41 38 66t72.5 38.5t87.5 25t92.5 35t78.5 60.5zM560 761q-32 0 -46.5 18.5t-11.5 42.5q4 25 23.5 43t49.5 19q29 1 44.5 -18t12.5 -45q-4 -23 -23.5 -41.5t-48.5 -18.5z" />
    <glyph glyph-name="dotlessi" unicode="&#x131;" horiz-adv-x="245" 
d="M73 409q4 16 60 16q31 0 53 -6t18 -17q-10 -30 -40 -122t-43 -135q-11 -32 -10 -53.5t20 -20.5q24 1 61.5 43.5t62.5 98.5q1 4 8 4q10 0 22 -10t8 -16q-102 -199 -224 -199q-113 0 -84 128q20 88 88 289zM157 483q-29 0 -46.5 21t-12.5 49q5 31 28 51t56 20
q31 -1 48.5 -21t12.5 -50q-5 -31 -28 -50.5t-58 -19.5z" />
    <glyph glyph-name="IJ" unicode="&#x132;" horiz-adv-x="1141" 
d="M475 670q18 20 67 20q24 0 44.5 -6.5t24.5 -16.5q-22 -62 -125 -389q-14 -44 -20 -63.5t-19 -54t-22 -50.5t-24.5 -40t-31 -35t-37 -23.5t-47.5 -17t-58 -4.5q-54 0 -93.5 21.5t-54.5 55t-15 69.5t22.5 68t61.5 46q1 0 3 0.5t4 0.5q22 0 44 -18t20 -38
q-23 -26 -27.5 -55.5t9 -49t39.5 -19.5q10 0 18.5 4t16.5 13t14.5 18t14 25.5t12.5 29t12 35.5t11.5 37.5t12.5 42t13 42.5q71 241 75 253q-23 -26 -58 -43.5t-63 -25t-52 -23.5t-30 -40q-15 -55 32 -65q10 -11 2 -35t-25 -28q-2 0 -7 -0.5t-8 -0.5q-63 0 -99.5 40t-25.5 95
q8 41 38 66t72.5 38.5t87.5 25t92.5 35t78.5 60.5zM708 -295q-45 0 -76 17.5t-42 45t-5.5 60.5t27.5 62q45 68 215 107q104 381 163 574q-28 -33 -75.5 -52t-83 -34t-43.5 -44q-15 -55 30 -67q7 -4 7 -18t-9.5 -29.5t-22.5 -15.5h-10q-64 0 -101.5 41t-23.5 96
q10 40 41 64.5t73.5 37t86.5 24t91 36t78 62.5q19 19 65 19q61 0 66 -25q-31 -93 -97 -307t-99 -334q116 44 188 189q1 3 7 3q10 0 22.5 -9.5t8.5 -16.5q-48 -98 -107.5 -149.5t-137.5 -82.5q-10 -36 -16.5 -55.5t-18 -51t-23 -49t-29.5 -39t-38 -32.5t-48.5 -19t-62.5 -8z
M713 -215q64 0 94 139q-98 -31 -119 -81q-9 -26 -1 -41.5t26 -16.5z" />
    <glyph glyph-name="ij" unicode="&#x133;" horiz-adv-x="516" 
d="M526 214q2 3 6 3q9 0 22 -10t10 -15q-52 -104 -107.5 -160.5t-134.5 -89.5q-36 -131 -81 -184t-137 -54q-55 -1 -84.5 26.5t-28 67t31.5 75.5q22 35 67.5 57.5t117.5 43.5l27 103q-74 -85 -161 -85q-118 0 -88 128q20 86 81 296q10 12 46 12q27 0 51 -7.5t30 -20.5
q-71 -247 -75 -267q-6 -29 -3 -46t16 -16q30 0 71.5 42t66.5 100q27 102 52 202q9 12 44 12q29 0 55 -8t28 -20q-21 -67 -109 -389q110 48 186 204zM182 -153q9 27 17 59q-35 -14 -61.5 -33.5t-35.5 -38.5q-9 -22 -3.5 -35t21.5 -13q15 -1 33.5 15t28.5 46zM157 483
q-29 0 -46.5 21t-12.5 49q5 31 28 51t56 20q31 -1 48.5 -21t12.5 -50q-5 -31 -28 -50.5t-58 -19.5zM414 483q-29 0 -46.5 21t-12.5 49q5 31 28 51t56 20q32 -1 49 -21t12 -50q-5 -31 -28 -50.5t-58 -19.5z" />
    <glyph glyph-name="Kcommaaccent" unicode="&#x136;" horiz-adv-x="862" 
d="M752 674q15 16 52 16q26 0 49.5 -8t26.5 -19q-36 -117 -102.5 -206.5t-157.5 -122.5q50 -24 68 -100q6 -23 12.5 -60t12 -64.5t15 -57t26.5 -50.5t42 -32q14 -21 -10 -56.5t-64 -35.5h-6q-36 9 -61.5 33.5t-38.5 64t-19.5 72t-12 81t-9.5 67.5q-9 46 -26.5 69t-50.5 25
q-19 -68 -32.5 -107.5t-34.5 -81t-45.5 -62.5t-61 -34.5t-85.5 -13.5q-54 -1 -93 20.5t-54 54.5t-15 68.5t22 67.5t60 48q1 0 3 0.5t4 0.5q22 0 44.5 -17t21.5 -38q-23 -26 -28 -56t9 -50t41 -20q31 1 51.5 38t43.5 113t53.5 182t49.5 168q-23 -25 -58.5 -43t-63.5 -26.5
t-51.5 -24.5t-29.5 -40q-13 -51 31 -65q5 -4 6 -16.5t-7 -27t-21 -17.5q-3 0 -7.5 -0.5t-6.5 -0.5q-63 0 -101 42t-24 96q10 40 41 65t73.5 38t87 24.5t91.5 35.5t77 60q14 20 66 20q26 0 46 -6.5t21 -17.5q-36 -98 -92 -280q27 10 51 26t41.5 31t35 38.5t27.5 39.5t22.5 43
t17.5 39t15 38.5t12 31.5zM434 -98q7 25 52 25q20 0 32.5 -8t7.5 -21l-51 -130q-8 -22 -44 -22q-17 0 -27.5 8t-6.5 22q5 18 18.5 63t18.5 63z" />
    <glyph glyph-name="kcommaaccent" unicode="&#x137;" horiz-adv-x="482" 
d="M493 214q1 3 6 3q10 0 22.5 -9.5t9.5 -15.5q-40 -82 -101.5 -141.5t-136.5 -59.5q-136 0 -118 208q89 30 118 82q21 35 -6 49q-3 2 -7 3q-4 2 -14 2q-33 0 -71 -35t-50 -80q-40 -147 -53 -209q-10 -20 -74 -20q-26 0 -44 6.5t-17 19.5q78 309 187 661q7 10 42 10
q31 0 57.5 -8.5t27.5 -23.5q-80 -267 -92 -312q35 40 79.5 61t84.5 21q37 0 60 -18q25 -20 28 -53.5t-12.5 -67.5t-52.5 -64.5t-87 -43.5q-2 -108 55 -109q29 0 54.5 12.5t45 36t32.5 45t27 50.5zM99 -97q7 25 52 25q20 0 32.5 -8t7.5 -21l-51 -130q-8 -22 -44 -22
q-17 0 -27.5 8t-6.5 22q5 18 18.5 63t18.5 63z" />
    <glyph glyph-name="Lacute" unicode="&#x139;" horiz-adv-x="610" 
d="M484 665q15 25 65 25q26 0 47 -7.5t25 -17.5q-18 -50 -83.5 -269.5t-98.5 -282.5q13 -15 41.5 -47t40.5 -45t34.5 -34t36.5 -29.5t33.5 -16t38.5 -7.5q24 0 45 8q23 -2 30.5 -43t-14.5 -63q-36 -12 -69 -12q-36 0 -72.5 15t-62 33t-58.5 54t-48 55.5t-46 60.5
q-70 -51 -153 -51q-65 0 -104.5 30t-35.5 86q2 52 46.5 80.5t105.5 28.5q63 0 110 -28q29 82 66 213.5t51 173.5q-22 -27 -57.5 -46t-64.5 -27t-54 -23.5t-31 -39.5q-14 -52 31 -65q8 -11 1 -34.5t-22 -28.5q-2 0 -7 -0.5t-8 -0.5q-63 0 -100 40.5t-25 96.5q8 40 38 64.5
t72 37t86.5 24t92 34t77.5 58.5zM195 122q-12 -17 -1.5 -34.5t39.5 -17.5q43 0 75 45q-27 27 -68 27q-34 0 -45 -20zM591 879q11 15 41 15q40 0 52 -17q6 -8 -1 -16l-82 -96q-9 -10 -31 -10q-23 0 -37.5 10t-3.5 25q11 17 34 49t28 40z" />
    <glyph glyph-name="lacute" unicode="&#x13a;" horiz-adv-x="361" 
d="M286 691q62 0 97 -52t13 -136q-24 -91 -91.5 -161t-170.5 -105q-36 -162 57 -168q58 0 104 42t76 103q1 3 6 3q9 0 22 -9.5t10 -15.5q-48 -96 -103 -148.5t-139 -52.5q-18 0 -27 1q-69 7 -101.5 54.5t-30 121t21.5 168.5q12 52 31 105.5t49.5 113.5t76.5 98t99 38z
M283 601q-17 1 -39 -36t-42 -91.5t-32.5 -93t-19.5 -65.5q37 22 70 65t52 89q14 34 21.5 64.5t5 49t-15.5 18.5zM310 868q11 15 41 15q40 0 52 -17q6 -8 -1 -16l-82 -96q-9 -10 -31 -10q-23 0 -37.5 10t-3.5 25q11 17 34 49t28 40z" />
    <glyph glyph-name="Lcommaaccent" unicode="&#x13b;" horiz-adv-x="610" 
d="M484 665q15 25 65 25q26 0 47 -7.5t25 -17.5q-18 -50 -83.5 -269.5t-98.5 -282.5q13 -15 41.5 -47t40.5 -45t34.5 -34t36.5 -29.5t33.5 -16t38.5 -7.5q24 0 45 8q23 -2 30.5 -43t-14.5 -63q-36 -12 -69 -12q-36 0 -72.5 15t-62 33t-58.5 54t-48 55.5t-46 60.5
q-70 -51 -153 -51q-65 0 -104.5 30t-35.5 86q2 52 46.5 80.5t105.5 28.5q63 0 110 -28q29 82 66 213.5t51 173.5q-22 -27 -57.5 -46t-64.5 -27t-54 -23.5t-31 -39.5q-14 -52 31 -65q8 -11 1 -34.5t-22 -28.5q-2 0 -7 -0.5t-8 -0.5q-63 0 -100 40.5t-25 96.5q8 40 38 64.5
t72 37t86.5 24t92 34t77.5 58.5zM195 122q-12 -17 -1.5 -34.5t39.5 -17.5q43 0 75 45q-27 27 -68 27q-34 0 -45 -20zM271 -104q7 25 52 25q20 0 32.5 -8t7.5 -21l-51 -130q-8 -22 -44 -22q-17 0 -27.5 8t-6.5 22q5 18 18.5 63t18.5 63z" />
    <glyph glyph-name="lcommaaccent" unicode="&#x13c;" horiz-adv-x="361" 
d="M286 691q62 0 97 -52t13 -136q-24 -91 -91.5 -161t-170.5 -105q-36 -162 57 -168q58 0 104 42t76 103q1 3 6 3q9 0 22 -9.5t10 -15.5q-48 -96 -103 -148.5t-139 -52.5q-18 0 -27 1q-69 7 -101.5 54.5t-30 121t21.5 168.5q12 52 31 105.5t49.5 113.5t76.5 98t99 38z
M283 601q-17 1 -39 -36t-42 -91.5t-32.5 -93t-19.5 -65.5q37 22 70 65t52 89q14 34 21.5 64.5t5 49t-15.5 18.5zM91 -102q7 25 52 25q20 0 32.5 -8t7.5 -21l-51 -130q-8 -22 -44 -22q-17 0 -27.5 8t-6.5 22q5 18 18.5 63t18.5 63z" />
    <glyph glyph-name="Lcaron" unicode="&#x13d;" horiz-adv-x="674" 
d="M484 665q15 25 65 25q26 0 47 -7.5t25 -17.5q-18 -50 -83.5 -269.5t-98.5 -282.5q24 -21 66 -60t61.5 -55t48.5 -31t56 -15q24 0 50 10q23 -2 30.5 -43t-14.5 -63q-36 -14 -74 -14q-35 0 -68 11.5t-66.5 37t-54 44t-57 57t-48.5 50.5q-70 -51 -153 -51q-65 0 -104.5 30
t-35.5 86q2 52 46.5 80.5t105.5 28.5q63 0 110 -28q29 82 66 213.5t51 173.5q-22 -27 -57.5 -46t-64.5 -27t-54 -23.5t-31 -39.5q-14 -52 31 -65q8 -11 1 -34.5t-22 -28.5q-2 0 -7 -0.5t-8 -0.5q-63 0 -100 40.5t-25 96.5q8 40 38 64.5t72 37t86.5 24t92 34t77.5 58.5z
M195 122q-12 -17 -1.5 -34.5t39.5 -17.5q43 0 75 45q-27 27 -68 27q-34 0 -45 -20zM692 664q7 19 43 19q23 0 38.5 -9t9.5 -23l-50 -119q-8 -17 -38 -17q-20 0 -33.5 9t-7.5 24q6 18 19 58t19 58z" />
    <glyph glyph-name="lcaron" unicode="&#x13e;" horiz-adv-x="352" 
d="M134 -7q-52 5 -82 32t-38 75.5t-3.5 104t21.5 131.5q11 49 31 103.5t51 114.5t76.5 99t96.5 39q59 0 92.5 -53t10.5 -136q-21 -80 -94 -155t-167 -111q-37 -164 56 -167q55 0 102.5 43t77.5 101q1 3 6 3q10 0 22.5 -9.5t9.5 -16.5q-51 -96 -106 -147.5t-140 -51.5
q-15 0 -23 1zM145 315q37 22 71 65t54 89q23 56 26.5 92t-18.5 40q-17 1 -39.5 -35.5t-42 -92t-31.5 -93t-20 -65.5zM555 662l-44 -99q-6 -14 -33 -14q-15 0 -24.5 6.5t-5.5 18.5q17 58 32 103q7 19 37 19q20 0 32.5 -9.5t5.5 -24.5z" />
    <glyph glyph-name="Ldot" unicode="&#x13f;" horiz-adv-x="610" 
d="M725 -164q-36 -12 -69 -12q-36 0 -72.5 15t-62 33t-58.5 54t-48 55.5t-46 60.5q-70 -51 -153 -51q-65 0 -104.5 30t-35.5 86q2 52 46.5 80.5t105.5 28.5q63 0 110 -28q29 82 66 213.5t51 173.5q-22 -27 -57.5 -46t-64.5 -27t-54 -23.5t-31 -39.5q-14 -52 31 -65
q8 -11 1 -34.5t-22 -28.5q-2 0 -7 -0.5t-8 -0.5q-63 0 -100 40.5t-25 96.5q8 40 38 64.5t72 37t86.5 24t92 34t77.5 58.5q15 25 65 25q26 0 47 -7.5t25 -17.5q-18 -50 -83.5 -269.5t-98.5 -282.5q13 -15 41.5 -47t40.5 -45t34.5 -34t36.5 -29.5t33.5 -16t38.5 -7.5
q24 0 45 8q23 -2 30.5 -43t-14.5 -63zM233 70q43 0 75 45q-27 27 -68 27q-34 0 -45 -20q-12 -17 -1.5 -34.5t39.5 -17.5zM641 239q-25 0 -42.5 18t-15.5 44q2 25 21 43t45 18t42.5 -18t14.5 -43q-2 -26 -21 -44t-44 -18z" />
    <glyph glyph-name="ldot" unicode="&#x140;" horiz-adv-x="355" 
d="M287 692q59 0 92.5 -53t10.5 -136q-21 -80 -94 -155t-167 -111q-37 -164 56 -167q55 0 102.5 43t77.5 101q1 3 6 3q10 0 22.5 -9.5t9.5 -16.5q-49 -95 -105 -147t-141 -52q-15 0 -23 1q-52 5 -82 32t-38 75.5t-3.5 104t21.5 131.5q11 49 31 103.5t51 114.5t76.5 99
t96.5 39zM278 601q-17 1 -39.5 -35.5t-42 -92t-31.5 -93t-20 -65.5q37 22 71 65t54 89q23 56 26.5 92t-18.5 40zM284 273q22 0 34.5 -12t12.5 -31q0 -17 -12.5 -28.5t-33.5 -11.5q-44 0 -44 42q0 18 11.5 29.5t31.5 11.5z" />
    <glyph glyph-name="Lslash" unicode="&#x141;" horiz-adv-x="621" 
d="M720 -38q23 -2 30 -44.5t-14 -61.5q-36 -14 -74 -14q-30 0 -60 10t-52 22.5t-51.5 37t-45 40t-45.5 47.5t-41 43q-59 -51 -146 -51q-70 0 -110.5 29t-34.5 87q4 49 47 76t102 27q61 0 113 -28q5 11 13.5 39.5t9.5 30.5l-60 -4q-12 5 -12.5 25t12.5 27q11 1 37.5 2.5
t37.5 2.5q14 44 39.5 135t39.5 135q-22 -27 -57.5 -46t-64.5 -27t-54 -23.5t-31 -39.5q-14 -52 29 -65q5 -4 5.5 -16.5t-7 -27.5t-19.5 -19q-2 0 -7 -0.5t-8 -0.5q-63 0 -99 40.5t-24 96.5q8 40 38 64.5t72 37t86.5 24t92 34t77.5 58.5q14 25 63 25q27 0 49 -8t23 -18
q-17 -48 -53.5 -172.5t-53.5 -177.5q46 3 101 9q14 -3 15.5 -27t-10.5 -31q-69 -6 -126 -10q-35 -104 -53 -142q23 -20 65.5 -59.5t61.5 -55.5t48 -31t56 -15q24 0 50 10zM307 116q-29 26 -68 26q-31 0 -45 -21q-13 -16 -2 -34t39 -18q49 0 76 47z" />
    <glyph glyph-name="lslash" unicode="&#x142;" horiz-adv-x="346" 
d="M125 -7q-69 6 -97.5 52.5t-26.5 128.5h-29q-13 3 -14 26t14 27h33q8 64 18 109q11 49 31 103t51 114.5t76.5 99.5t96.5 39q60 0 93.5 -53t10.5 -136q-22 -81 -95 -155.5t-167 -110.5q-1 -1 -2 -4t-2 -5h67q15 -2 16 -25.5t-15 -28.5h-72q-3 -103 65 -104q55 0 102 42.5
t77 101.5q2 3 6 3q10 0 22.5 -9.5t10.5 -16.5q-50 -96 -106 -147.5t-141 -51.5q-15 0 -23 1zM137 315q36 22 70 65t54 89q23 56 26.5 92t-18.5 40q-23 1 -54 -65.5t-50 -125t-28 -95.5z" />
    <glyph glyph-name="Nacute" unicode="&#x143;" horiz-adv-x="889" 
d="M755 694q26 0 45.5 -6.5t32.5 -15.5t21 -24.5t12 -30t3.5 -35.5t-2 -36t-6.5 -37.5t-8.5 -35t-9 -33t-7.5 -26.5q-9 -32 -22.5 -77t-22.5 -75.5t-18.5 -68t-12.5 -63.5t-1.5 -51t12.5 -42.5t30 -27.5q17 -17 -8.5 -55t-59.5 -38q-1 0 -3.5 0.5t-3.5 0.5q-25 5 -43.5 16
t-29.5 29t-18.5 38t-8 49.5t0.5 54.5t8 62.5t13 65t18 69.5t20 69.5t21 70.5q33 105 29 137q-4 28 -29 28q-55 0 -127 -88.5t-113 -202.5q-22 -70 -43 -142t-31.5 -108.5t-17.5 -52.5q-9 -22 -63 -22q-27 0 -48 8t-22 22q25 76 80.5 266t85.5 285q-23 -26 -58.5 -44
t-64 -25.5t-52.5 -23t-29 -38.5q-12 -53 33 -67q7 -4 7.5 -17.5t-8.5 -28.5t-22 -16q-2 0 -7 -0.5t-8 -0.5q-62 0 -99 41t-26 96q11 49 56.5 77.5t98.5 39t117 38t101 73.5q15 16 52 16q23 0 41.5 -7t21.5 -19l-44 -141q45 70 108 120.5t129 49.5zM708 879q11 15 41 15
q40 0 52 -17q6 -8 -1 -16l-82 -96q-9 -10 -31 -10q-23 0 -37.5 10t-3.5 25q11 17 34 49t28 40z" />
    <glyph glyph-name="nacute" unicode="&#x144;" 
d="M337 427q56 -1 74.5 -37.5t3.5 -99.5q-5 -20 -21 -72t-22 -77q-15 -70 14 -70t65.5 42t62.5 101q1 4 7 4q10 0 22.5 -9.5t9.5 -16.5q-99 -201 -225 -201q-117 0 -90 119q4 19 21 90.5t19 78.5q13 53 -19 53h-3q-43 -3 -102 -73q-20 -68 -64 -249q-9 -17 -66 -17
q-61 0 -67 24q32 131 110 399q15 13 49 13q60 0 74 -29q-16 -56 -19 -66q94 94 166 93zM280 610q11 15 41 15q40 0 52 -17q6 -8 -1 -16l-82 -96q-9 -10 -31 -10q-23 0 -37.5 10t-3.5 25q11 17 34 49t28 40z" />
    <glyph glyph-name="Ncommaaccent" unicode="&#x145;" horiz-adv-x="889" 
d="M755 694q26 0 45.5 -6.5t32.5 -15.5t21 -24.5t12 -30t3.5 -35.5t-2 -36t-6.5 -37.5t-8.5 -35t-9 -33t-7.5 -26.5q-9 -32 -22.5 -77t-22.5 -75.5t-18.5 -68t-12.5 -63.5t-1.5 -51t12.5 -42.5t30 -27.5q17 -17 -8.5 -55t-59.5 -38q-1 0 -3.5 0.5t-3.5 0.5q-25 5 -43.5 16
t-29.5 29t-18.5 38t-8 49.5t0.5 54.5t8 62.5t13 65t18 69.5t20 69.5t21 70.5q33 105 29 137q-4 28 -29 28q-55 0 -127 -88.5t-113 -202.5q-22 -70 -43 -142t-31.5 -108.5t-17.5 -52.5q-9 -22 -63 -22q-27 0 -48 8t-22 22q25 76 80.5 266t85.5 285q-23 -26 -58.5 -44
t-64 -25.5t-52.5 -23t-29 -38.5q-12 -53 33 -67q7 -4 7.5 -17.5t-8.5 -28.5t-22 -16q-2 0 -7 -0.5t-8 -0.5q-62 0 -99 41t-26 96q11 49 56.5 77.5t98.5 39t117 38t101 73.5q15 16 52 16q23 0 41.5 -7t21.5 -19l-44 -141q45 70 108 120.5t129 49.5zM458 -97q7 25 52 25
q20 0 32.5 -8t7.5 -21l-51 -130q-8 -22 -44 -22q-17 0 -27.5 8t-6.5 22q5 18 18.5 63t18.5 63z" />
    <glyph glyph-name="ncommaaccent" unicode="&#x146;" 
d="M337 427q56 -1 74.5 -37.5t3.5 -99.5q-5 -20 -21 -72t-22 -77q-15 -70 14 -70t65.5 42t62.5 101q1 4 7 4q10 0 22.5 -9.5t9.5 -16.5q-99 -201 -225 -201q-117 0 -90 119q4 19 21 90.5t19 78.5q13 53 -19 53h-3q-43 -3 -102 -73q-20 -68 -64 -249q-9 -17 -66 -17
q-61 0 -67 24q32 131 110 399q15 13 49 13q60 0 74 -29q-16 -56 -19 -66q94 94 166 93zM115 -95q7 25 52 25q20 0 32.5 -8t7.5 -21l-51 -130q-8 -22 -44 -22q-17 0 -27.5 8t-6.5 22q5 18 18.5 63t18.5 63z" />
    <glyph glyph-name="Ncaron" unicode="&#x147;" horiz-adv-x="889" 
d="M755 694q26 0 45.5 -6.5t32.5 -15.5t21 -24.5t12 -30t3.5 -35.5t-2 -36t-6.5 -37.5t-8.5 -35t-9 -33t-7.5 -26.5q-9 -32 -22.5 -77t-22.5 -75.5t-18.5 -68t-12.5 -63.5t-1.5 -51t12.5 -42.5t30 -27.5q17 -17 -8.5 -55t-59.5 -38q-1 0 -3.5 0.5t-3.5 0.5q-25 5 -43.5 16
t-29.5 29t-18.5 38t-8 49.5t0.5 54.5t8 62.5t13 65t18 69.5t20 69.5t21 70.5q33 105 29 137q-4 28 -29 28q-55 0 -127 -88.5t-113 -202.5q-22 -70 -43 -142t-31.5 -108.5t-17.5 -52.5q-9 -22 -63 -22q-27 0 -48 8t-22 22q25 76 80.5 266t85.5 285q-23 -26 -58.5 -44
t-64 -25.5t-52.5 -23t-29 -38.5q-12 -53 33 -67q7 -4 7.5 -17.5t-8.5 -28.5t-22 -16q-2 0 -7 -0.5t-8 -0.5q-62 0 -99 41t-26 96q11 49 56.5 77.5t98.5 39t117 38t101 73.5q15 16 52 16q23 0 41.5 -7t21.5 -19l-44 -141q45 70 108 120.5t129 49.5zM731 764q-15 -9 -38 -9
q-25 0 -37 9q-15 12 -90 96q-14 14 16 26q16 6 33 6q20 0 27 -8l54 -61l84 64q9 6 21 6q25 0 41.5 -15.5t-0.5 -32.5q-51 -42 -111 -81z" />
    <glyph glyph-name="ncaron" unicode="&#x148;" 
d="M337 427q56 -1 74.5 -37.5t3.5 -99.5q-5 -20 -21 -72t-22 -77q-15 -70 14 -70t65.5 42t62.5 101q1 4 7 4q10 0 22.5 -9.5t9.5 -16.5q-99 -201 -225 -201q-117 0 -90 119q4 19 21 90.5t19 78.5q13 53 -19 53h-3q-43 -3 -102 -73q-20 -68 -64 -249q-9 -17 -66 -17
q-61 0 -67 24q32 131 110 399q15 13 49 13q60 0 74 -29q-16 -56 -19 -66q94 94 166 93zM303 495q-15 -9 -38 -9q-25 0 -37 9q-15 12 -90 96q-14 14 16 26q16 6 33 6q20 0 27 -8l54 -61l84 64q9 6 21 6q25 0 41.5 -16t-0.5 -32q-51 -42 -111 -81z" />
    <glyph glyph-name="Eng" unicode="&#x14a;" horiz-adv-x="888" 
d="M898 214q2 3 7 3q10 0 22.5 -9.5t8.5 -16.5q-54 -106 -106.5 -161.5t-129.5 -87.5q-36 -123 -84.5 -180t-139.5 -58q-55 -1 -85.5 26.5t-29 67.5t30.5 75q22 35 70 57.5t121 43.5q14 49 125 467q46 166 -4 165q-54 0 -124.5 -88t-112.5 -203q-24 -78 -46 -153.5
t-31 -105.5t-15 -46q-9 -21 -69 -21q-30 0 -49.5 8t-15.5 23q33 97 88.5 287t78.5 264q-23 -26 -58.5 -44t-64 -25.5t-52.5 -23t-29 -38.5q-14 -52 33 -67q6 -5 6.5 -17.5t-8 -27.5t-21.5 -17q-2 0 -7 -0.5t-8 -0.5q-62 0 -99 41t-26 96q9 41 39.5 65.5t73.5 37.5t88 24.5
t93 37t79 64.5q17 16 51 16q25 0 44.5 -8t18.5 -19q-13 -45 -43 -141q45 70 108 120.5t129 49.5q26 0 45.5 -6.5t32.5 -15.5t21 -24.5t12 -30t3.5 -35.5t-2 -36t-6.5 -37.5t-8.5 -35t-9 -33t-7.5 -26.5q-2 -9 -26.5 -93t-53.5 -184t-37 -126q55 24 97 72t82 131zM568 -94
q-78 -31 -97 -72q-9 -23 -2.5 -36t22.5 -12q54 3 77 120z" />
    <glyph glyph-name="eng" unicode="&#x14b;" horiz-adv-x="508" 
d="M105 -296q-59 -1 -91 26.5t-31.5 67t30.5 75.5q22 35 70 57.5t121 43.5q6 22 37.5 149.5t39.5 155.5q18 55 -20 55q-41 0 -98 -65q-39 -118 -73 -259q-3 -19 -69 -19q-29 0 -48.5 6.5t-15.5 19.5q43 168 113 386q3 10 25 16t48 6q28 0 46 -6.5t14 -18.5
q-3 -10 -7.5 -24.5t-6.5 -22.5q81 74 143 74q115 0 82 -137q-61 -230 -75 -279q54 24 96.5 72t82.5 131q2 3 7 3q10 0 22.5 -9.5t8.5 -15.5q-53 -106 -105.5 -162t-130.5 -88q-18 -63 -34.5 -102.5t-41 -72.5t-58.5 -48t-81 -15zM112 -214q54 3 77 120q-78 -31 -97 -72
q-9 -22 -2.5 -35.5t22.5 -12.5z" />
    <glyph glyph-name="Omacron" unicode="&#x14c;" horiz-adv-x="754" 
d="M471 693q73 -3 121 -35.5t67.5 -78t23 -103t-4.5 -105.5t-22 -92q33 3 72.5 16t65.5 30q7 0 9 -10.5t-1 -22.5t-9 -16q-71 -49 -158 -59q-40 -99 -117.5 -162t-181.5 -64q-135 0 -187 89q-33 55 -27 139.5t49 137.5q6 5 18 5q24 0 48.5 -19.5t19.5 -35.5
q-25 -42 -26.5 -96.5t26.5 -97t81 -43.5q109 -1 167 154q-130 17 -212.5 105t-62.5 204q15 84 82 122t159 38zM461 611q-91 0 -105 -90q-11 -71 36 -140t135 -88q9 36 15 81.5t6 102t-21.5 95t-65.5 39.5zM604 775h-213q-15 0 -19 18.5t5 36t24 17.5q47 -1 149 -1h63
q15 0 18 -18t-5.5 -35.5t-21.5 -17.5z" />
    <glyph glyph-name="omacron" unicode="&#x14d;" horiz-adv-x="511" 
d="M267 427q86 0 127 -51.5t34 -125.5t-52 -148q2 0 5.5 -0.5t5.5 -0.5q85 0 134 113q1 3 7 3q10 0 23 -9t9 -16q-67 -140 -184 -140q-15 0 -43 4q-72 -66 -173 -66q-87 0 -132.5 51.5t-21.5 161.5q22 103 95 163t166 61zM143 204q-31 -134 37 -134q30 0 54 27
q-12 21 -0.5 43t34.5 22h3q28 65 26.5 124.5t-44.5 59.5q-41 0 -70 -46t-40 -96zM380 505h-213q-15 0 -19 18.5t5 36t24 17.5q47 -1 149 -1h63q15 0 18 -18t-5.5 -35.5t-21.5 -17.5z" />
    <glyph glyph-name="Ohungarumlaut" unicode="&#x150;" horiz-adv-x="754" 
d="M471 693q73 -3 121 -35.5t67.5 -78t23 -103t-4.5 -105.5t-22 -92q33 3 72.5 16t65.5 30q7 0 9 -10.5t-1 -22.5t-9 -16q-71 -49 -158 -59q-40 -99 -117.5 -162t-181.5 -64q-135 0 -187 89q-33 55 -27 139.5t49 137.5q6 5 18 5q24 0 48.5 -19.5t19.5 -35.5
q-25 -42 -26.5 -96.5t26.5 -97t81 -43.5q109 -1 167 154q-130 17 -212.5 105t-62.5 204q15 84 82 122t159 38zM461 611q-91 0 -105 -90q-11 -71 36 -140t135 -88q9 36 15 81.5t6 102t-21.5 95t-65.5 39.5zM403 784l34 89q9 23 52 23q20 0 31.5 -7t5.5 -19l-52 -96
q-11 -19 -43 -19q-16 0 -24.5 7.5t-3.5 21.5zM531 783l34 90q9 23 52 23q20 0 32 -7t6 -19l-53 -96q-11 -19 -43 -19q-16 0 -24.5 7t-3.5 21z" />
    <glyph glyph-name="ohungarumlaut" unicode="&#x151;" horiz-adv-x="511" 
d="M267 427q86 0 127 -51.5t34 -125.5t-52 -148q2 0 5.5 -0.5t5.5 -0.5q85 0 134 113q1 3 7 3q10 0 23 -9t9 -16q-67 -140 -184 -140q-15 0 -43 4q-72 -66 -173 -66q-87 0 -132.5 51.5t-21.5 161.5q22 103 95 163t166 61zM143 204q-31 -134 37 -134q30 0 54 27
q-12 21 -0.5 43t34.5 22h3q28 65 26.5 124.5t-44.5 59.5q-41 0 -70 -46t-40 -96zM179 514l34 89q9 23 52 23q20 0 31.5 -7t5.5 -19l-52 -96q-11 -19 -43 -19q-16 0 -24.5 7.5t-3.5 21.5zM307 513l34 90q9 23 52 23q20 0 32 -7t6 -19l-53 -96q-11 -19 -43 -19q-16 0 -24.5 7
t-3.5 21z" />
    <glyph glyph-name="OE" unicode="&#x152;" horiz-adv-x="1028" 
d="M760 -29q-71 0 -133.5 26.5t-89.5 82.5q-87 -89 -201 -89q-136 1 -187 89q-33 55 -27 139.5t49 137.5q9 10 26 10q28 0 52 -19t12 -36q-26 -43 -28.5 -99t25 -99t80.5 -44q76 -1 117 57t74 176q36 126 16.5 216t-84.5 92q-91 0 -105 -90q-9 -51 13.5 -105t72.5 -89
q13 -10 -4 -40t-36 -30q-3 0 -7 2q-88 42 -134 114.5t-31 159.5q14 81 78.5 121t144.5 40q3 0 9 -0.5t9 -0.5q54 -3 94.5 -24t62.5 -54t35 -75.5t12 -88.5t-6 -92q45 25 95 25q-41 40 -43 106t31 104q-17 45 -12 90q2 15 23 15q22 0 24 -17q0 -27 8 -51q56 42 160 42
q60 -4 97.5 -35.5t33.5 -81.5q-4 -49 -42.5 -81.5t-92.5 -36.5q-85 0 -125 54q-8 -46 13 -79.5t61 -43.5q5 -4 6 -19.5t-6.5 -33t-19.5 -19.5q-32 5 -63 5q-43 0 -78.5 -8t-66.5 -31.5t-41 -60.5q-19 -68 24.5 -109t118.5 -41q87 0 159 42t106 119q3 5 8 5q9 0 20.5 -10
t9.5 -15q-103 -222 -317 -222zM930 510q51 3 56 45q1 17 -13.5 27.5t-38.5 10.5q-56 0 -84 -39q30 -44 80 -44z" />
    <glyph glyph-name="oe" unicode="&#x153;" horiz-adv-x="697" 
d="M249 427q51 0 88 -26.5t41 -62.5q39 44 79 65t95 21q66 -1 95.5 -38t21.5 -86q-7 -65 -57 -101.5t-128 -36.5q-30 0 -65 6q-1 -44 21 -70t61 -27q77 0 124.5 34t80.5 108q3 4 8 4q10 0 22 -9t9 -16q-25 -54 -56 -93.5t-57 -59.5t-57.5 -31.5t-50.5 -14t-44 -2.5
q-52 0 -92.5 26t-56.5 72q-66 -97 -175 -97q-85 0 -129 53t-21 161q23 105 91 163t152 58zM246 347q-35 -1 -61.5 -42t-40.5 -102q-15 -46 -10 -89.5t46 -43.5q75 0 106 140q25 137 -40 137zM532 343q-42 0 -68.5 -36t-38.5 -84q7 -1 20 -1q39 0 67 18.5t39 46.5q9 20 5 37
t-24 19z" />
    <glyph glyph-name="Racute" unicode="&#x154;" horiz-adv-x="790" 
d="M677 -104h-5q-28 3 -52 15.5t-42.5 38t-31.5 46t-26.5 59.5t-18.5 56t-16 57q-12 55 -39 75h-50q-51 -172 -70 -228q-12 -17 -60 -17q-27 0 -46.5 8t-17.5 23q13 30 60.5 193t62.5 201q38 101 82 135q15 11 42 11q25 0 45.5 -8.5t16.5 -18.5q-42 -44 -95 -227
q88 0 149.5 39t68.5 121q4 62 -44.5 99t-126.5 38q-65 0 -120 -25t-78 -65q-53 -54 -21 -122q2 -15 -20.5 -34.5t-45.5 -19.5q-3 0 -11 2q-33 17 -51.5 50t-16.5 69q6 109 115.5 168.5t258.5 58.5q129 -1 213 -61t77 -157q-12 -163 -200 -216q24 -21 39 -83q10 -34 19 -57.5
t24.5 -52t36.5 -46t47 -22.5q13 -15 11 -38t-20.5 -44t-42.5 -21zM513 880q11 15 41 15q40 0 52 -17q6 -8 -1 -16l-82 -96q-9 -10 -31 -10q-23 0 -37.5 10t-3.5 25q11 17 34 49t28 40z" />
    <glyph glyph-name="racute" unicode="&#x155;" horiz-adv-x="402" 
d="M33 162q-3 -5 -10 -5q-11 0 -22 9t-6 17q60 119 86 215q-26 41 -21.5 70.5t24 46.5t43.5 17q26 0 39 -21.5t3 -64.5q12 -11 33 -29.5t35.5 -31t30 -30t22 -32.5t4.5 -33t-15 -35q-66 -87 -72 -136q-7 -47 35 -47q53 0 98 42.5t73 99.5q1 3 6 3q10 0 22.5 -9.5t9.5 -15.5
q-94 -200 -258 -200q-60 0 -91 29t-30 78q0 29 14 65t28 60t39 62q5 7 6.5 14t-0.5 14.5t-3.5 12.5t-8 13t-9 11t-10.5 11l-9 9q-28 -103 -86 -209zM271 635q11 15 41 15q40 0 52 -17q6 -8 -1 -16l-82 -96q-9 -10 -31 -10q-23 0 -37.5 10t-3.5 25q11 17 34 49t28 40z" />
    <glyph glyph-name="Rcommaaccent" unicode="&#x156;" horiz-adv-x="790" 
d="M677 -104h-5q-28 3 -52 15.5t-42.5 38t-31.5 46t-26.5 59.5t-18.5 56t-16 57q-12 55 -39 75h-50q-51 -172 -70 -228q-12 -17 -60 -17q-27 0 -46.5 8t-17.5 23q13 30 60.5 193t62.5 201q38 101 82 135q15 11 42 11q25 0 45.5 -8.5t16.5 -18.5q-42 -44 -95 -227
q88 0 149.5 39t68.5 121q4 62 -44.5 99t-126.5 38q-65 0 -120 -25t-78 -65q-53 -54 -21 -122q2 -15 -20.5 -34.5t-45.5 -19.5q-3 0 -11 2q-33 17 -51.5 50t-16.5 69q6 109 115.5 168.5t258.5 58.5q129 -1 213 -61t77 -157q-12 -163 -200 -216q24 -21 39 -83q10 -34 19 -57.5
t24.5 -52t36.5 -46t47 -22.5q13 -15 11 -38t-20.5 -44t-42.5 -21zM371 -95q7 25 52 25q20 0 32.5 -8t7.5 -21l-51 -130q-8 -22 -44 -22q-17 0 -27.5 8t-6.5 22q5 18 18.5 63t18.5 63z" />
    <glyph glyph-name="rcommaaccent" unicode="&#x157;" horiz-adv-x="402" 
d="M33 162q-3 -5 -10 -5q-11 0 -22 9t-6 17q60 119 86 215q-26 41 -21.5 70.5t24 46.5t43.5 17q26 0 39 -21.5t3 -64.5q12 -11 33 -29.5t35.5 -31t30 -30t22 -32.5t4.5 -33t-15 -35q-66 -87 -72 -136q-7 -47 35 -47q53 0 98 42.5t73 99.5q1 3 6 3q10 0 22.5 -9.5t9.5 -15.5
q-94 -200 -258 -200q-60 0 -91 29t-30 78q0 29 14 65t28 60t39 62q5 7 6.5 14t-0.5 14.5t-3.5 12.5t-8 13t-9 11t-10.5 11l-9 9q-28 -103 -86 -209zM134 -104q7 25 52 25q20 0 32.5 -8t7.5 -21l-51 -130q-8 -22 -44 -22q-17 0 -27.5 8t-6.5 22q5 18 18.5 63t18.5 63z" />
    <glyph glyph-name="Rcaron" unicode="&#x158;" horiz-adv-x="790" 
d="M677 -104h-5q-28 3 -52 15.5t-42.5 38t-31.5 46t-26.5 59.5t-18.5 56t-16 57q-12 55 -39 75h-50q-51 -172 -70 -228q-12 -17 -60 -17q-27 0 -46.5 8t-17.5 23q13 30 60.5 193t62.5 201q38 101 82 135q15 11 42 11q25 0 45.5 -8.5t16.5 -18.5q-42 -44 -95 -227
q88 0 149.5 39t68.5 121q4 62 -44.5 99t-126.5 38q-65 0 -120 -25t-78 -65q-53 -54 -21 -122q2 -15 -20.5 -34.5t-45.5 -19.5q-3 0 -11 2q-33 17 -51.5 50t-16.5 69q6 109 115.5 168.5t258.5 58.5q129 -1 213 -61t77 -157q-12 -163 -200 -216q24 -21 39 -83q10 -34 19 -57.5
t24.5 -52t36.5 -46t47 -22.5q13 -15 11 -38t-20.5 -44t-42.5 -21zM536 765q-15 -9 -38 -9q-25 0 -37 9q-15 12 -90 96q-14 14 16 26q16 6 33 6q20 0 27 -8l54 -61l84 64q9 6 21 6q25 0 41.5 -16t-0.5 -32q-51 -42 -111 -81z" />
    <glyph glyph-name="rcaron" unicode="&#x159;" horiz-adv-x="402" 
d="M33 162q-3 -5 -10 -5q-11 0 -22 9t-6 17q60 119 86 215q-26 41 -21.5 70.5t24 46.5t43.5 17q26 0 39 -21.5t3 -64.5q12 -11 33 -29.5t35.5 -31t30 -30t22 -32.5t4.5 -33t-15 -35q-66 -87 -72 -136q-7 -47 35 -47q53 0 98 42.5t73 99.5q1 3 6 3q10 0 22.5 -9.5t9.5 -15.5
q-94 -200 -258 -200q-60 0 -91 29t-30 78q0 29 14 65t28 60t39 62q5 7 6.5 14t-0.5 14.5t-3.5 12.5t-8 13t-9 11t-10.5 11l-9 9q-28 -103 -86 -209zM294 520q-15 -9 -38 -9q-25 0 -37 9q-15 12 -90 96q-14 14 16 26q16 6 33 6q20 0 27 -8l54 -61l84 64q9 6 21 6
q25 0 41.5 -15.5t-0.5 -32.5q-51 -42 -111 -81z" />
    <glyph glyph-name="Sacute" unicode="&#x15a;" horiz-adv-x="603" 
d="M588 517q-9 -23 -51 -23q-20 0 -36.5 7t-19.5 19q9 92 -68 94q-27 -1 -48.5 -20t-24.5 -62q-3 -34 17 -68t50 -64t60 -62t50 -73.5t17 -86.5q-6 -92 -72.5 -140t-175.5 -47q-71 1 -118.5 27t-66 68t-19 90.5t16.5 98.5q12 14 43 14q24 0 44 -8.5t21 -22.5q-21 -84 7 -135
t82 -53q48 0 75 27t30 76q2 37 -18.5 73.5t-51.5 66.5t-61 62t-49.5 74.5t-14.5 89.5q8 74 62 115.5t146 40.5q96 -2 142 -50t32 -128zM431 879q11 15 41 15q40 0 52 -17q6 -8 -1 -16l-82 -96q-9 -10 -31 -10q-23 0 -37.5 10t-3.5 25q11 17 34 49t28 40z" />
    <glyph glyph-name="sacute" unicode="&#x15b;" horiz-adv-x="465" 
d="M168 -12q-46 0 -83 27.5t-43 77.5q5 16 22.5 26.5t34.5 10.5q11 0 16 -4q-1 -24 13.5 -40.5t36.5 -16.5q24 0 38 18q-19 18 -12.5 43.5t29.5 27.5q-1 41 -20 119t-23 105q-64 -64 -144 -220q-3 -5 -9 -5q-11 0 -22 9t-7 17q77 162 166 247q43 43 97 43q38 0 51.5 -22.5
t-11.5 -60.5q6 -31 15.5 -67.5t16.5 -59.5t13.5 -54.5t6 -52.5t-5.5 -55q81 4 131 113q1 3 6 3q9 0 22 -9.5t10 -15.5q-69 -141 -192 -141q-48 -63 -153 -63zM272 644q11 15 41 15q40 0 52 -17q6 -8 -1 -16l-82 -96q-9 -10 -31 -10q-23 0 -37.5 10t-3.5 25q11 17 34 49
t28 40z" />
    <glyph glyph-name="Scedilla" unicode="&#x15e;" horiz-adv-x="603" 
d="M414 695q96 -2 142 -50t32 -128q-9 -23 -51 -23q-20 0 -36.5 7t-19.5 19q9 92 -68 94q-27 -1 -48.5 -20t-24.5 -62q-3 -34 17 -68t50 -64t60 -62t50 -73.5t17 -86.5q-5 -81 -58 -128t-141 -57l-36 -48q45 -6 62.5 -38t-0.5 -66q-12 -28 -40.5 -45.5t-64.5 -17.5
q-47 0 -91 31q-9 6 0.5 25.5t20.5 19.5q35 -19 57 -19q29 0 40 24q12 17 4 32t-38 15h-3q-14 0 -18 8.5t4 21.5l35 56q-65 4 -108.5 31t-60 68t-16.5 88t17 96q12 14 43 14q24 0 44 -8.5t21 -22.5q-21 -84 7 -135t82 -53q48 0 75 27t30 76q2 37 -18.5 73.5t-51.5 66.5
t-61 62t-49.5 74.5t-14.5 89.5q8 74 62 115.5t146 40.5z" />
    <glyph glyph-name="scedilla" unicode="&#x15f;" horiz-adv-x="465" 
d="M475 214q1 3 6 3q9 0 22 -9.5t10 -15.5q-69 -141 -192 -141q-30 -41 -89 -55l-36 -49q45 -6 62.5 -38t-0.5 -66q-12 -28 -40.5 -45.5t-64.5 -17.5q-47 0 -91 31q-9 6 0.5 25.5t20.5 19.5q35 -19 57 -19q29 0 40 24q12 17 4 32t-38 15h-3q-14 0 -18 8.5t4 21.5l32 50
q-44 2 -78.5 29.5t-40.5 75.5q5 16 22.5 26.5t34.5 10.5q11 0 16 -4q-1 -24 13.5 -40.5t36.5 -16.5q24 0 38 18q-19 18 -12.5 43.5t29.5 27.5q-1 41 -20 119t-23 105q-64 -64 -144 -220q-3 -5 -9 -5q-11 0 -22 9t-7 17q77 162 166 247q43 43 97 43q38 0 51.5 -22.5
t-11.5 -60.5q6 -31 15.5 -67.5t16.5 -59.5t13.5 -54.5t6 -52.5t-5.5 -55q81 4 131 113z" />
    <glyph glyph-name="Scaron" unicode="&#x160;" horiz-adv-x="603" 
d="M588 517q-9 -23 -51 -23q-20 0 -36.5 7t-19.5 19q9 92 -68 94q-27 -1 -48.5 -20t-24.5 -62q-3 -34 17 -68t50 -64t60 -62t50 -73.5t17 -86.5q-6 -92 -72.5 -140t-175.5 -47q-71 1 -118.5 27t-66 68t-19 90.5t16.5 98.5q12 14 43 14q24 0 44 -8.5t21 -22.5q-21 -84 7 -135
t82 -53q48 0 75 27t30 76q2 37 -18.5 73.5t-51.5 66.5t-61 62t-49.5 74.5t-14.5 89.5q8 74 62 115.5t146 40.5q96 -2 142 -50t32 -128zM454 764q-15 -9 -38 -9q-25 0 -37 9q-15 12 -90 96q-14 14 16 26q16 6 33 6q20 0 27 -8l54 -61l84 64q9 6 21 6q25 0 41.5 -15.5
t-0.5 -32.5q-51 -42 -111 -81z" />
    <glyph glyph-name="scaron" unicode="&#x161;" horiz-adv-x="465" 
d="M168 -12q-46 0 -83 27.5t-43 77.5q5 16 22.5 26.5t34.5 10.5q11 0 16 -4q-1 -24 13.5 -40.5t36.5 -16.5q24 0 38 18q-19 18 -12.5 43.5t29.5 27.5q-1 41 -20 119t-23 105q-64 -64 -144 -220q-3 -5 -9 -5q-11 0 -22 9t-7 17q77 162 166 247q43 43 97 43q38 0 51.5 -22.5
t-11.5 -60.5q6 -31 15.5 -67.5t16.5 -59.5t13.5 -54.5t6 -52.5t-5.5 -55q81 4 131 113q1 3 6 3q9 0 22 -9.5t10 -15.5q-69 -141 -192 -141q-48 -63 -153 -63zM295 529q-15 -9 -38 -9q-25 0 -37 9q-15 12 -90 96q-14 14 16 26q16 6 33 6q20 0 27 -8l54 -61l84 64q9 6 21 6
q25 0 41.5 -16t-0.5 -32q-51 -42 -111 -81z" />
    <glyph glyph-name="uni0162" unicode="&#x162;" horiz-adv-x="716" 
d="M230 675q53 18 106 18q60 0 165.5 -33t161.5 -33q3 0 10 0.5t10 0.5q46 4 65.5 25t17.5 62q12 17 41 17q20 0 30 -9q25 -42 15 -90t-40 -70q-52 -39 -129 -39q-35 0 -88 7q-8 -28 -32 -109.5t-42 -143.5q-46 -141 -74 -187q-51 -86 -148 -98q-18 -2 -38 -2q-47 0 -83 15
t-54 40t-24.5 53.5t-0.5 57.5q15 69 81 93q1 0 3.5 0.5t3.5 0.5q24 0 46 -18.5t18 -36.5q-22 -26 -26.5 -56t9.5 -50t39 -20h2q34 1 58 52.5t54 154.5q82 286 85 294q-91 34 -132 34q-24 0 -42 -9q-28 -12 -37.5 -34.5t1 -40.5t33.5 -18q20 0 45 16h2q16 0 27 -16.5
t10 -32.5q-47 -56 -117 -56q-38 0 -70 18t-49 50q-15 34 -14 70.5t28 71.5t73 51zM253 -106q7 25 52 25q20 0 32.5 -8t7.5 -21l-51 -130q-8 -22 -44 -22q-17 0 -27.5 8t-6.5 22q5 18 18.5 63t18.5 63z" />
    <glyph glyph-name="uni0163" unicode="&#x163;" horiz-adv-x="321" 
d="M142 -9q-44 0 -74 14t-43.5 43t-18.5 60.5t1 79t14 86t22 93.5h-28q-14 8 -8.5 39.5t20.5 35.5h37q46 148 74 226q9 12 45 12q30 0 56 -9t28 -24q-30 -87 -65 -205h75q15 -13 10 -41t-18 -34h-87q-31 -105 -39 -143q-36 -151 23 -155q39 -1 85 35.5t80 109.5q1 4 7 4
q10 0 22.5 -10t8.5 -17q-90 -199 -227 -200zM70 -104q7 25 52 25q20 0 32.5 -8t7.5 -21l-51 -130q-8 -22 -44 -22q-17 0 -27.5 8t-6.5 22q5 18 18.5 63t18.5 63z" />
    <glyph glyph-name="Tcaron" unicode="&#x164;" horiz-adv-x="716" 
d="M230 675q53 18 106 18q60 0 165.5 -33t161.5 -33q3 0 10 0.5t10 0.5q46 4 65.5 25t17.5 62q12 17 41 17q20 0 30 -9q25 -42 15 -90t-40 -70q-52 -39 -129 -39q-35 0 -88 7q-8 -28 -32 -109.5t-42 -143.5q-46 -141 -74 -187q-51 -86 -148 -98q-18 -2 -38 -2q-47 0 -83 15
t-54 40t-24.5 53.5t-0.5 57.5q15 69 81 93q1 0 3.5 0.5t3.5 0.5q24 0 46 -18.5t18 -36.5q-22 -26 -26.5 -56t9.5 -50t39 -20h2q34 1 58 52.5t54 154.5q82 286 85 294q-91 34 -132 34q-24 0 -42 -9q-28 -12 -37.5 -34.5t1 -40.5t33.5 -18q20 0 45 16h2q16 0 27 -16.5
t10 -32.5q-47 -56 -117 -56q-38 0 -70 18t-49 50q-15 34 -14 70.5t28 71.5t73 51zM601 765q-15 -9 -38 -9q-25 0 -37 9q-15 12 -90 96q-14 14 16 26q16 6 33 6q20 0 27 -8l54 -61l84 64q9 6 21 6q25 0 41.5 -16t-0.5 -32q-51 -42 -111 -81z" />
    <glyph glyph-name="tcaron" unicode="&#x165;" horiz-adv-x="320" 
d="M142 -9q-44 0 -74 14t-43.5 43t-18.5 60.5t1 79t14 86t22 93.5h-37q-15 8 -9.5 39.5t20.5 35.5h47q46 148 74 226q9 12 45 12q30 0 56 -9t28 -24q-30 -87 -65 -205h75q15 -13 10 -41t-18 -34h-87q-31 -105 -39 -143q-36 -151 23 -155q39 -1 85 35.5t80 109.5q1 4 7 4
q10 0 22.5 -10t8.5 -17q-90 -199 -227 -200zM325 651q9 19 39 19q20 0 32 -9t4 -23l-48 -94q-9 -16 -34 -16q-17 0 -26.5 8.5t-3.5 23.5q2 5 37 91z" />
    <glyph glyph-name="Tbar" unicode="&#x166;" horiz-adv-x="761" 
d="M261 -9q-90 -1 -131 45.5t-32 108.5q5 35 26 63.5t55 41.5q6 2 9 2q22 0 45.5 -20t17.5 -36q-34 -40 -26 -82.5t48 -42.5h2q33 1 55.5 47t53.5 150l-68 1q-12 0 -14.5 16t5 32t20.5 16q16 -1 54 -1h21q60 209 70 239q-90 33 -133 33q-25 0 -42 -8q-25 -9 -35.5 -28.5
t-4.5 -36.5q7 -28 37 -28q21 0 44 15q17 1 31 -19t9 -30q-48 -55 -118 -55q-38 0 -69.5 18t-48.5 50q-12 24 -13.5 52.5t8 55.5t34 50t59.5 35q51 18 105 18q60 0 165.5 -33t160.5 -33q15 0 22 1q86 7 83 86q6 17 42 17q20 0 28 -8q24 -49 7 -98t-56 -68q-47 -31 -115 -31
q-12 0 -77 5q-13 -40 -58 -199h88q13 0 16 -16t-4.5 -32.5t-20.5 -16.5h-101q-19 -62 -32 -96t-34 -74t-44.5 -59.5t-59.5 -33t-84 -13.5z" />
    <glyph glyph-name="tbar" unicode="&#x167;" horiz-adv-x="321" 
d="M142 -9q-90 0 -118.5 57.5t-14.5 158.5l-25 2q-9 0 -11.5 16t3.5 31.5t18 14.5q4 0 12.5 -0.5t13.5 -0.5q9 40 23 97h-37q-15 8 -9.5 39.5t20.5 35.5h47q46 148 74 226q9 12 45 12q30 0 56 -9t28 -24q-30 -87 -65 -205h75q15 -13 10 -41t-18 -34h-87q-5 -17 -14.5 -50
t-13.5 -47q10 0 30 1t30 1q9 0 13.5 -14.5t0.5 -30t-15 -17.5q-20 -2 -74 -4q-31 -133 27 -137q39 -1 85 35.5t80 109.5q1 4 7 4q10 0 22.5 -10t8.5 -17q-90 -199 -227 -200z" />
    <glyph glyph-name="Umacron" unicode="&#x16a;" horiz-adv-x="918" 
d="M464 673q19 17 63 17q27 0 47 -7t21 -19q-78 -238 -138 -444q-43 -148 33 -148q48 0 96.5 53t72.5 130q20 64 62.5 208t57.5 194q17 15 51 15q30 0 54 -11t25 -27q-50 -135 -138 -459q-25 -101 13 -102q42 0 81 45.5t63 95.5q2 3 6 3q10 0 22.5 -9.5t9.5 -15.5
q-35 -75 -95.5 -137.5t-132.5 -62.5q-41 0 -67 28.5t-25 79.5q-33 -47 -86 -78t-107 -31q-193 0 -123 265q0 1 97 314q-22 -26 -57.5 -43.5t-63.5 -25t-52.5 -23t-29.5 -39.5q-12 -51 31 -65q12 -7 3.5 -34t-25.5 -28q-3 0 -8 -0.5t-7 -0.5q-63 0 -100.5 40.5t-23.5 95.5
q10 40 40.5 64.5t72.5 38t86.5 25.5t92 36.5t78.5 61.5zM809 775h-213q-15 0 -19 18.5t5 36t24 17.5q47 -1 149 -1h63q15 0 18 -18t-5.5 -35.5t-21.5 -17.5z" />
    <glyph glyph-name="umacron" unicode="&#x16b;" 
d="M320 414q9 13 47 13q66 0 78 -28q-4 -17 -13.5 -49t-17.5 -59.5t-17 -61.5t-14.5 -60.5t-8 -49.5t0.5 -35.5t13 -12.5q25 0 63 42t64 100q3 4 8 4q10 0 22 -9t8 -16q-103 -201 -219 -199q-40 1 -57.5 37.5t-5.5 85.5q-37 -61 -81.5 -93t-108.5 -32t-84.5 40t-7.5 100
q11 57 43 166t34 116q9 15 50 15q28 0 50.5 -7.5t23.5 -20.5q-3 -10 -24 -88.5t-31 -122.5q-20 -82 -15 -100q4 -15 20 -15q28 1 64.5 43t56.5 98q30 96 59 199zM375 505h-213q-15 0 -19 18.5t5 36t24 17.5q47 -1 149 -1h63q15 0 18 -18t-5.5 -35.5t-21.5 -17.5z" />
    <glyph glyph-name="Uring" unicode="&#x16e;" horiz-adv-x="918" 
d="M464 673q19 17 63 17q27 0 47 -7t21 -19q-78 -238 -138 -444q-43 -148 33 -148q48 0 96.5 53t72.5 130q20 64 62.5 208t57.5 194q17 15 51 15q30 0 54 -11t25 -27q-50 -135 -138 -459q-25 -101 13 -102q42 0 81 45.5t63 95.5q2 3 6 3q10 0 22.5 -9.5t9.5 -15.5
q-35 -75 -95.5 -137.5t-132.5 -62.5q-41 0 -67 28.5t-25 79.5q-33 -47 -86 -78t-107 -31q-193 0 -123 265q0 1 97 314q-22 -26 -57.5 -43.5t-63.5 -25t-52.5 -23t-29.5 -39.5q-12 -51 31 -65q12 -7 3.5 -34t-25.5 -28q-3 0 -8 -0.5t-7 -0.5q-63 0 -100.5 40.5t-23.5 95.5
q10 40 40.5 64.5t72.5 38t86.5 25.5t92 36.5t78.5 61.5zM723 910q45 -1 69.5 -25.5t18.5 -63.5q-4 -38 -34 -61t-73 -23q-44 0 -68.5 25t-18.5 64q4 37 34 60.5t72 23.5zM719 856q-30 0 -38 -33q-3 -14 4.5 -23t22.5 -9q33 0 39 32q5 33 -28 33z" />
    <glyph glyph-name="uring" unicode="&#x16f;" 
d="M320 414q9 13 47 13q66 0 78 -28q-4 -17 -13.5 -49t-17.5 -59.5t-17 -61.5t-14.5 -60.5t-8 -49.5t0.5 -35.5t13 -12.5q25 0 63 42t64 100q3 4 8 4q10 0 22 -9t8 -16q-103 -201 -219 -199q-40 1 -57.5 37.5t-5.5 85.5q-37 -61 -81.5 -93t-108.5 -32t-84.5 40t-7.5 100
q11 57 43 166t34 116q9 15 50 15q28 0 50.5 -7.5t23.5 -20.5q-3 -10 -24 -88.5t-31 -122.5q-20 -82 -15 -100q4 -15 20 -15q28 1 64.5 43t56.5 98q30 96 59 199zM289 641q45 -1 69.5 -25.5t18.5 -63.5q-4 -38 -34 -61t-73 -23q-44 0 -68.5 25t-18.5 64q4 37 34 60.5t72 23.5
zM285 587q-30 0 -38 -33q-3 -14 4.5 -23t22.5 -9q33 0 39 32q5 33 -28 33z" />
    <glyph glyph-name="Uhungarumlaut" unicode="&#x170;" horiz-adv-x="918" 
d="M464 673q19 17 63 17q27 0 47 -7t21 -19q-78 -238 -138 -444q-43 -148 33 -148q48 0 96.5 53t72.5 130q20 64 62.5 208t57.5 194q17 15 51 15q30 0 54 -11t25 -27q-50 -135 -138 -459q-25 -101 13 -102q42 0 81 45.5t63 95.5q2 3 6 3q10 0 22.5 -9.5t9.5 -15.5
q-35 -75 -95.5 -137.5t-132.5 -62.5q-41 0 -67 28.5t-25 79.5q-33 -47 -86 -78t-107 -31q-193 0 -123 265q0 1 97 314q-22 -26 -57.5 -43.5t-63.5 -25t-52.5 -23t-29.5 -39.5q-12 -51 31 -65q12 -7 3.5 -34t-25.5 -28q-3 0 -8 -0.5t-7 -0.5q-63 0 -100.5 40.5t-23.5 95.5
q10 40 40.5 64.5t72.5 38t86.5 25.5t92 36.5t78.5 61.5zM608 784l34 89q9 23 52 23q20 0 31.5 -7t5.5 -19l-52 -96q-11 -19 -43 -19q-16 0 -24.5 7.5t-3.5 21.5zM736 783l34 90q9 23 52 23q20 0 32 -7t6 -19l-53 -96q-11 -19 -43 -19q-16 0 -24.5 7t-3.5 21z" />
    <glyph glyph-name="uhungarumlaut" unicode="&#x171;" 
d="M320 414q9 13 47 13q66 0 78 -28q-4 -17 -13.5 -49t-17.5 -59.5t-17 -61.5t-14.5 -60.5t-8 -49.5t0.5 -35.5t13 -12.5q25 0 63 42t64 100q3 4 8 4q10 0 22 -9t8 -16q-103 -201 -219 -199q-40 1 -57.5 37.5t-5.5 85.5q-37 -61 -81.5 -93t-108.5 -32t-84.5 40t-7.5 100
q11 57 43 166t34 116q9 15 50 15q28 0 50.5 -7.5t23.5 -20.5q-3 -10 -24 -88.5t-31 -122.5q-20 -82 -15 -100q4 -15 20 -15q28 1 64.5 43t56.5 98q30 96 59 199zM174 514l34 89q9 23 52 23q20 0 31.5 -7t5.5 -19l-52 -96q-11 -19 -43 -19q-16 0 -24.5 7.5t-3.5 21.5z
M302 513l34 90q9 23 52 23q20 0 32 -7t6 -19l-53 -96q-11 -19 -43 -19q-16 0 -24.5 7t-3.5 21z" />
    <glyph glyph-name="Uogonek" unicode="&#x172;" horiz-adv-x="919" 
d="M889 -152q-20 -34 -51 -52.5t-63 -18.5q-38 0 -62.5 25t-21.5 70q3 60 53 120q-48 0 -73.5 28t-23.5 80q-33 -46 -86 -77.5t-107 -31.5q-98 0 -128 70.5t5 195.5q14 53 50 166.5t46 146.5q-22 -26 -57.5 -43.5t-64 -25t-53 -23t-30.5 -39.5q-12 -50 33 -65q8 -3 8.5 -18
t-8 -29t-21.5 -15q-2 0 -7 -0.5t-8 -0.5q-63 0 -101 41t-24 95q10 40 40.5 64.5t73 38t87 25.5t92 36.5t78.5 61.5q6 21 49 21q18 0 36.5 -4t30 -10.5t10.5 -13.5q-69 -223 -134 -446q-43 -148 34 -148q48 0 96.5 53t71.5 130q23 72 66 218t55 184q4 17 43 17q35 0 66 -13
t25 -30q-25 -64 -68 -202t-74 -254q-25 -101 12 -102q42 0 82 45.5t63 95.5q1 3 6 3q10 0 22.5 -9.5t9.5 -15.5q-39 -82 -98 -141q-38 -40 -61.5 -85.5t-23.5 -79.5t24 -34q21 0 49 31q4 5 11 5q11 0 18.5 -15.5t2.5 -24.5z" />
    <glyph glyph-name="uogonek" unicode="&#x173;" horiz-adv-x="506" 
d="M478 -152q-20 -34 -51 -52.5t-63 -18.5q-38 0 -63 25t-22 70q3 60 52 121q-38 3 -55 38t-5 85q-37 -61 -81.5 -93t-108.5 -32t-84.5 40t-7.5 100q10 49 71 276q4 18 65 18q18 0 33 -2.5t24.5 -7.5t7.5 -12q0 -1 -22.5 -85.5t-32.5 -128.5q-20 -82 -15 -100q4 -15 20 -15
q28 1 64.5 43t56.5 98q11 35 29 101.5t25 91.5q5 17 62 17q19 0 35 -2.5t26 -8t8 -13.5q-5 -19 -20 -70.5t-25.5 -89.5t-19.5 -81t-7.5 -66t14.5 -23q25 0 62 42t65 101q3 4 8 4q10 0 22 -9.5t9 -16.5q-16 -33 -50.5 -84t-65.5 -83q-65 -65 -65 -139q2 -34 24 -34
q21 0 49 31q4 5 11 5q11 0 18.5 -15.5t2.5 -24.5z" />
    <glyph glyph-name="Wcircumflex" unicode="&#x174;" horiz-adv-x="1196" 
d="M1174 732q3 1 9 1q32 0 58 -34.5t12 -54.5q-28 -17 -53.5 -56t-48.5 -101t-37.5 -109.5t-35.5 -123.5q-36 -128 -101.5 -195.5t-179.5 -67.5q-71 0 -106 39.5t-36 95.5q-33 -65 -85 -100t-116 -35q-195 1 -124 271q15 53 52 169t44 139q-22 -26 -57.5 -43.5t-64 -25
t-53 -23t-30.5 -39.5q-12 -52 33 -66q11 -6 3 -32.5t-24 -28.5h-13q-67 0 -102 38t-26 95q7 38 36.5 63t72.5 39t88.5 26.5t93.5 37t78 59.5q16 19 66 19q27 0 47 -7.5t19 -19.5q-90 -282 -137 -442q-19 -54 -13.5 -101.5t46.5 -46.5q38 0 81.5 55t69.5 143q16 55 40 129.5
t51 156.5t37 113q9 17 50 17q29 0 53.5 -10.5t25.5 -28.5q-88 -260 -141 -457q-15 -44 -4 -81.5t52 -37.5t77.5 47t57.5 119q75 254 94 306q52 141 116 178q12 7 25 11zM834 884q15 9 38 9q25 0 37 -9q10 -8 28 -27t38.5 -42t24.5 -27q13 -15 -18 -26q-17 -6 -33 -6
q-20 0 -27 8l-57 59l-80 -62q-8 -7 -21 -7q-25 0 -41 16t0 33q30 26 111 81z" />
    <glyph glyph-name="wcircumflex" unicode="&#x175;" horiz-adv-x="738" 
d="M357 -8q-45 0 -72 29t-21 84q-72 -113 -185 -113q-65 1 -83 39t-5 108q13 69 76 271q17 17 56 17q28 0 49.5 -9t20.5 -23q-57 -188 -68 -239q-9 -34 -7 -57.5t22 -24.5q36 0 68 43t49 88q35 98 67 205q12 17 55 17q27 0 47.5 -8t22.5 -22q-57 -161 -69 -214
q-28 -110 7 -110q27 0 52 28q-12 22 -1 42t32 20q7 0 14 -3q28 46 51 119.5t24 132.5q8 16 56 16q64 0 70 -28q-2 -76 -35 -161t-77 -136q17 -3 33 -3q89 0 143 114q1 3 7 3q10 0 22 -9.5t9 -16.5q-69 -141 -193 -141q-33 0 -68 8q-67 -66 -169 -66zM387 616q15 9 38 9
q25 0 37 -9q10 -8 28 -27t38.5 -42t24.5 -27q13 -15 -18 -26q-16 -6 -33 -6q-20 0 -27 8l-57 59l-80 -62q-8 -7 -21 -7q-25 0 -41 16t0 33q30 26 111 81z" />
    <glyph glyph-name="Ycircumflex" unicode="&#x176;" horiz-adv-x="901" 
d="M911 213q1 4 7 4q10 0 22.5 -9.5t8.5 -16.5q-52 -102 -110.5 -159t-139.5 -89q-11 -47 -20.5 -77t-27.5 -64t-40.5 -53t-58 -32t-81.5 -13q-57 0 -88.5 31t-24.5 79q5 30 21 54t35.5 39.5t51.5 29.5t55.5 21t60.5 17q6 18 20.5 67t18.5 61q-72 -96 -167 -96
q-93 0 -122.5 70.5t4.5 194.5q6 24 91 298q-22 -26 -57.5 -43.5t-64 -25t-52.5 -23t-30 -39.5q-12 -52 30 -65q8 -3 8.5 -18t-8 -29t-21.5 -15h-12q-65 0 -102 39t-25 94q9 41 39.5 66t73 38t87.5 25t93 37t79 63q23 16 62 16q27 0 48 -8t20 -18q-92 -284 -133 -428
q-43 -149 29 -150q50 0 97.5 51t77.5 134q72 246 116 389q13 14 48 14q30 0 56 -10t27 -24q-28 -77 -92.5 -289t-101.5 -341q118 49 192 203zM569 -90q-34 -12 -64 -35t-39 -44q-8 -21 -3 -34t22 -13q54 2 84 126zM696 886q15 9 38 9q25 0 37 -9q10 -8 28 -27t38.5 -42
t24.5 -27q13 -15 -18 -26q-17 -6 -33 -6q-20 0 -27 8l-57 59l-80 -62q-8 -7 -21 -7q-25 0 -41 16t0 33q30 26 111 81z" />
    <glyph glyph-name="ycircumflex" unicode="&#x177;" 
d="M103 -296h-3q-55 0 -87.5 29t-25.5 79q4 30 19.5 54t34.5 39.5t51.5 30t56.5 21.5t63 18q17 44 41 124q-73 -107 -177 -107q-66 2 -84.5 43t-2.5 104q12 50 39 142.5t37 131.5q10 14 51 14q27 0 48.5 -7t23.5 -20q-39 -147 -63 -247q-20 -79 12 -79h2q28 2 62 44.5
t56 98.5q30 79 61 197q11 14 46 14q28 0 52 -8.5t27 -21.5q-1 -4 -107 -387q54 23 96 71t83 132q1 3 7 3q10 0 22.5 -9t8.5 -16q-53 -106 -105.5 -161.5t-129.5 -88.5q-41 -139 -83.5 -188.5t-131.5 -49.5zM116 -214h6q36 8 56 61q4 11 10 32.5t7 26.5q-59 -23 -86 -56
q-12 -14 -15.5 -29t2.5 -25t20 -10zM249 616q15 9 38 9q25 0 37 -9q10 -8 28 -27t38.5 -42t24.5 -27q13 -15 -18 -26q-16 -6 -33 -6q-20 0 -27 8l-57 59l-80 -62q-8 -7 -21 -7q-25 0 -41 16t0 33q30 26 111 81z" />
    <glyph glyph-name="Ydieresis" unicode="&#x178;" horiz-adv-x="901" 
d="M911 213q1 4 7 4q10 0 22.5 -9.5t8.5 -16.5q-52 -102 -110.5 -159t-139.5 -89q-11 -47 -20.5 -77t-27.5 -64t-40.5 -53t-58 -32t-81.5 -13q-57 0 -88.5 31t-24.5 79q5 30 21 54t35.5 39.5t51.5 29.5t55.5 21t60.5 17q6 18 20.5 67t18.5 61q-72 -96 -167 -96
q-93 0 -122.5 70.5t4.5 194.5q6 24 91 298q-22 -26 -57.5 -43.5t-64 -25t-52.5 -23t-30 -39.5q-12 -52 30 -65q8 -3 8.5 -18t-8 -29t-21.5 -15h-12q-65 0 -102 39t-25 94q9 41 39.5 66t73 38t87.5 25t93 37t79 63q23 16 62 16q27 0 48 -8t20 -18q-92 -284 -133 -428
q-43 -149 29 -150q50 0 97.5 51t77.5 134q72 246 116 389q13 14 48 14q30 0 56 -10t27 -24q-28 -77 -92.5 -289t-101.5 -341q118 49 192 203zM569 -90q-34 -12 -64 -35t-39 -44q-8 -21 -3 -34t22 -13q54 2 84 126zM636 758q-30 0 -45 18t-14 42q4 24 22 41.5t47 18.5
q29 0 44.5 -18.5t12.5 -42.5q-2 -23 -20.5 -41t-46.5 -18zM799 758q-30 0 -44.5 18.5t-11.5 41.5q2 23 19.5 41t46.5 19q30 0 45 -18t14 -42q-2 -24 -20.5 -42t-48.5 -18z" />
    <glyph glyph-name="Zacute" unicode="&#x179;" horiz-adv-x="713" 
d="M643 681q19 8 41 8q32 0 54 -18t23 -41q-54 -73 -156.5 -257.5t-168.5 -269.5q9 -9 31.5 -32t33 -33t30 -28t32.5 -26.5t30.5 -18.5t33.5 -14t32 -4q22 0 46 9q23 -6 29 -46t-16 -59q-33 -11 -70 -11q-36 0 -72 13t-64 31t-60 48.5t-52 53t-48 56.5q-37 -28 -69.5 -39
t-79.5 -11q-70 0 -113 27.5t-40 84.5q3 55 48.5 84.5t103.5 29.5q81 -1 153 -52q38 53 118.5 208.5t127.5 225.5q-30 -15 -68 -15q-32 0 -93 14t-88 14q-24 0 -42 -7q-30 -10 -42 -33t-2 -42t36 -19q18 0 47 15q6 2 8 2q15 0 27 -23.5t3 -32.5q-47 -46 -113 -46
q-42 0 -77 20t-50 54q-23 55 6.5 114.5t107.5 78.5q32 7 65 7q45 0 120.5 -19t112.5 -19q44 0 84 18zM221 141q-29 0 -43.5 -18.5t-3.5 -36.5t45 -18q44 2 78 40q-31 33 -76 33zM501 880q11 15 41 15q40 0 52 -17q6 -8 -1 -16l-82 -96q-9 -10 -31 -10q-23 0 -37.5 10
t-3.5 25q11 17 34 49t28 40z" />
    <glyph glyph-name="zacute" unicode="&#x17a;" horiz-adv-x="482" 
d="M170 436q30 -44 99 -44q28 0 48 5q24 7 45 7q41 0 60 -22.5t2 -47.5q-101 -155 -194 -250q11 -1 42 -9t51 -8h10q91 6 159 147q2 3 6 3q9 0 21.5 -9.5t10.5 -15.5q-40 -86 -104 -147.5t-144 -61.5q-29 0 -66.5 11.5t-60.5 11.5h-11q-38 -27 -70 -27t-47.5 23t-1.5 51
t56 41q128 129 183 220q-14 -2 -22 -2q-33 0 -66.5 15.5t-51.5 41.5q-30 -93 -91 -207q-3 -5 -10 -5q-10 0 -21.5 9t-7.5 17q68 137 94 225q-29 53 -11 87t53 34q25 0 38 -23.5t2 -69.5zM301 611q11 15 41 15q40 0 52 -17q6 -8 -1 -16l-82 -96q-9 -10 -31 -10
q-23 0 -37.5 10t-3.5 25q11 17 34 49t28 40z" />
    <glyph glyph-name="Zdotaccent" unicode="&#x17b;" horiz-adv-x="713" 
d="M643 681q19 8 41 8q32 0 54 -18t23 -41q-54 -73 -156.5 -257.5t-168.5 -269.5q9 -9 31.5 -32t33 -33t30 -28t32.5 -26.5t30.5 -18.5t33.5 -14t32 -4q22 0 46 9q23 -6 29 -46t-16 -59q-33 -11 -70 -11q-36 0 -72 13t-64 31t-60 48.5t-52 53t-48 56.5q-37 -28 -69.5 -39
t-79.5 -11q-70 0 -113 27.5t-40 84.5q3 55 48.5 84.5t103.5 29.5q81 -1 153 -52q38 53 118.5 208.5t127.5 225.5q-30 -15 -68 -15q-32 0 -93 14t-88 14q-24 0 -42 -7q-30 -10 -42 -33t-2 -42t36 -19q18 0 47 15q6 2 8 2q15 0 27 -23.5t3 -32.5q-47 -46 -113 -46
q-42 0 -77 20t-50 54q-23 55 6.5 114.5t107.5 78.5q32 7 65 7q45 0 120.5 -19t112.5 -19q44 0 84 18zM221 141q-29 0 -43.5 -18.5t-3.5 -36.5t45 -18q44 2 78 40q-31 33 -76 33zM493 761q-32 0 -46.5 18.5t-11.5 42.5q4 25 23.5 43t49.5 19q29 1 44.5 -18t12.5 -45
q-4 -23 -23.5 -41.5t-48.5 -18.5z" />
    <glyph glyph-name="zdotaccent" unicode="&#x17c;" horiz-adv-x="482" 
d="M170 436q30 -44 99 -44q28 0 48 5q24 7 45 7q41 0 60 -22.5t2 -47.5q-101 -155 -194 -250q11 -1 42 -9t51 -8h10q91 6 159 147q2 3 6 3q9 0 21.5 -9.5t10.5 -15.5q-40 -86 -104 -147.5t-144 -61.5q-29 0 -66.5 11.5t-60.5 11.5h-11q-38 -27 -70 -27t-47.5 23t-1.5 51
t56 41q128 129 183 220q-14 -2 -22 -2q-33 0 -66.5 15.5t-51.5 41.5q-30 -93 -91 -207q-3 -5 -10 -5q-10 0 -21.5 9t-7.5 17q68 137 94 225q-29 53 -11 87t53 34q25 0 38 -23.5t2 -69.5zM293 492q-32 0 -46.5 18.5t-11.5 42.5q4 25 23.5 43t49.5 19q29 1 44.5 -18t12.5 -45
q-4 -23 -23.5 -41.5t-48.5 -18.5z" />
    <glyph glyph-name="Zcaron" unicode="&#x17d;" horiz-adv-x="713" 
d="M643 681q19 8 41 8q32 0 54 -18t23 -41q-54 -73 -156.5 -257.5t-168.5 -269.5q9 -9 31.5 -32t33 -33t30 -28t32.5 -26.5t30.5 -18.5t33.5 -14t32 -4q22 0 46 9q23 -6 29 -46t-16 -59q-33 -11 -70 -11q-36 0 -72 13t-64 31t-60 48.5t-52 53t-48 56.5q-37 -28 -69.5 -39
t-79.5 -11q-70 0 -113 27.5t-40 84.5q3 55 48.5 84.5t103.5 29.5q81 -1 153 -52q38 53 118.5 208.5t127.5 225.5q-30 -15 -68 -15q-32 0 -93 14t-88 14q-24 0 -42 -7q-30 -10 -42 -33t-2 -42t36 -19q18 0 47 15q6 2 8 2q15 0 27 -23.5t3 -32.5q-47 -46 -113 -46
q-42 0 -77 20t-50 54q-23 55 6.5 114.5t107.5 78.5q32 7 65 7q45 0 120.5 -19t112.5 -19q44 0 84 18zM221 141q-29 0 -43.5 -18.5t-3.5 -36.5t45 -18q44 2 78 40q-31 33 -76 33zM524 765q-15 -9 -38 -9q-25 0 -37 9q-15 12 -90 96q-14 14 16 26q16 6 33 6q20 0 27 -8l54 -61
l84 64q9 6 21 6q25 0 41.5 -16t-0.5 -32q-51 -42 -111 -81z" />
    <glyph glyph-name="zcaron" unicode="&#x17e;" horiz-adv-x="482" 
d="M170 436q30 -44 99 -44q28 0 48 5q24 7 45 7q41 0 60 -22.5t2 -47.5q-101 -155 -194 -250q11 -1 42 -9t51 -8h10q91 6 159 147q2 3 6 3q9 0 21.5 -9.5t10.5 -15.5q-40 -86 -104 -147.5t-144 -61.5q-29 0 -66.5 11.5t-60.5 11.5h-11q-38 -27 -70 -27t-47.5 23t-1.5 51
t56 41q128 129 183 220q-14 -2 -22 -2q-33 0 -66.5 15.5t-51.5 41.5q-30 -93 -91 -207q-3 -5 -10 -5q-10 0 -21.5 9t-7.5 17q68 137 94 225q-29 53 -11 87t53 34q25 0 38 -23.5t2 -69.5zM324 496q-15 -9 -38 -9q-25 0 -37 9q-15 12 -90 96q-14 14 16 26q16 6 33 6
q20 0 27 -8l54 -61l84 64q9 6 21 6q25 0 41.5 -15.5t-0.5 -32.5q-51 -42 -111 -81z" />
    <glyph glyph-name="florin" unicode="&#x192;" horiz-adv-x="697" 
d="M673 604q10 -14 -8 -38.5t-36 -24.5q-7 0 -12 5q-31 31 -72 31q-35 1 -56 -26t-35 -85l-28 -123h91q15 0 19.5 -18.5t-4.5 -37.5t-28 -19h-97l-91 -383q-8 -36 -16.5 -62.5t-23.5 -57t-33.5 -49.5t-48 -32t-65.5 -13q-86 0 -125 62q-11 19 8 42.5t40 23.5q9 0 15 -6
q20 -25 62 -25q27 1 44 36t33 104l85 360h-74q-15 0 -19 19t5.5 38t27.5 19h79l31 135q21 89 62.5 135t108.5 50q6 1 18 1q41 0 80.5 -16t62.5 -45z" />
    <glyph glyph-name="Scommaaccent" unicode="&#x218;" horiz-adv-x="603" 
d="M588 517q-9 -23 -51 -23q-20 0 -36.5 7t-19.5 19q9 92 -68 94q-27 -1 -48.5 -20t-24.5 -62q-3 -34 17 -68t50 -64t60 -62t50 -73.5t17 -86.5q-6 -92 -72.5 -140t-175.5 -47q-71 1 -118.5 27t-66 68t-19 90.5t16.5 98.5q12 14 43 14q24 0 44 -8.5t21 -22.5q-21 -84 7 -135
t82 -53q48 0 75 27t30 76q2 37 -18.5 73.5t-51.5 66.5t-61 62t-49.5 74.5t-14.5 89.5q8 74 62 115.5t146 40.5q96 -2 142 -50t32 -128zM237 -103q7 25 52 25q20 0 32.5 -8t7.5 -21l-51 -130q-8 -22 -44 -22q-17 0 -27.5 8t-6.5 22q5 18 18.5 63t18.5 63z" />
    <glyph glyph-name="scommaaccent" unicode="&#x219;" horiz-adv-x="465" 
d="M168 -12q-46 0 -83 27.5t-43 77.5q5 16 22.5 26.5t34.5 10.5q11 0 16 -4q-1 -24 13.5 -40.5t36.5 -16.5q24 0 38 18q-19 18 -12.5 43.5t29.5 27.5q-1 41 -20 119t-23 105q-64 -64 -144 -220q-3 -5 -9 -5q-11 0 -22 9t-7 17q77 162 166 247q43 43 97 43q38 0 51.5 -22.5
t-11.5 -60.5q6 -31 15.5 -67.5t16.5 -59.5t13.5 -54.5t6 -52.5t-5.5 -55q81 4 131 113q1 3 6 3q9 0 22 -9.5t10 -15.5q-69 -141 -192 -141q-48 -63 -153 -63zM134 -101q7 25 52 25q20 0 32.5 -8t7.5 -21l-51 -130q-8 -22 -44 -22q-17 0 -27.5 8t-6.5 22q5 18 18.5 63
t18.5 63z" />
    <glyph glyph-name="uni021A" unicode="&#x21a;" horiz-adv-x="716" 
d="M230 675q53 18 106 18q60 0 165.5 -33t161.5 -33q3 0 10 0.5t10 0.5q46 4 65.5 25t17.5 62q12 17 41 17q20 0 30 -9q25 -42 15 -90t-40 -70q-52 -39 -129 -39q-35 0 -88 7q-8 -28 -32 -109.5t-42 -143.5q-46 -141 -74 -187q-51 -86 -148 -98q-18 -2 -38 -2q-47 0 -83 15
t-54 40t-24.5 53.5t-0.5 57.5q15 69 81 93q1 0 3.5 0.5t3.5 0.5q24 0 46 -18.5t18 -36.5q-22 -26 -26.5 -56t9.5 -50t39 -20h2q34 1 58 52.5t54 154.5q82 286 85 294q-91 34 -132 34q-24 0 -42 -9q-28 -12 -37.5 -34.5t1 -40.5t33.5 -18q20 0 45 16h2q16 0 27 -16.5
t10 -32.5q-47 -56 -117 -56q-38 0 -70 18t-49 50q-15 34 -14 70.5t28 71.5t73 51zM253 -106q7 25 52 25q20 0 32.5 -8t7.5 -21l-51 -130q-8 -22 -44 -22q-17 0 -27.5 8t-6.5 22q5 18 18.5 63t18.5 63z" />
    <glyph glyph-name="uni021B" unicode="&#x21b;" horiz-adv-x="321" 
d="M142 -9q-44 0 -74 14t-43.5 43t-18.5 60.5t1 79t14 86t22 93.5h-28q-14 8 -8.5 39.5t20.5 35.5h37q46 148 74 226q9 12 45 12q30 0 56 -9t28 -24q-30 -87 -65 -205h75q15 -13 10 -41t-18 -34h-87q-31 -105 -39 -143q-36 -151 23 -155q39 -1 85 35.5t80 109.5q1 4 7 4
q10 0 22.5 -10t8.5 -17q-90 -199 -227 -200zM70 -104q7 25 52 25q20 0 32.5 -8t7.5 -21l-51 -130q-8 -22 -44 -22q-17 0 -27.5 8t-6.5 22q5 18 18.5 63t18.5 63z" />
    <glyph glyph-name="circumflex" unicode="&#x2c6;" horiz-adv-x="357" 
d="M170 854q15 9 38 9q25 0 37 -9q15 -12 90 -96q13 -15 -18 -26q-17 -6 -33 -6q-20 0 -27 8l-57 59l-79 -62q-8 -7 -22 -7q-25 0 -41 16t1 33q40 35 111 81z" />
    <glyph glyph-name="caron" unicode="&#x2c7;" horiz-adv-x="357" 
d="M212 734q-15 -9 -38 -9q-25 0 -37 9q-15 12 -90 96q-14 14 16 26q16 6 33 6q20 0 27 -8l54 -61l84 64q9 6 21 6q25 0 41.5 -15.5t-0.5 -32.5q-51 -42 -111 -81z" />
    <glyph glyph-name="breve" unicode="&#x2d8;" horiz-adv-x="337" 
d="M154 724q-55 0 -90.5 32t-31.5 87q2 18 34 18q27 0 28 -13q8 -52 63 -52q59 0 84 53q6 13 27 13q16 0 28 -7t9 -18q-13 -53 -54 -83t-97 -30z" />
    <glyph glyph-name="dotaccent" unicode="&#x2d9;" horiz-adv-x="199" 
d="M96 731q-32 0 -47 19t-12 43q4 25 23.5 42.5t49.5 18.5q29 1 44.5 -18t12.5 -44q-3 -24 -22.5 -42.5t-48.5 -18.5z" />
    <glyph glyph-name="ring" unicode="&#x2da;" horiz-adv-x="260" 
d="M140 880q44 -1 68.5 -25.5t19.5 -63.5q-5 -38 -35.5 -61t-72.5 -23q-43 0 -67.5 25t-19.5 64q4 37 34.5 60.5t72.5 23.5zM136 826q-31 0 -38 -33q-3 -14 4 -23t22 -9q33 0 39 32q3 15 -4.5 24t-22.5 9z" />
    <glyph glyph-name="ogonek" unicode="&#x2db;" horiz-adv-x="292" 
d="M237 -152q-20 -34 -51 -52.5t-63 -18.5q-38 0 -63 25t-22 70q2 43 33 89.5t64 76.5t83 68q5 4 13 4q14 0 21.5 -13t-4.5 -21q-54 -40 -85.5 -95.5t-30.5 -94.5q2 -34 24 -34q21 0 49 31q4 5 10 5q11 0 19 -15.5t3 -24.5z" />
    <glyph glyph-name="tilde" unicode="&#x2dc;" horiz-adv-x="362" 
d="M218 734q-22 1 -55.5 18t-47.5 17q-26 0 -47 -27q-3 -3 -7 -3q-13 0 -30 15.5t-11 26.5q13 27 38.5 46.5t58.5 19.5q23 -1 55 -18t48 -17q27 0 48 25q3 3 7 3q12 0 26.5 -16t8.5 -27q-29 -63 -92 -63z" />
    <glyph glyph-name="hungarumlaut" unicode="&#x2dd;" horiz-adv-x="341" 
d="M78 842q9 23 52 23q20 0 32 -7t6 -19l-53 -96q-11 -19 -43 -19q-16 0 -24.5 7.5t-2.5 21.5q8 22 33 89zM206 842q9 23 52 23q20 0 32 -7t6 -19l-53 -96q-11 -19 -43 -19q-16 0 -24.5 7t-3.5 21q33 86 34 90z" />
    <glyph glyph-name="gravecomb" unicode="&#x300;" horiz-adv-x="0" 
d="M-294 849q5 -8 28 -40t34 -49q11 -15 -3 -25t-35 -10q-22 0 -31 10l-82 96q-14 16 17 28q14 5 32 5q29 0 40 -15z" />
    <glyph glyph-name="acutecomb" unicode="&#x301;" horiz-adv-x="0" 
d="M-262 849q11 15 41 15q40 0 52 -17q6 -8 -1 -16l-82 -96q-9 -10 -31 -10q-23 0 -37.5 10t-3.5 25q11 17 34 49t28 40z" />
    <glyph glyph-name="uni0302" unicode="&#x302;" horiz-adv-x="0" 
d="M-299 854q15 9 38 9q25 0 37 -9q10 -8 28 -27t38.5 -42t24.5 -27q13 -15 -18 -26q-17 -6 -33 -6q-20 0 -27 8l-57 59l-80 -62q-8 -7 -21 -7q-25 0 -41 16t0 33q30 26 111 81z" />
    <glyph glyph-name="tildecomb" unicode="&#x303;" horiz-adv-x="0" 
d="M-228 734q-22 1 -55.5 18t-47.5 17q-26 0 -47 -27q-3 -3 -7 -3q-13 0 -30 15.5t-11 26.5q13 27 38.5 46.5t58.5 19.5q23 -1 55 -18t48 -17q27 0 48 25q3 3 7 3q12 0 26.5 -16t8.5 -27q-29 -63 -92 -63z" />
    <glyph glyph-name="uni0304" unicode="&#x304;" horiz-adv-x="0" 
d="M-172 744h-213q-15 0 -19 18.5t5 36t24 17.5q47 -1 149 -1h63q15 0 18 -17.5t-5.5 -35.5t-21.5 -18z" />
    <glyph glyph-name="uni0306" unicode="&#x306;" horiz-adv-x="0" 
d="M-274 724q-55 0 -90.5 32t-31.5 87q2 18 34 18q28 0 29 -13q6 -52 62 -52q61 0 84 53q6 13 27 13q16 0 28 -7t9 -18q-12 -54 -53.5 -83.5t-97.5 -29.5z" />
    <glyph glyph-name="uni0307" unicode="&#x307;" horiz-adv-x="0" 
d="M-279 730q-32 0 -46.5 18.5t-11.5 42.5q4 25 23.5 43t49.5 19q29 1 44.5 -18t12.5 -45q-4 -23 -23.5 -41.5t-48.5 -18.5z" />
    <glyph glyph-name="uni0308" unicode="&#x308;" horiz-adv-x="0" 
d="M-351 744q-30 0 -45 18t-14 42q4 24 22 41.5t47 18.5q29 0 44.5 -18.5t12.5 -42.5q-2 -23 -20.5 -41t-46.5 -18zM-188 744q-30 0 -44.5 18.5t-11.5 41.5q2 23 19.5 41t46.5 19q30 0 45 -18t14 -42q-2 -24 -20.5 -42t-48.5 -18z" />
    <glyph glyph-name="uni030A" unicode="&#x30a;" horiz-adv-x="0" 
d="M-265 880q45 -1 69.5 -25.5t18.5 -63.5q-4 -38 -34 -61t-73 -23q-44 0 -68.5 25t-18.5 64q4 37 34 60.5t72 23.5zM-269 826q-30 0 -38 -33q-3 -14 4.5 -23t22.5 -9q33 0 39 32q5 33 -28 33z" />
    <glyph glyph-name="uni030B" unicode="&#x30b;" horiz-adv-x="0" 
d="M-376 753l34 89q9 23 52 23q20 0 31.5 -7t5.5 -19l-52 -96q-11 -19 -43 -19q-16 0 -24.5 7.5t-3.5 21.5zM-248 752l34 90q9 23 52 23q20 0 32 -7t6 -19l-53 -96q-11 -19 -43 -19q-16 0 -24.5 7t-3.5 21z" />
    <glyph glyph-name="uni030C" unicode="&#x30c;" horiz-adv-x="0" 
d="M-244 734q-15 -9 -38 -9q-25 0 -37 9q-15 12 -90 96q-14 14 16 26q16 6 33 6q20 0 27 -8l54 -61l84 64q9 6 21 6q25 0 41.5 -15.5t-0.5 -32.5q-51 -42 -111 -81z" />
    <glyph glyph-name="uni0326" unicode="&#x326;" horiz-adv-x="0" 
d="M-465 -104q7 25 52 25q20 0 32.5 -8t7.5 -21l-51 -130q-8 -22 -44 -22q-17 0 -27.5 8t-6.5 22q5 18 18.5 63t18.5 63z" />
    <glyph glyph-name="uni0327" unicode="&#x327;" horiz-adv-x="0" 
d="M-470 -56l63 99l65 -7l-61 -83q45 -6 62.5 -38t-0.5 -66q-12 -28 -40.5 -45.5t-64.5 -17.5q-47 0 -91 31q-9 6 0.5 25.5t20.5 19.5q33 -19 57 -19q27 0 40 24q12 17 4 32t-38 15h-3q-14 0 -18 8.5t4 21.5z" />
    <glyph glyph-name="uni0328" unicode="&#x328;" horiz-adv-x="0" 
d="M-149 -152q-20 -34 -51 -52.5t-63 -18.5q-38 0 -62.5 25t-21.5 70q2 43 33 89.5t63.5 76t82.5 68.5q5 4 13 4q14 0 22 -13t-4 -21q-54 -40 -86 -95.5t-31 -94.5q2 -34 24 -34q21 0 49 31q4 5 11 5q11 0 18.5 -15.5t2.5 -24.5z" />
    <glyph glyph-name="uni0401" unicode="&#x401;" horiz-adv-x="582" 
d="M280 706q2 -36 12 -60q59 50 153 50q73 0 124.5 -34t48.5 -94q-3 -63 -47 -91t-111 -28q-34 1 -68 16t-55 37q-4 -44 28.5 -80.5t92.5 -44.5q14 -11 6.5 -41.5t-25.5 -33.5q-20 2 -33 2q-63 0 -113.5 -29t-58.5 -87q-7 -41 13.5 -68.5t50 -37t64.5 -10.5q160 0 230 142
q1 4 7 4q10 0 22 -10t9 -16q-45 -97 -123 -149t-183 -52q-99 0 -168.5 50.5t-55.5 149.5q11 80 70.5 128t134.5 52q-42 17 -63.5 59.5t-18.5 90t25 81.5q-20 43 -20 102q0 8 9 13t20 5q22 0 23 -16zM357 568q42 -42 97 -42q47 0 49 43q1 19 -16.5 30.5t-43.5 11.5
q-59 0 -86 -43zM378 756q-30 0 -45 18t-14 42q4 24 22 41.5t47 18.5q29 0 44.5 -18.5t12.5 -42.5q-2 -23 -20.5 -41t-46.5 -18zM541 756q-30 0 -44.5 18.5t-11.5 41.5q2 23 19.5 41t46.5 19q30 0 45 -18t14 -42q-2 -24 -20.5 -42t-48.5 -18z" />
    <glyph glyph-name="uni0402" unicode="&#x402;" horiz-adv-x="803" 
d="M416 -257q-102 0 -152 52q-15 17 4.5 44.5t43.5 27.5q8 0 15 -5q31 -24 80 -24q111 7 174 273q9 37 13.5 58.5t9 48.5t4.5 42.5t-3.5 30.5t-12 22t-22.5 8q-69 0 -136 -109q-3 -12 -23 -89.5t-31 -113.5q-1 -8 -23 -13t-49 -5q-28 0 -45.5 6.5t-14.5 20.5q15 54 49 180.5
t59 215t47 157.5q-75 36 -113 36q-13 0 -25 -3q-39 -6 -45 -41q-4 -20 7 -34.5t31 -14.5q11 0 20 4q2 1 7 1q16 0 26 -26.5t0 -32.5q-36 -28 -83 -28q-60 0 -100.5 44t-29.5 105q7 39 36 66t65 38t76 11q68 0 182 -47t180 -48q46 0 65.5 18.5t19.5 59.5q1 8 14.5 13t29.5 5
q23 0 29 -10q21 -46 5.5 -90t-48.5 -65q-42 -28 -107 -28q-58 0 -121 21q-14 -43 -52 -180q68 65 157 65q73 -5 90.5 -80t-12.5 -220q-33 -166 -108 -263.5t-183 -103.5z" />
    <glyph glyph-name="uni0403" unicode="&#x403;" horiz-adv-x="588" 
d="M598 214q1 4 7 4q10 0 22 -9.5t9 -16.5q-99 -202 -317 -202q-89 0 -145.5 40.5t-53.5 122.5q3 84 54 140.5t145 108.5q31 18 50.5 30t42 29.5t34.5 37t16 40.5q6 37 -12 57t-53 22q-84 0 -122 -84q-9 -22 -45 -22q-20 0 -34 8.5t-13 24.5q9 56 46.5 92t84.5 49.5
t104 13.5q81 -3 129.5 -46t44.5 -111q-3 -39 -16.5 -70.5t-43 -60t-57.5 -48.5t-78 -50q-38 -23 -54.5 -34t-40.5 -32t-34.5 -42.5t-12.5 -48.5q-3 -47 27.5 -66.5t82.5 -20.5q72 0 136.5 39.5t96.5 104.5zM437 880q11 15 41 15q40 0 52 -17q6 -8 -1 -16l-82 -96
q-9 -10 -31 -10q-23 0 -37.5 10t-3.5 25q11 17 34 49t28 40z" />
    <glyph glyph-name="uni0404" unicode="&#x404;" horiz-adv-x="580" 
d="M590 214q1 4 7 4q10 0 22 -9.5t9 -16.5q-96 -201 -301 -202q-121 0 -190 76t-62 217q6 107 57 201t136.5 152t184.5 58q15 0 22 -1q77 -5 109 -49t12 -114q-8 -16 -43 -16q-39 0 -44 20q18 73 -55 77q-48 0 -90.5 -22.5t-71.5 -60t-48.5 -81t-28.5 -89.5q40 -3 90 -3
q73 0 121 4q16 -2 16.5 -32.5t-12.5 -37.5q-45 -6 -140 -6q-35 0 -83 2q-5 -95 29.5 -151.5t106.5 -61.5q3 0 10 -0.5t10 -0.5q70 0 132 36t95 107z" />
    <glyph glyph-name="uni0405" unicode="&#x405;" horiz-adv-x="603" 
d="M588 517q-9 -23 -51 -23q-20 0 -36.5 7t-19.5 19q9 92 -68 94q-27 -1 -48.5 -20t-24.5 -62q-3 -34 17 -68t50 -64t60 -62t50 -73.5t17 -86.5q-6 -92 -72.5 -140t-175.5 -47q-71 1 -118.5 27t-66 68t-19 90.5t16.5 98.5q12 14 43 14q24 0 44 -8.5t21 -22.5q-21 -84 7 -135
t82 -53q48 0 75 27t30 76q2 37 -18.5 73.5t-51.5 66.5t-61 62t-49.5 74.5t-14.5 89.5q8 74 62 115.5t146 40.5q96 -2 142 -50t32 -128z" />
    <glyph glyph-name="uni0406" unicode="&#x406;" horiz-adv-x="558" 
d="M475 670q18 20 67 20q24 0 44.5 -6.5t24.5 -16.5q-22 -62 -125 -389q-14 -44 -20 -63.5t-19 -54t-22 -50.5t-24.5 -40t-31 -35t-37 -23.5t-47.5 -17t-58 -4.5q-54 0 -93.5 21.5t-54.5 55t-15 69.5t22.5 68t61.5 46q1 0 3 0.5t4 0.5q22 0 44 -18t20 -38
q-23 -26 -27.5 -55.5t9 -49t39.5 -19.5q10 0 18.5 4t16.5 13t14.5 18t14 25.5t12.5 29t12 35.5t11.5 37.5t12.5 42t13 42.5q71 241 75 253q-23 -26 -58 -43.5t-63 -25t-52 -23.5t-30 -40q-15 -55 32 -65q10 -11 2 -35t-25 -28q-2 0 -7 -0.5t-8 -0.5q-63 0 -99.5 40t-25.5 95
q8 41 38 66t72.5 38.5t87.5 25t92.5 35t78.5 60.5z" />
    <glyph glyph-name="uni0407" unicode="&#x407;" horiz-adv-x="558" 
d="M475 670q18 20 67 20q24 0 44.5 -6.5t24.5 -16.5q-22 -62 -125 -389q-14 -44 -20 -63.5t-19 -54t-22 -50.5t-24.5 -40t-31 -35t-37 -23.5t-47.5 -17t-58 -4.5q-54 0 -93.5 21.5t-54.5 55t-15 69.5t22.5 68t61.5 46q1 0 3 0.5t4 0.5q22 0 44 -18t20 -38
q-23 -26 -27.5 -55.5t9 -49t39.5 -19.5q10 0 18.5 4t16.5 13t14.5 18t14 25.5t12.5 29t12 35.5t11.5 37.5t12.5 42t13 42.5q71 241 75 253q-23 -26 -58 -43.5t-63 -25t-52 -23.5t-30 -40q-15 -55 32 -65q10 -11 2 -35t-25 -28q-2 0 -7 -0.5t-8 -0.5q-63 0 -99.5 40t-25.5 95
q8 41 38 66t72.5 38.5t87.5 25t92.5 35t78.5 60.5zM488 756q-30 0 -45 18t-14 42q4 24 22 41.5t47 18.5q29 0 44.5 -18.5t12.5 -42.5q-2 -23 -20.5 -41t-46.5 -18zM651 756q-30 0 -44.5 18.5t-11.5 41.5q2 23 19.5 41t46.5 19q30 0 45 -18t14 -42q-2 -24 -20.5 -42
t-48.5 -18z" />
    <glyph glyph-name="uni0408" unicode="&#x408;" horiz-adv-x="596" 
d="M164 -295q-45 0 -76 17.5t-42.5 45t-6 60.5t28.5 62q43 67 214 107q96 351 164 574q-28 -33 -75.5 -52t-83 -34t-43.5 -44q-15 -55 30 -67q7 -4 7 -18t-10 -29.5t-23 -15.5h-10q-64 0 -101 41t-23 96q10 40 41 64.5t73 37t86.5 24t91.5 36t77 62.5q20 19 66 19
q61 0 66 -25q-108 -322 -197 -641q115 43 189 189q1 3 7 3q10 0 22.5 -9.5t8.5 -16.5q-48 -98 -107.5 -149.5t-138.5 -82.5q-9 -33 -14 -49t-15 -45t-19 -44t-22.5 -37t-28.5 -33.5t-35.5 -23.5t-45.5 -17t-55 -5zM168 -215q67 0 94 139q-97 -31 -118 -81q-9 -26 -1.5 -41.5
t25.5 -16.5z" />
    <glyph glyph-name="uni0409" unicode="&#x409;" horiz-adv-x="1052" 
d="M836 494q94 -2 145.5 -78t28.5 -191q-22 -110 -94 -172.5t-183 -62.5q-180 0 -203 188q-15 131 25 323h-3q-130 -495 -346 -510h-16q-76 0 -121 38.5t-40 103.5q2 39 23 70t55 46q6 2 11 2q23 0 46 -20.5t18 -35.5q-23 -29 -28 -59t7.5 -48.5t36.5 -18.5h2
q62 3 133 136.5t156 367.5q-29 -26 -81 -44.5t-89.5 -37t-45.5 -49.5q-14 -51 28 -67q6 -5 6.5 -17.5t-8.5 -27t-22 -16.5h-8q-65 0 -103 43t-22 99q12 40 44 65.5t75.5 38.5t89.5 24t95 32t81 52q17 20 62 20q27 0 48 -8t20 -22q-28 -173 -33 -285q36 55 91.5 88t118.5 33z
M885 235q15 72 -5.5 118.5t-73.5 49.5q-71 0 -115 -50t-54 -125q2 -150 109 -150q53 1 88.5 46t50.5 111z" />
    <glyph glyph-name="uni040A" unicode="&#x40a;" horiz-adv-x="1215" 
d="M290 -9q-97 0 -133 47.5t-22 111.5q15 77 86.5 124.5t180.5 47.5q4 0 12 -0.5t12 -0.5q59 186 88 267q-34 -34 -91 -34q-15 0 -45.5 3t-45.5 3q-32 0 -55 -11q-48 -17 -48 -54q0 -15 12 -26t30 -11t37 13q2 1 7 1q14 0 25 -21t5 -31q-40 -46 -106 -46q-77 0 -112 51
q-38 51 -21 114q19 74 114 95q37 12 79 12q27 0 72 -7t64 -7q60 0 107 47q14 15 52 15q19 0 37.5 -4t30 -10.5t10.5 -13.5q-33 -96 -110 -349q78 0 135 28q36 135 99 332q12 15 53 15q29 0 52.5 -9.5t24.5 -25.5q-32 -92 -81 -251q68 59 151 59q95 -1 139 -63.5t19 -174.5
q-26 -116 -110 -176.5t-202 -60.5q-152 0 -258 102q-10 19 7 45t35 26q99 -84 192 -90q158 0 207 162q21 70 6 110t-66 42q-94 0 -148 -86q-21 -46 -47 -140q-9 -9 -30 -9q-27 0 -51.5 13.5t-27.5 35.5q8 36 16 66q-56 -23 -138 -23q-16 -47 -26.5 -75t-26.5 -61
t-32.5 -51.5t-40 -35t-54 -23.5t-69.5 -7zM299 71q34 -1 58 41t47 126q-111 -4 -139 -91q-11 -26 -2 -51t36 -25z" />
    <glyph glyph-name="uni040B" unicode="&#x40b;" horiz-adv-x="798" 
d="M629 -9h-11q-104 0 -87 110q4 29 47 178q18 54 -18 54q-26 0 -57.5 -22.5t-52.5 -48.5l-66 -253q-1 -7 -23.5 -12.5t-49.5 -5.5q-29 0 -48 7t-15 20q19 65 73.5 265.5t81.5 287.5q-77 36 -114 36q-13 0 -23 -3q-40 -6 -46 -43q-2 -20 8.5 -33.5t29.5 -13.5q10 0 21 4
q2 1 7 1q16 0 26 -26t0 -33q-37 -28 -81 -28q-61 0 -103.5 44t-28.5 105q13 58 62.5 86.5t113.5 28.5q68 0 182.5 -47t179.5 -48q46 0 66.5 18.5t18.5 59.5q5 18 43 18q24 0 31 -11q21 -45 5.5 -89t-48.5 -65q-43 -28 -108 -28q-58 0 -121 21q-16 -49 -50 -179q90 81 161 81
q61 0 80.5 -38.5t-0.5 -98.5q-6 -22 -19 -62t-19.5 -62.5t-11.5 -47.5t-0.5 -36.5t18.5 -10.5q27 1 64 44t61 99q1 4 7 4q10 0 23 -10t9 -16q-97 -194 -218 -201z" />
    <glyph glyph-name="uni040C" unicode="&#x40c;" horiz-adv-x="862" 
d="M752 674q15 16 52 16q26 0 49.5 -8t26.5 -19q-36 -117 -102.5 -206.5t-157.5 -122.5q50 -24 68 -100q6 -23 12.5 -60t12 -64.5t15 -57t26.5 -50.5t42 -32q14 -21 -10 -56.5t-64 -35.5h-6q-36 9 -61.5 33.5t-38.5 64t-19.5 72t-12 81t-9.5 67.5q-9 46 -26.5 69t-50.5 25
q-19 -68 -32.5 -107.5t-34.5 -81t-45.5 -62.5t-61 -34.5t-85.5 -13.5q-54 -1 -93 20.5t-54 54.5t-15 68.5t22 67.5t60 48q1 0 3 0.5t4 0.5q22 0 44.5 -17t21.5 -38q-23 -26 -28 -56t9 -50t41 -20q31 1 51.5 38t43.5 113t53.5 182t49.5 168q-23 -25 -58.5 -43t-63.5 -26.5
t-51.5 -24.5t-29.5 -40q-13 -51 31 -65q5 -4 6 -16.5t-7 -27t-21 -17.5q-3 0 -7.5 -0.5t-6.5 -0.5q-63 0 -101 42t-24 96q10 40 41 65t73.5 38t87 24.5t91.5 35.5t77 60q14 20 66 20q26 0 46 -6.5t21 -17.5q-36 -98 -92 -280q27 10 51 26t41.5 31t35 38.5t27.5 39.5t22.5 43
t17.5 39t15 38.5t12 31.5zM707 880q11 15 41 15q40 0 52 -17q6 -8 -1 -16l-82 -96q-9 -10 -31 -10q-23 0 -37.5 10t-3.5 25q11 17 34 49t28 40z" />
    <glyph glyph-name="uni040D" unicode="&#x40d;" horiz-adv-x="918" 
d="M464 673q19 17 63 17q27 0 47 -7t21 -19q-78 -238 -138 -444q-43 -148 33 -148q48 0 96.5 53t72.5 130q20 64 62.5 208t57.5 194q17 15 51 15q30 0 54 -11t25 -27q-50 -135 -138 -459q-25 -101 13 -102q42 0 81 45.5t63 95.5q2 3 6 3q10 0 22.5 -9.5t9.5 -15.5
q-35 -75 -95.5 -137.5t-132.5 -62.5q-41 0 -67 28.5t-25 79.5q-33 -47 -86 -78t-107 -31q-193 0 -123 265q0 1 97 314q-22 -26 -57.5 -43.5t-63.5 -25t-52.5 -23t-29.5 -39.5q-12 -51 31 -65q12 -7 3.5 -34t-25.5 -28q-3 0 -8 -0.5t-7 -0.5q-63 0 -100.5 40.5t-23.5 95.5
q10 40 40.5 64.5t72.5 38t86.5 25.5t92 36.5t78.5 61.5zM681 879q5 -8 28 -40t34 -49q11 -15 -3 -25t-35 -10q-22 0 -31 10l-82 96q-14 16 17 28q14 5 32 5q29 0 40 -15z" />
    <glyph glyph-name="uni040E" unicode="&#x40e;" horiz-adv-x="852" 
d="M491 -9q-110 0 -179 71q-14 14 8 43t43 29q5 0 9 -3q58 -53 116 -53q64 2 101 70q28 45 58 152q-74 -101 -171 -110q-3 0 -8.5 -0.5t-7.5 -0.5q-104 0 -113 102q-3 36 5 85.5t18 86.5t30 104q-22 -23 -57 -39t-63.5 -24t-52.5 -24.5t-30 -40.5q-12 -51 32 -65
q7 -5 7.5 -18.5t-8 -28t-21.5 -15.5q-2 0 -7 -0.5t-8 -0.5q-63 0 -100.5 39.5t-24.5 94.5q10 41 41 66t73 38t87 25.5t92.5 37.5t78.5 63q10 20 56 20q18 0 35 -3t27 -9t8 -12q-63 -191 -79 -284q-24 -117 28 -117h5q45 5 103 80t85 163l45 147q4 16 41 16q32 0 60.5 -12
t24.5 -28q-81 -295 -123 -411q-39 -114 -97.5 -174t-166.5 -60zM788 863q3 3 7 3q13 0 23.5 -21t2.5 -32q-23 -31 -65.5 -49t-86.5 -18q-40 0 -68 15.5t-34 44.5q-4 19 14.5 38.5t33.5 19.5q5 0 8 -4q17 -31 64 -31q27 0 56 10t45 24z" />
    <glyph glyph-name="uni040F" unicode="&#x40f;" horiz-adv-x="918" 
d="M464 673q19 17 63 17q27 0 47 -7t21 -19q-78 -238 -138 -444q-43 -148 33 -148q48 0 96.5 53t72.5 130q20 64 62.5 208t57.5 194q17 15 51 15q30 0 54 -11t25 -27q-50 -135 -138 -459q-25 -101 13 -102q42 0 81 45.5t63 95.5q2 3 6 3q10 0 22.5 -9.5t9.5 -15.5
q-35 -75 -95.5 -137.5t-132.5 -62.5q-41 0 -67 28.5t-25 79.5q-33 -47 -86 -78t-107 -31q-193 0 -123 265q0 1 97 314q-22 -26 -57.5 -43.5t-63.5 -25t-52.5 -23t-29.5 -39.5q-12 -51 31 -65q12 -7 3.5 -34t-25.5 -28q-3 0 -8 -0.5t-7 -0.5q-63 0 -100.5 40.5t-23.5 95.5
q10 40 40.5 64.5t72.5 38t86.5 25.5t92 36.5t78.5 61.5zM453 -105q7 25 52 25q20 0 32.5 -8t7.5 -21l-51 -130q-8 -22 -44 -22q-17 0 -27.5 8t-6.5 22q5 18 18.5 63t18.5 63z" />
    <glyph glyph-name="uni0410" unicode="&#x410;" horiz-adv-x="867" 
d="M228 -9q-86 0 -125.5 41.5t-27.5 112.5q15 82 92 128t185 46q22 0 34 -1q36 85 54 124.5t50 93t66 91.5q59 63 135 63q43 0 72.5 -23.5t32.5 -64.5q8 -102 -49 -316q103 3 148 47q7 5 11 5q12 0 19 -16t1 -24q-60 -68 -189 -78q-33 -133 -43 -201q-17 -23 -69 -23
q-54 0 -68 23q10 70 44 199q-24 2 -118 11q-22 -54 -41 -89t-49 -73t-71 -57t-94 -19zM235 71q34 1 59.5 40t60.5 126q-54 0 -95 -22t-56 -70q-10 -26 -2.5 -50.5t33.5 -23.5zM617 291q57 203 68 280q5 31 -14 31q-17 0 -42.5 -38t-51 -99t-39 -95.5t-25.5 -67.5
q43 -6 104 -11z" />
    <glyph glyph-name="uni0411" unicode="&#x411;" horiz-adv-x="858" 
d="M216 -8q-71 0 -117 28t-43 84q2 53 41.5 83t96.5 30q64 0 125 -35q16 41 38 126t45.5 159t51.5 116q-60 20 -86 20q-46 0 -59 -36q-9 -18 -2 -40t27 -31q11 -5 0.5 -32.5t-26.5 -26.5q-68 4 -101.5 48t-15.5 106q29 104 167 104q44 0 94 -13.5t87.5 -30t84.5 -29.5
t87 -13q44 1 63.5 22t19.5 64q0 16 36 16q30 0 34 -13q31 -76 -13.5 -134t-125.5 -59q-60 0 -171 43q-26 -40 -58 -143q29 4 62 4q130 0 193 -70t40 -178q-17 -81 -78.5 -125t-146.5 -44q-94 0 -188 67q-55 -67 -162 -67zM291 119q-28 20 -63 23h-5q-28 0 -41.5 -17.5
t-3.5 -35.5t39 -18q48 0 74 48zM665 190q11 69 -25.5 104.5t-105.5 35.5q-31 0 -56 -5q-37 -134 -61 -201q66 -48 130 -48q51 0 80.5 30.5t37.5 83.5z" />
    <glyph glyph-name="uni0412" unicode="&#x412;" horiz-adv-x="872" 
d="M563 694q128 -1 208 -58.5t63 -148.5q-11 -57 -61.5 -92t-107.5 -36q77 -10 117.5 -73t23.5 -135q-19 -77 -77.5 -118t-140.5 -41q-106 0 -191 68q-56 -68 -162 -68q-71 0 -117 28t-43 85q2 53 41 82.5t97 29.5q64 0 125 -35q13 33 40.5 135.5t56 163t69.5 80.5
q10 5 28 5q22 0 41 -8.5t20 -18.5q-26 -23 -68 -149q66 2 115.5 29t62.5 76q15 55 -25.5 85.5t-120.5 31.5h-5q-76 0 -136.5 -27t-86 -74.5t1.5 -111.5q-3 -20 -24.5 -36.5t-44.5 -16.5q-4 0 -12 2q-68 46 -65 120t62 128q109 98 316 98zM249 145q-2 0 -5.5 0.5t-4.5 0.5
q-40 0 -50 -29q-9 -26 15 -40q11 -6 27 -6q52 0 80 50q-39 22 -62 24zM503 324q-55 -173 -67 -200q63 -53 129 -53q44 0 75 27.5t42 84.5q9 52 -15 86t-69 47q-31 9 -66 9q-19 0 -29 -1z" />
    <glyph glyph-name="uni0413" unicode="&#x413;" horiz-adv-x="588" 
d="M598 214q1 4 7 4q10 0 22 -9.5t9 -16.5q-99 -202 -317 -202q-89 0 -145.5 40.5t-53.5 122.5q3 84 54 140.5t145 108.5q31 18 50.5 30t42 29.5t34.5 37t16 40.5q6 37 -12 57t-53 22q-84 0 -122 -84q-9 -22 -45 -22q-20 0 -34 8.5t-13 24.5q9 56 46.5 92t84.5 49.5
t104 13.5q81 -3 129.5 -46t44.5 -111q-3 -39 -16.5 -70.5t-43 -60t-57.5 -48.5t-78 -50q-38 -23 -54.5 -34t-40.5 -32t-34.5 -42.5t-12.5 -48.5q-3 -47 27.5 -66.5t82.5 -20.5q72 0 136.5 39.5t96.5 104.5z" />
    <glyph glyph-name="uni0414" unicode="&#x414;" horiz-adv-x="916" 
d="M539 694q142 -4 236 -92t90 -247q-4 -166 -84 -265.5t-201 -97.5q-97 0 -186 66q-58 -67 -161 -67q-78 0 -121.5 31.5t-39.5 85.5q4 53 43.5 80.5t96.5 27.5q67 0 123 -35q15 37 41 128.5t52.5 154t62.5 92.5q13 10 38 10q23 0 43.5 -8.5t19.5 -18.5
q-43 -56 -91.5 -213.5t-71.5 -199.5q68 -52 140 -52q47 0 81.5 29t52 74.5t25.5 90t8 87.5q4 258 -220 258q-60 0 -113.5 -29.5t-76 -77t3.5 -106.5q2 -14 -19.5 -33.5t-46.5 -19.5q-9 0 -18 3q-58 39 -60 110t49 126q95 108 304 108zM236 146q-40 -1 -49 -30q-9 -27 15 -41
q10 -6 24 -6q51 0 84 52q-44 25 -74 25z" />
    <glyph glyph-name="uni0415" unicode="&#x415;" horiz-adv-x="582" 
d="M280 706q2 -36 12 -60q59 50 153 50q73 0 124.5 -34t48.5 -94q-3 -63 -47 -91t-111 -28q-34 1 -68 16t-55 37q-4 -44 28.5 -80.5t92.5 -44.5q14 -11 6.5 -41.5t-25.5 -33.5q-20 2 -33 2q-63 0 -113.5 -29t-58.5 -87q-7 -41 13.5 -68.5t50 -37t64.5 -10.5q160 0 230 142
q1 4 7 4q10 0 22 -10t9 -16q-45 -97 -123 -149t-183 -52q-99 0 -168.5 50.5t-55.5 149.5q11 80 70.5 128t134.5 52q-42 17 -63.5 59.5t-18.5 90t25 81.5q-20 43 -20 102q0 8 9 13t20 5q22 0 23 -16zM357 568q42 -42 97 -42q47 0 49 43q1 19 -16.5 30.5t-43.5 11.5
q-59 0 -86 -43z" />
    <glyph glyph-name="uni0416" unicode="&#x416;" horiz-adv-x="1078" 
d="M940 -91h-7q-21 1 -39 10t-32 27.5t-24.5 37t-20 47t-15.5 48.5t-14.5 51.5t-12.5 46.5q-15 54 -32 83t-44 30q-16 -59 -39.5 -156.5t-29.5 -121.5q-6 -23 -67 -23q-29 0 -48.5 8.5t-15.5 24.5q32 105 80 273q-56 -4 -118 -100q-6 -9 -22.5 -34t-24 -36.5t-24 -33.5
t-27 -33t-28 -26.5t-33 -23t-35 -13t-40.5 -5.5q-12 0 -19 1q-25 2 -31.5 28t2.5 53t25 35q30 0 63.5 30.5t86.5 98.5q29 37 46 56.5t47 43t60 31.5q-40 38 -55.5 85.5t-20.5 119.5q-20 -36 -50.5 -62t-54.5 -38t-43.5 -30t-23.5 -41q-11 -57 41 -64q12 -3 9 -31t-17 -33
q-24 -6 -45 -6q-51 0 -83.5 28.5t-32.5 75.5q1 40 24 69.5t59.5 51t75.5 42.5t78 55t61 77q5 26 61 26q57 0 62 -22q-16 -88 -0.5 -163t55.5 -116q54 190 81 280q14 20 62 20q25 0 44.5 -6t20.5 -15q-37 -116 -87 -283q46 19 81.5 51.5t59 78t36 77.5t26.5 81q10 15 52 15
q28 0 51 -7t24 -18q-33 -126 -96 -213.5t-151 -116.5q50 -27 81 -129q3 -11 11.5 -41.5t12.5 -44.5t13.5 -37.5t18.5 -35.5t23 -22t30 -11q10 -17 8 -40t-22 -44t-47 -21z" />
    <glyph glyph-name="uni0417" unicode="&#x417;" horiz-adv-x="614" 
d="M72 133q-4 14 11.5 27.5t30.5 13.5q7 0 12 -5q22 -43 64.5 -71t90.5 -28q57 0 89 32.5t41 87.5q8 50 -14.5 88t-63.5 51q-16 -2 -21 -2q-39 0 -54 23.5t0.5 46.5t49.5 23q17 0 32 -5q43 7 73 46t31 84q1 33 -17.5 53t-54.5 21h-2q-40 0 -70.5 -24t-47.5 -65
q-8 -16 -42 -16q-18 0 -31 8t-14 23q19 77 77.5 116t140.5 39q84 0 137.5 -40.5t52.5 -109.5q0 -62 -41 -109t-92 -62q46 -23 77.5 -73.5t21.5 -122.5q-12 -92 -81.5 -142.5t-169.5 -50.5q-165 0 -216 143z" />
    <glyph glyph-name="uni0418" unicode="&#x418;" horiz-adv-x="918" 
d="M464 673q19 17 63 17q27 0 47 -7t21 -19q-78 -238 -138 -444q-43 -148 33 -148q48 0 96.5 53t72.5 130q20 64 62.5 208t57.5 194q17 15 51 15q30 0 54 -11t25 -27q-50 -135 -138 -459q-25 -101 13 -102q42 0 81 45.5t63 95.5q2 3 6 3q10 0 22.5 -9.5t9.5 -15.5
q-35 -75 -95.5 -137.5t-132.5 -62.5q-41 0 -67 28.5t-25 79.5q-33 -47 -86 -78t-107 -31q-193 0 -123 265q0 1 97 314q-22 -26 -57.5 -43.5t-63.5 -25t-52.5 -23t-29.5 -39.5q-12 -51 31 -65q12 -7 3.5 -34t-25.5 -28q-3 0 -8 -0.5t-7 -0.5q-63 0 -100.5 40.5t-23.5 95.5
q10 40 40.5 64.5t72.5 38t86.5 25.5t92 36.5t78.5 61.5z" />
    <glyph glyph-name="uni0419" unicode="&#x419;" horiz-adv-x="918" 
d="M464 673q19 17 63 17q27 0 47 -7t21 -19q-78 -238 -138 -444q-43 -148 33 -148q48 0 96.5 53t72.5 130q20 64 62.5 208t57.5 194q17 15 51 15q30 0 54 -11t25 -27q-50 -135 -138 -459q-25 -101 13 -102q42 0 81 45.5t63 95.5q2 3 6 3q10 0 22.5 -9.5t9.5 -15.5
q-35 -75 -95.5 -137.5t-132.5 -62.5q-41 0 -67 28.5t-25 79.5q-33 -47 -86 -78t-107 -31q-193 0 -123 265q0 1 97 314q-22 -26 -57.5 -43.5t-63.5 -25t-52.5 -23t-29.5 -39.5q-12 -51 31 -65q12 -7 3.5 -34t-25.5 -28q-3 0 -8 -0.5t-7 -0.5q-63 0 -100.5 40.5t-23.5 95.5
q10 40 40.5 64.5t72.5 38t86.5 25.5t92 36.5t78.5 61.5zM822 863q3 3 7 3q13 0 23.5 -21t2.5 -32q-22 -31 -64.5 -49t-86.5 -18q-40 0 -68.5 15.5t-34.5 44.5q-4 19 14.5 38.5t34.5 19.5q5 0 8 -4q17 -31 64 -31q27 0 55.5 10t44.5 24z" />
    <glyph glyph-name="uni041A" unicode="&#x41a;" horiz-adv-x="862" 
d="M752 674q15 16 52 16q26 0 49.5 -8t26.5 -19q-36 -117 -102.5 -206.5t-157.5 -122.5q50 -24 68 -100q6 -23 12.5 -60t12 -64.5t15 -57t26.5 -50.5t42 -32q14 -21 -10 -56.5t-64 -35.5h-6q-36 9 -61.5 33.5t-38.5 64t-19.5 72t-12 81t-9.5 67.5q-9 46 -26.5 69t-50.5 25
q-19 -68 -32.5 -107.5t-34.5 -81t-45.5 -62.5t-61 -34.5t-85.5 -13.5q-54 -1 -93 20.5t-54 54.5t-15 68.5t22 67.5t60 48q1 0 3 0.5t4 0.5q22 0 44.5 -17t21.5 -38q-23 -26 -28 -56t9 -50t41 -20q31 1 51.5 38t43.5 113t53.5 182t49.5 168q-23 -25 -58.5 -43t-63.5 -26.5
t-51.5 -24.5t-29.5 -40q-13 -51 31 -65q5 -4 6 -16.5t-7 -27t-21 -17.5q-3 0 -7.5 -0.5t-6.5 -0.5q-63 0 -101 42t-24 96q10 40 41 65t73.5 38t87 24.5t91.5 35.5t77 60q14 20 66 20q26 0 46 -6.5t21 -17.5q-36 -98 -92 -280q27 10 51 26t41.5 31t35 38.5t27.5 39.5t22.5 43
t17.5 39t15 38.5t12 31.5z" />
    <glyph glyph-name="uni041B" unicode="&#x41b;" horiz-adv-x="840" 
d="M761 -144q-83 0 -140 87q-63 103 -46 311q6 95 31 229h-4q-15 -57 -34 -114t-51 -127t-68.5 -122.5t-87 -89.5t-105.5 -40h-16q-76 0 -122 39.5t-40 104.5q3 38 25 69t55 45q3 1 9 1q22 0 45.5 -19t19.5 -36q-36 -45 -29 -85.5t45 -40.5h2q109 4 296 507q-23 -21 -62 -38
t-70 -27t-58 -27.5t-34 -42.5q-14 -49 30 -65q5 -5 5.5 -17t-8.5 -26t-22 -17h-8q-65 0 -103 41.5t-23 96.5q12 40 44 64.5t75.5 37.5t88.5 24.5t93.5 34t81.5 57.5q15 20 67 20q31 0 53.5 -8.5t21.5 -22.5q-54 -398 -27 -526q13 -66 46 -113.5t71 -60.5q10 -4 13 -16
t-1 -27t-11.5 -29t-20.5 -23t-27 -9z" />
    <glyph glyph-name="uni041C" unicode="&#x41c;" horiz-adv-x="1070" 
d="M217 -10q-65 0 -107 32.5t-48 78.5q-7 45 14.5 89.5t68.5 58.5q2 1 7 1q21 0 44.5 -19.5t18.5 -36.5q-34 -40 -30.5 -83t42.5 -43h3q17 1 35 12.5t38 37.5t37 51t40 69.5t38.5 76t40 88t37.5 87.5t38 91q-31 -27 -84.5 -48t-92 -40.5t-48.5 -50.5q-15 -50 28 -67
q7 -5 6.5 -18.5t-11 -28t-24.5 -14.5h-11q-62 0 -98 43t-18 99q13 40 46 64.5t76.5 37.5t89 24.5t93 34.5t78.5 59q11 17 58 17q19 0 37 -3.5t29 -10t9 -14.5q-67 -314 -63 -452q0 -64 22 -64q20 0 59.5 70t82 174t69 171.5t42.5 111.5q14 14 54 14q27 0 50.5 -8t29.5 -22
q-4 -26 -13.5 -84t-16.5 -101.5t-16.5 -104.5t-15 -111.5t-9.5 -103.5t-4 -98.5t5 -79.5q2 -15 -23.5 -24t-56.5 -9q-49 0 -52 20q-16 136 29 369q17 77 19 86h-3q-65 -206 -123 -290q-55 -83 -127 -83q-34 0 -59 22t-33 63q-23 92 19 286h-3q-30 -106 -38 -124
q-26 -60 -49.5 -103.5t-61 -94t-87 -78t-107.5 -27.5z" />
    </font>
</defs>
</svg>
